<mxfile host="app.diagrams.net" modified="2022-03-28T02:58:39.007Z" agent="5.0 (Macintosh; Intel Mac OS X 10_15_7) AppleWebKit/537.36 (KHTML, like Gecko) Chrome/99.0.4844.83 Safari/537.36" etag="QesPigIU56sIAiAkVTUf" version="16.6.3" type="github" pages="10">
  <diagram id="lv5Tm_oZWNNOnXNdfYGI" name="Page-1">
    <mxGraphModel dx="1426" dy="1963" grid="1" gridSize="10" guides="1" tooltips="1" connect="1" arrows="1" fold="1" page="1" pageScale="1" pageWidth="827" pageHeight="1169" math="0" shadow="0">
      <root>
        <mxCell id="0" />
        <mxCell id="1" parent="0" />
        <mxCell id="5a3aKUOkknQFn2wq5atY-1" value="" style="rounded=1;whiteSpace=wrap;html=1;dashed=1;fillColor=#f5f5f5;fontColor=#333333;strokeColor=#666666;" vertex="1" parent="1">
          <mxGeometry x="20" y="600" width="760" height="210" as="geometry" />
        </mxCell>
        <mxCell id="5a3aKUOkknQFn2wq5atY-2" value="" style="rounded=1;whiteSpace=wrap;html=1;dashed=1;fillColor=#f5f5f5;fontColor=#333333;strokeColor=#666666;" vertex="1" parent="1">
          <mxGeometry x="20" y="230" width="760" height="210" as="geometry" />
        </mxCell>
        <mxCell id="5a3aKUOkknQFn2wq5atY-3" value="" style="rounded=0;whiteSpace=wrap;html=1;dashed=1;fillColor=#d5e8d4;strokeColor=#82b366;" vertex="1" parent="1">
          <mxGeometry x="218" y="690" width="240" height="100" as="geometry" />
        </mxCell>
        <mxCell id="5a3aKUOkknQFn2wq5atY-4" value="" style="rounded=0;whiteSpace=wrap;html=1;dashed=1;fillColor=#d5e8d4;strokeColor=#82b366;" vertex="1" parent="1">
          <mxGeometry x="220" y="320" width="240" height="100" as="geometry" />
        </mxCell>
        <mxCell id="5a3aKUOkknQFn2wq5atY-5" style="edgeStyle=orthogonalEdgeStyle;rounded=0;orthogonalLoop=1;jettySize=auto;html=1;exitX=0.5;exitY=1;exitDx=0;exitDy=0;entryX=0.5;entryY=0;entryDx=0;entryDy=0;" edge="1" parent="1" source="5a3aKUOkknQFn2wq5atY-6" target="5a3aKUOkknQFn2wq5atY-8">
          <mxGeometry relative="1" as="geometry" />
        </mxCell>
        <mxCell id="5a3aKUOkknQFn2wq5atY-6" value="命中初始策略" style="rounded=0;whiteSpace=wrap;html=1;fillColor=#fff2cc;strokeColor=#d6b656;" vertex="1" parent="1">
          <mxGeometry x="440" y="80" width="90" height="40" as="geometry" />
        </mxCell>
        <mxCell id="5a3aKUOkknQFn2wq5atY-7" style="edgeStyle=orthogonalEdgeStyle;rounded=0;orthogonalLoop=1;jettySize=auto;html=1;exitX=0.5;exitY=1;exitDx=0;exitDy=0;entryX=0.5;entryY=0;entryDx=0;entryDy=0;" edge="1" parent="1" source="5a3aKUOkknQFn2wq5atY-8" target="5a3aKUOkknQFn2wq5atY-23">
          <mxGeometry relative="1" as="geometry" />
        </mxCell>
        <mxCell id="5a3aKUOkknQFn2wq5atY-8" value="等待器" style="rounded=0;whiteSpace=wrap;html=1;fillColor=#fff2cc;strokeColor=#d6b656;" vertex="1" parent="1">
          <mxGeometry x="440" y="180" width="90" height="40" as="geometry" />
        </mxCell>
        <mxCell id="5a3aKUOkknQFn2wq5atY-9" value="进策略实时人群" style="rounded=0;whiteSpace=wrap;html=1;fillColor=#fff2cc;strokeColor=#d6b656;" vertex="1" parent="1">
          <mxGeometry x="350" y="360" width="90" height="40" as="geometry" />
        </mxCell>
        <mxCell id="5a3aKUOkknQFn2wq5atY-10" style="edgeStyle=orthogonalEdgeStyle;rounded=0;orthogonalLoop=1;jettySize=auto;html=1;exitX=0.5;exitY=1;exitDx=0;exitDy=0;" edge="1" parent="1" source="5a3aKUOkknQFn2wq5atY-12" target="5a3aKUOkknQFn2wq5atY-14">
          <mxGeometry relative="1" as="geometry" />
        </mxCell>
        <mxCell id="5a3aKUOkknQFn2wq5atY-11" value="延迟队列" style="edgeLabel;html=1;align=center;verticalAlign=middle;resizable=0;points=[];" vertex="1" connectable="0" parent="5a3aKUOkknQFn2wq5atY-10">
          <mxGeometry x="0.0795" y="2" relative="1" as="geometry">
            <mxPoint y="1" as="offset" />
          </mxGeometry>
        </mxCell>
        <mxCell id="5a3aKUOkknQFn2wq5atY-12" value="实时策略" style="rounded=0;whiteSpace=wrap;html=1;fillColor=#fff2cc;strokeColor=#d6b656;" vertex="1" parent="1">
          <mxGeometry x="230" y="360" width="90" height="40" as="geometry" />
        </mxCell>
        <mxCell id="5a3aKUOkknQFn2wq5atY-13" style="edgeStyle=orthogonalEdgeStyle;rounded=0;orthogonalLoop=1;jettySize=auto;html=1;exitX=0.5;exitY=1;exitDx=0;exitDy=0;entryX=0.5;entryY=0;entryDx=0;entryDy=0;" edge="1" parent="1" source="5a3aKUOkknQFn2wq5atY-14" target="5a3aKUOkknQFn2wq5atY-32">
          <mxGeometry relative="1" as="geometry" />
        </mxCell>
        <mxCell id="5a3aKUOkknQFn2wq5atY-14" value="等待器" style="rounded=0;whiteSpace=wrap;html=1;fillColor=#fff2cc;strokeColor=#d6b656;" vertex="1" parent="1">
          <mxGeometry x="440" y="530" width="90" height="40" as="geometry" />
        </mxCell>
        <mxCell id="5a3aKUOkknQFn2wq5atY-15" style="edgeStyle=orthogonalEdgeStyle;rounded=0;orthogonalLoop=1;jettySize=auto;html=1;exitX=0.5;exitY=1;exitDx=0;exitDy=0;" edge="1" parent="1" source="5a3aKUOkknQFn2wq5atY-16" target="5a3aKUOkknQFn2wq5atY-6">
          <mxGeometry relative="1" as="geometry" />
        </mxCell>
        <mxCell id="5a3aKUOkknQFn2wq5atY-16" value="策略组上线" style="rounded=0;whiteSpace=wrap;html=1;fillColor=#fff2cc;strokeColor=#d6b656;" vertex="1" parent="1">
          <mxGeometry x="440" y="-10" width="90" height="40" as="geometry" />
        </mxCell>
        <mxCell id="5a3aKUOkknQFn2wq5atY-17" style="edgeStyle=orthogonalEdgeStyle;rounded=0;orthogonalLoop=1;jettySize=auto;html=1;exitX=1;exitY=0.5;exitDx=0;exitDy=0;" edge="1" parent="1" source="5a3aKUOkknQFn2wq5atY-23" target="5a3aKUOkknQFn2wq5atY-28">
          <mxGeometry relative="1" as="geometry" />
        </mxCell>
        <mxCell id="5a3aKUOkknQFn2wq5atY-18" value="是" style="edgeLabel;html=1;align=center;verticalAlign=middle;resizable=0;points=[];" vertex="1" connectable="0" parent="5a3aKUOkknQFn2wq5atY-17">
          <mxGeometry x="-0.2917" y="1" relative="1" as="geometry">
            <mxPoint y="1" as="offset" />
          </mxGeometry>
        </mxCell>
        <mxCell id="5a3aKUOkknQFn2wq5atY-19" style="edgeStyle=orthogonalEdgeStyle;rounded=0;orthogonalLoop=1;jettySize=auto;html=1;exitX=0;exitY=0.5;exitDx=0;exitDy=0;entryX=0.5;entryY=0;entryDx=0;entryDy=0;" edge="1" parent="1" source="5a3aKUOkknQFn2wq5atY-23" target="5a3aKUOkknQFn2wq5atY-9">
          <mxGeometry relative="1" as="geometry" />
        </mxCell>
        <mxCell id="5a3aKUOkknQFn2wq5atY-20" value="uid" style="edgeLabel;html=1;align=center;verticalAlign=middle;resizable=0;points=[];" vertex="1" connectable="0" parent="5a3aKUOkknQFn2wq5atY-19">
          <mxGeometry x="0.4476" y="1" relative="1" as="geometry">
            <mxPoint as="offset" />
          </mxGeometry>
        </mxCell>
        <mxCell id="5a3aKUOkknQFn2wq5atY-21" style="edgeStyle=orthogonalEdgeStyle;rounded=0;orthogonalLoop=1;jettySize=auto;html=1;exitX=0;exitY=0.5;exitDx=0;exitDy=0;" edge="1" parent="1" source="5a3aKUOkknQFn2wq5atY-23" target="5a3aKUOkknQFn2wq5atY-12">
          <mxGeometry relative="1" as="geometry" />
        </mxCell>
        <mxCell id="5a3aKUOkknQFn2wq5atY-22" value="上线" style="edgeLabel;html=1;align=center;verticalAlign=middle;resizable=0;points=[];" vertex="1" connectable="0" parent="5a3aKUOkknQFn2wq5atY-21">
          <mxGeometry x="0.251" y="1" relative="1" as="geometry">
            <mxPoint as="offset" />
          </mxGeometry>
        </mxCell>
        <mxCell id="5a3aKUOkknQFn2wq5atY-23" value="完成目标" style="rhombus;whiteSpace=wrap;html=1;fillColor=#f8cecc;strokeColor=#b85450;" vertex="1" parent="1">
          <mxGeometry x="458" y="260" width="55" height="80" as="geometry" />
        </mxCell>
        <mxCell id="5a3aKUOkknQFn2wq5atY-24" style="edgeStyle=orthogonalEdgeStyle;rounded=0;orthogonalLoop=1;jettySize=auto;html=1;exitX=1;exitY=0.75;exitDx=0;exitDy=0;entryX=0;entryY=0.5;entryDx=0;entryDy=0;" edge="1" parent="1" source="5a3aKUOkknQFn2wq5atY-26" target="5a3aKUOkknQFn2wq5atY-6">
          <mxGeometry relative="1" as="geometry" />
        </mxCell>
        <mxCell id="5a3aKUOkknQFn2wq5atY-25" value="命中" style="edgeLabel;html=1;align=center;verticalAlign=middle;resizable=0;points=[];" vertex="1" connectable="0" parent="5a3aKUOkknQFn2wq5atY-24">
          <mxGeometry x="-0.6" y="-1" relative="1" as="geometry">
            <mxPoint y="1" as="offset" />
          </mxGeometry>
        </mxCell>
        <mxCell id="5a3aKUOkknQFn2wq5atY-26" value="&lt;br&gt;&lt;br&gt;用户" style="shape=actor;whiteSpace=wrap;html=1;fillColor=#f5f5f5;fontColor=#333333;strokeColor=#666666;" vertex="1" parent="1">
          <mxGeometry x="50" y="55" width="40" height="60" as="geometry" />
        </mxCell>
        <mxCell id="5a3aKUOkknQFn2wq5atY-27" value="延迟队列" style="text;html=1;strokeColor=none;fillColor=none;align=center;verticalAlign=middle;whiteSpace=wrap;rounded=0;" vertex="1" parent="1">
          <mxGeometry x="490" y="140" width="60" height="30" as="geometry" />
        </mxCell>
        <mxCell id="5a3aKUOkknQFn2wq5atY-28" value="结束" style="rounded=0;whiteSpace=wrap;html=1;fillColor=#fff2cc;strokeColor=#d6b656;" vertex="1" parent="1">
          <mxGeometry x="600" y="360" width="90" height="40" as="geometry" />
        </mxCell>
        <mxCell id="5a3aKUOkknQFn2wq5atY-29" style="edgeStyle=orthogonalEdgeStyle;rounded=0;orthogonalLoop=1;jettySize=auto;html=1;exitX=1;exitY=0.75;exitDx=0;exitDy=0;" edge="1" parent="1" source="5a3aKUOkknQFn2wq5atY-31" target="5a3aKUOkknQFn2wq5atY-12">
          <mxGeometry relative="1" as="geometry" />
        </mxCell>
        <mxCell id="5a3aKUOkknQFn2wq5atY-30" value="命中" style="edgeLabel;html=1;align=center;verticalAlign=middle;resizable=0;points=[];" vertex="1" connectable="0" parent="5a3aKUOkknQFn2wq5atY-29">
          <mxGeometry x="-0.1429" y="1" relative="1" as="geometry">
            <mxPoint y="1" as="offset" />
          </mxGeometry>
        </mxCell>
        <mxCell id="5a3aKUOkknQFn2wq5atY-31" value="&lt;br&gt;&lt;br&gt;用户" style="shape=actor;whiteSpace=wrap;html=1;fillColor=#f5f5f5;fontColor=#333333;strokeColor=#666666;" vertex="1" parent="1">
          <mxGeometry x="50" y="335" width="40" height="60" as="geometry" />
        </mxCell>
        <mxCell id="5a3aKUOkknQFn2wq5atY-32" value="完成目标" style="rhombus;whiteSpace=wrap;html=1;fillColor=#f8cecc;strokeColor=#b85450;" vertex="1" parent="1">
          <mxGeometry x="458" y="630" width="55" height="80" as="geometry" />
        </mxCell>
        <mxCell id="5a3aKUOkknQFn2wq5atY-33" value="进策略定时人群" style="rounded=0;whiteSpace=wrap;html=1;fillColor=#fff2cc;strokeColor=#d6b656;" vertex="1" parent="1">
          <mxGeometry x="350" y="730" width="90" height="40" as="geometry" />
        </mxCell>
        <mxCell id="5a3aKUOkknQFn2wq5atY-34" value="子策略" style="rounded=0;whiteSpace=wrap;html=1;fillColor=#fff2cc;strokeColor=#d6b656;" vertex="1" parent="1">
          <mxGeometry x="230" y="730" width="90" height="40" as="geometry" />
        </mxCell>
        <mxCell id="5a3aKUOkknQFn2wq5atY-35" style="edgeStyle=orthogonalEdgeStyle;rounded=0;orthogonalLoop=1;jettySize=auto;html=1;exitX=1;exitY=0.5;exitDx=0;exitDy=0;" edge="1" parent="1" target="5a3aKUOkknQFn2wq5atY-41">
          <mxGeometry relative="1" as="geometry">
            <mxPoint x="513" y="670" as="sourcePoint" />
          </mxGeometry>
        </mxCell>
        <mxCell id="5a3aKUOkknQFn2wq5atY-36" value="是" style="edgeLabel;html=1;align=center;verticalAlign=middle;resizable=0;points=[];" vertex="1" connectable="0" parent="5a3aKUOkknQFn2wq5atY-35">
          <mxGeometry x="-0.2917" y="1" relative="1" as="geometry">
            <mxPoint y="1" as="offset" />
          </mxGeometry>
        </mxCell>
        <mxCell id="5a3aKUOkknQFn2wq5atY-37" style="edgeStyle=orthogonalEdgeStyle;rounded=0;orthogonalLoop=1;jettySize=auto;html=1;exitX=0;exitY=0.5;exitDx=0;exitDy=0;entryX=0.5;entryY=0;entryDx=0;entryDy=0;" edge="1" parent="1" target="5a3aKUOkknQFn2wq5atY-33">
          <mxGeometry relative="1" as="geometry">
            <mxPoint x="458" y="670" as="sourcePoint" />
          </mxGeometry>
        </mxCell>
        <mxCell id="5a3aKUOkknQFn2wq5atY-38" value="uid" style="edgeLabel;html=1;align=center;verticalAlign=middle;resizable=0;points=[];" vertex="1" connectable="0" parent="5a3aKUOkknQFn2wq5atY-37">
          <mxGeometry x="0.4476" y="1" relative="1" as="geometry">
            <mxPoint as="offset" />
          </mxGeometry>
        </mxCell>
        <mxCell id="5a3aKUOkknQFn2wq5atY-39" style="edgeStyle=orthogonalEdgeStyle;rounded=0;orthogonalLoop=1;jettySize=auto;html=1;exitX=0;exitY=0.5;exitDx=0;exitDy=0;" edge="1" parent="1" target="5a3aKUOkknQFn2wq5atY-34">
          <mxGeometry relative="1" as="geometry">
            <mxPoint x="458" y="670" as="sourcePoint" />
          </mxGeometry>
        </mxCell>
        <mxCell id="5a3aKUOkknQFn2wq5atY-40" value="上线" style="edgeLabel;html=1;align=center;verticalAlign=middle;resizable=0;points=[];" vertex="1" connectable="0" parent="5a3aKUOkknQFn2wq5atY-39">
          <mxGeometry x="0.251" y="1" relative="1" as="geometry">
            <mxPoint as="offset" />
          </mxGeometry>
        </mxCell>
        <mxCell id="5a3aKUOkknQFn2wq5atY-41" value="结束" style="rounded=0;whiteSpace=wrap;html=1;fillColor=#fff2cc;strokeColor=#d6b656;" vertex="1" parent="1">
          <mxGeometry x="600" y="730" width="90" height="40" as="geometry" />
        </mxCell>
        <mxCell id="5a3aKUOkknQFn2wq5atY-42" value="子策略" style="text;html=1;strokeColor=none;fillColor=none;align=center;verticalAlign=middle;whiteSpace=wrap;rounded=0;dashed=1;" vertex="1" parent="1">
          <mxGeometry x="310" y="330" width="60" height="30" as="geometry" />
        </mxCell>
        <mxCell id="5a3aKUOkknQFn2wq5atY-43" value="子策略" style="text;html=1;strokeColor=none;fillColor=none;align=center;verticalAlign=middle;whiteSpace=wrap;rounded=0;dashed=1;" vertex="1" parent="1">
          <mxGeometry x="300" y="690" width="60" height="30" as="geometry" />
        </mxCell>
        <mxCell id="5a3aKUOkknQFn2wq5atY-44" value="实时/在线/订单" style="text;html=1;strokeColor=none;fillColor=none;align=center;verticalAlign=middle;whiteSpace=wrap;rounded=0;" vertex="1" parent="1">
          <mxGeometry x="40" y="240" width="100" height="30" as="geometry" />
        </mxCell>
        <mxCell id="5a3aKUOkknQFn2wq5atY-45" style="edgeStyle=orthogonalEdgeStyle;rounded=0;orthogonalLoop=1;jettySize=auto;html=1;exitX=0.875;exitY=0.5;exitDx=0;exitDy=0;exitPerimeter=0;entryX=0;entryY=0.5;entryDx=0;entryDy=0;" edge="1" parent="1" source="5a3aKUOkknQFn2wq5atY-47" target="5a3aKUOkknQFn2wq5atY-34">
          <mxGeometry relative="1" as="geometry" />
        </mxCell>
        <mxCell id="5a3aKUOkknQFn2wq5atY-46" value="定时执行" style="edgeLabel;html=1;align=center;verticalAlign=middle;resizable=0;points=[];" vertex="1" connectable="0" parent="5a3aKUOkknQFn2wq5atY-45">
          <mxGeometry x="-0.0526" relative="1" as="geometry">
            <mxPoint as="offset" />
          </mxGeometry>
        </mxCell>
        <mxCell id="5a3aKUOkknQFn2wq5atY-47" value="worker" style="ellipse;shape=cloud;whiteSpace=wrap;html=1;fillColor=#dae8fc;strokeColor=#6c8ebf;" vertex="1" parent="1">
          <mxGeometry x="30" y="710" width="120" height="80" as="geometry" />
        </mxCell>
        <mxCell id="5a3aKUOkknQFn2wq5atY-48" value="定时" style="text;html=1;strokeColor=none;fillColor=none;align=center;verticalAlign=middle;whiteSpace=wrap;rounded=0;" vertex="1" parent="1">
          <mxGeometry x="50" y="620" width="60" height="30" as="geometry" />
        </mxCell>
      </root>
    </mxGraphModel>
  </diagram>
  <diagram name="Page-2" id="T3Ls3J9ZvBnyF438Oqbr">
    <mxGraphModel dx="946" dy="614" grid="1" gridSize="10" guides="1" tooltips="1" connect="1" arrows="1" fold="1" page="1" pageScale="1" pageWidth="850" pageHeight="1100" math="0" shadow="0">
      <root>
        <mxCell id="qEZxNXo5xL8gnY59GB4b-0" />
        <mxCell id="qEZxNXo5xL8gnY59GB4b-1" parent="qEZxNXo5xL8gnY59GB4b-0" />
        <mxCell id="V3l9DCqNzyq9gVZvSELY-49" value="" style="rounded=1;whiteSpace=wrap;html=1;fontSize=11;fillColor=#D5E8D4;strokeColor=#82b366;" parent="qEZxNXo5xL8gnY59GB4b-1" vertex="1">
          <mxGeometry x="40" y="100" width="980" height="500" as="geometry" />
        </mxCell>
        <mxCell id="V3l9DCqNzyq9gVZvSELY-7" value="" style="rounded=1;whiteSpace=wrap;html=1;dashed=1;dashPattern=1 1;fillColor=#dae8fc;strokeColor=#6c8ebf;" parent="qEZxNXo5xL8gnY59GB4b-1" vertex="1">
          <mxGeometry x="650" y="340" width="230" height="90" as="geometry" />
        </mxCell>
        <mxCell id="V3l9DCqNzyq9gVZvSELY-51" value="" style="rounded=1;whiteSpace=wrap;html=1;dashed=1;dashPattern=1 1;fillColor=#dae8fc;strokeColor=#6c8ebf;" parent="qEZxNXo5xL8gnY59GB4b-1" vertex="1">
          <mxGeometry x="420" y="133" width="575" height="120" as="geometry" />
        </mxCell>
        <mxCell id="V3l9DCqNzyq9gVZvSELY-24" value="" style="rounded=1;whiteSpace=wrap;html=1;dashed=1;dashPattern=1 1;fillColor=#dae8fc;strokeColor=#6c8ebf;" parent="qEZxNXo5xL8gnY59GB4b-1" vertex="1">
          <mxGeometry x="645" y="630" width="345" height="100" as="geometry" />
        </mxCell>
        <mxCell id="V3l9DCqNzyq9gVZvSELY-43" value="" style="rounded=0;whiteSpace=wrap;html=1;fontSize=11;fillColor=#97D077;" parent="qEZxNXo5xL8gnY59GB4b-1" vertex="1">
          <mxGeometry x="735" y="660" width="160" height="60" as="geometry" />
        </mxCell>
        <mxCell id="V3l9DCqNzyq9gVZvSELY-54" style="edgeStyle=orthogonalEdgeStyle;rounded=0;orthogonalLoop=1;jettySize=auto;html=1;exitX=0.5;exitY=1;exitDx=0;exitDy=0;entryX=0.5;entryY=0;entryDx=0;entryDy=0;dashed=1;fontSize=11;strokeColor=#0000FF;" parent="qEZxNXo5xL8gnY59GB4b-1" source="V3l9DCqNzyq9gVZvSELY-33" target="V3l9DCqNzyq9gVZvSELY-6" edge="1">
          <mxGeometry relative="1" as="geometry" />
        </mxCell>
        <mxCell id="V3l9DCqNzyq9gVZvSELY-33" value="" style="rounded=0;whiteSpace=wrap;html=1;dashed=1;dashPattern=1 4;fillColor=#99CCFF;fontColor=#333333;strokeColor=#666666;" parent="qEZxNXo5xL8gnY59GB4b-1" vertex="1">
          <mxGeometry x="665" y="163" width="300" height="80" as="geometry" />
        </mxCell>
        <mxCell id="VilWsovoB7dW34IjjS87-4" style="edgeStyle=orthogonalEdgeStyle;rounded=0;orthogonalLoop=1;jettySize=auto;html=1;exitX=0.5;exitY=1;exitDx=0;exitDy=0;entryX=0.5;entryY=0;entryDx=0;entryDy=0;dashed=1;fontSize=11;strokeColor=#000000;" parent="qEZxNXo5xL8gnY59GB4b-1" source="V3l9DCqNzyq9gVZvSELY-27" target="V3l9DCqNzyq9gVZvSELY-11" edge="1">
          <mxGeometry relative="1" as="geometry" />
        </mxCell>
        <mxCell id="V3l9DCqNzyq9gVZvSELY-27" value="" style="rounded=0;whiteSpace=wrap;html=1;dashed=1;dashPattern=1 4;fillColor=#d0cee2;strokeColor=#56517e;" parent="qEZxNXo5xL8gnY59GB4b-1" vertex="1">
          <mxGeometry x="440" y="163" width="190" height="80" as="geometry" />
        </mxCell>
        <mxCell id="V3l9DCqNzyq9gVZvSELY-3" value="" style="rounded=1;whiteSpace=wrap;html=1;dashed=1;dashPattern=1 1;fillColor=#dae8fc;strokeColor=#6c8ebf;" parent="qEZxNXo5xL8gnY59GB4b-1" vertex="1">
          <mxGeometry x="60" y="340" width="290" height="170" as="geometry" />
        </mxCell>
        <mxCell id="V3l9DCqNzyq9gVZvSELY-19" style="edgeStyle=orthogonalEdgeStyle;rounded=0;orthogonalLoop=1;jettySize=auto;html=1;exitX=0.5;exitY=1;exitDx=0;exitDy=0;entryX=1;entryY=0.5;entryDx=0;entryDy=0;dashed=1;strokeColor=#FF0000;" parent="qEZxNXo5xL8gnY59GB4b-1" source="V3l9DCqNzyq9gVZvSELY-7" target="V3l9DCqNzyq9gVZvSELY-17" edge="1">
          <mxGeometry relative="1" as="geometry" />
        </mxCell>
        <mxCell id="V3l9DCqNzyq9gVZvSELY-53" style="edgeStyle=orthogonalEdgeStyle;rounded=0;orthogonalLoop=1;jettySize=auto;html=1;exitX=0.75;exitY=1;exitDx=0;exitDy=0;entryX=1;entryY=0.5;entryDx=0;entryDy=0;fontSize=11;dashed=1;strokeColor=#FF0000;" parent="qEZxNXo5xL8gnY59GB4b-1" source="V3l9DCqNzyq9gVZvSELY-7" target="V3l9DCqNzyq9gVZvSELY-16" edge="1">
          <mxGeometry relative="1" as="geometry" />
        </mxCell>
        <mxCell id="V3l9DCqNzyq9gVZvSELY-4" style="edgeStyle=orthogonalEdgeStyle;rounded=0;orthogonalLoop=1;jettySize=auto;html=1;exitX=1;exitY=0.5;exitDx=0;exitDy=0;entryX=0;entryY=0.5;entryDx=0;entryDy=0;dashed=1;" parent="qEZxNXo5xL8gnY59GB4b-1" source="V3l9DCqNzyq9gVZvSELY-0" target="V3l9DCqNzyq9gVZvSELY-1" edge="1">
          <mxGeometry relative="1" as="geometry" />
        </mxCell>
        <mxCell id="V3l9DCqNzyq9gVZvSELY-59" style="edgeStyle=orthogonalEdgeStyle;rounded=0;orthogonalLoop=1;jettySize=auto;html=1;exitX=0.5;exitY=1;exitDx=0;exitDy=0;entryX=0;entryY=0.5;entryDx=0;entryDy=0;fontSize=11;strokeColor=#000000;" parent="qEZxNXo5xL8gnY59GB4b-1" source="V3l9DCqNzyq9gVZvSELY-0" target="V3l9DCqNzyq9gVZvSELY-24" edge="1">
          <mxGeometry relative="1" as="geometry" />
        </mxCell>
        <mxCell id="V3l9DCqNzyq9gVZvSELY-60" value="可编排域" style="edgeLabel;html=1;align=center;verticalAlign=middle;resizable=0;points=[];fontSize=11;" parent="V3l9DCqNzyq9gVZvSELY-59" vertex="1" connectable="0">
          <mxGeometry x="0.0636" y="-1" relative="1" as="geometry">
            <mxPoint as="offset" />
          </mxGeometry>
        </mxCell>
        <mxCell id="1ZfvePBl4WDlHf-lYQx1-4" style="edgeStyle=orthogonalEdgeStyle;rounded=0;orthogonalLoop=1;jettySize=auto;html=1;exitX=0.75;exitY=1;exitDx=0;exitDy=0;entryX=0;entryY=0.5;entryDx=0;entryDy=0;dashed=1;" parent="qEZxNXo5xL8gnY59GB4b-1" source="V3l9DCqNzyq9gVZvSELY-0" target="V3l9DCqNzyq9gVZvSELY-17" edge="1">
          <mxGeometry relative="1" as="geometry" />
        </mxCell>
        <mxCell id="V3l9DCqNzyq9gVZvSELY-0" value="management" style="rounded=0;whiteSpace=wrap;html=1;" parent="qEZxNXo5xL8gnY59GB4b-1" vertex="1">
          <mxGeometry x="70" y="365" width="90" height="40" as="geometry" />
        </mxCell>
        <mxCell id="V3l9DCqNzyq9gVZvSELY-21" style="edgeStyle=orthogonalEdgeStyle;rounded=0;orthogonalLoop=1;jettySize=auto;html=1;exitX=1;exitY=0.5;exitDx=0;exitDy=0;entryX=0;entryY=0.5;entryDx=0;entryDy=0;" parent="qEZxNXo5xL8gnY59GB4b-1" source="V3l9DCqNzyq9gVZvSELY-1" target="V3l9DCqNzyq9gVZvSELY-7" edge="1">
          <mxGeometry relative="1" as="geometry" />
        </mxCell>
        <mxCell id="V3l9DCqNzyq9gVZvSELY-22" style="edgeStyle=orthogonalEdgeStyle;rounded=0;orthogonalLoop=1;jettySize=auto;html=1;exitX=0.5;exitY=0;exitDx=0;exitDy=0;" parent="qEZxNXo5xL8gnY59GB4b-1" source="V3l9DCqNzyq9gVZvSELY-1" target="V3l9DCqNzyq9gVZvSELY-2" edge="1">
          <mxGeometry relative="1" as="geometry" />
        </mxCell>
        <mxCell id="VilWsovoB7dW34IjjS87-2" value="定时策略" style="edgeLabel;html=1;align=center;verticalAlign=middle;resizable=0;points=[];fontSize=11;" parent="V3l9DCqNzyq9gVZvSELY-22" vertex="1" connectable="0">
          <mxGeometry x="-0.1222" relative="1" as="geometry">
            <mxPoint as="offset" />
          </mxGeometry>
        </mxCell>
        <mxCell id="V3l9DCqNzyq9gVZvSELY-1" value="tower" style="rounded=0;whiteSpace=wrap;html=1;" parent="qEZxNXo5xL8gnY59GB4b-1" vertex="1">
          <mxGeometry x="240" y="365" width="90" height="40" as="geometry" />
        </mxCell>
        <mxCell id="VilWsovoB7dW34IjjS87-1" style="edgeStyle=orthogonalEdgeStyle;rounded=0;orthogonalLoop=1;jettySize=auto;html=1;exitX=1;exitY=0.5;exitDx=0;exitDy=0;entryX=0;entryY=0.5;entryDx=0;entryDy=0;fontSize=11;strokeColor=#000000;dashed=1;" parent="qEZxNXo5xL8gnY59GB4b-1" source="V3l9DCqNzyq9gVZvSELY-2" target="V3l9DCqNzyq9gVZvSELY-27" edge="1">
          <mxGeometry relative="1" as="geometry" />
        </mxCell>
        <mxCell id="V3l9DCqNzyq9gVZvSELY-2" value="定时任务" style="rounded=0;whiteSpace=wrap;html=1;fillColor=#97D077;" parent="qEZxNXo5xL8gnY59GB4b-1" vertex="1">
          <mxGeometry x="240" y="183" width="90" height="40" as="geometry" />
        </mxCell>
        <mxCell id="V3l9DCqNzyq9gVZvSELY-55" style="edgeStyle=orthogonalEdgeStyle;rounded=0;orthogonalLoop=1;jettySize=auto;html=1;exitX=0.5;exitY=1;exitDx=0;exitDy=0;fontSize=11;strokeColor=#0000FF;" parent="qEZxNXo5xL8gnY59GB4b-1" source="V3l9DCqNzyq9gVZvSELY-5" target="V3l9DCqNzyq9gVZvSELY-43" edge="1">
          <mxGeometry relative="1" as="geometry">
            <Array as="points">
              <mxPoint x="718" y="540" />
              <mxPoint x="815" y="540" />
            </Array>
          </mxGeometry>
        </mxCell>
        <mxCell id="V3l9DCqNzyq9gVZvSELY-5" value="离线引擎" style="rounded=0;whiteSpace=wrap;html=1;" parent="qEZxNXo5xL8gnY59GB4b-1" vertex="1">
          <mxGeometry x="672.5" y="370" width="90" height="40" as="geometry" />
        </mxCell>
        <mxCell id="V3l9DCqNzyq9gVZvSELY-45" style="edgeStyle=orthogonalEdgeStyle;rounded=0;orthogonalLoop=1;jettySize=auto;html=1;exitX=0.5;exitY=1;exitDx=0;exitDy=0;entryX=0.5;entryY=0;entryDx=0;entryDy=0;fontSize=11;strokeColor=#0000FF;" parent="qEZxNXo5xL8gnY59GB4b-1" source="V3l9DCqNzyq9gVZvSELY-6" target="V3l9DCqNzyq9gVZvSELY-43" edge="1">
          <mxGeometry relative="1" as="geometry" />
        </mxCell>
        <mxCell id="V3l9DCqNzyq9gVZvSELY-6" value="在线引擎" style="rounded=0;whiteSpace=wrap;html=1;" parent="qEZxNXo5xL8gnY59GB4b-1" vertex="1">
          <mxGeometry x="770" y="370" width="90" height="40" as="geometry" />
        </mxCell>
        <mxCell id="V3l9DCqNzyq9gVZvSELY-8" value="主版" style="ellipse;shape=cloud;whiteSpace=wrap;html=1;" parent="qEZxNXo5xL8gnY59GB4b-1" vertex="1">
          <mxGeometry x="675" y="183" width="80" height="50" as="geometry" />
        </mxCell>
        <mxCell id="V3l9DCqNzyq9gVZvSELY-9" value="小程序" style="ellipse;shape=cloud;whiteSpace=wrap;html=1;" parent="qEZxNXo5xL8gnY59GB4b-1" vertex="1">
          <mxGeometry x="765" y="183" width="80" height="50" as="geometry" />
        </mxCell>
        <mxCell id="V3l9DCqNzyq9gVZvSELY-10" value="h5" style="ellipse;shape=cloud;whiteSpace=wrap;html=1;" parent="qEZxNXo5xL8gnY59GB4b-1" vertex="1">
          <mxGeometry x="855" y="183" width="80" height="50" as="geometry" />
        </mxCell>
        <mxCell id="V3l9DCqNzyq9gVZvSELY-12" style="edgeStyle=orthogonalEdgeStyle;rounded=0;orthogonalLoop=1;jettySize=auto;html=1;exitX=0.5;exitY=1;exitDx=0;exitDy=0;strokeColor=#0000FF;dashed=1;" parent="qEZxNXo5xL8gnY59GB4b-1" source="V3l9DCqNzyq9gVZvSELY-11" target="V3l9DCqNzyq9gVZvSELY-5" edge="1">
          <mxGeometry relative="1" as="geometry" />
        </mxCell>
        <mxCell id="V3l9DCqNzyq9gVZvSELY-11" value="mq" style="ellipse;whiteSpace=wrap;html=1;" parent="qEZxNXo5xL8gnY59GB4b-1" vertex="1">
          <mxGeometry x="495" y="284" width="80" height="40" as="geometry" />
        </mxCell>
        <mxCell id="V3l9DCqNzyq9gVZvSELY-14" value="实时行为" style="ellipse;shape=cloud;whiteSpace=wrap;html=1;" parent="qEZxNXo5xL8gnY59GB4b-1" vertex="1">
          <mxGeometry x="450" y="183" width="80" height="50" as="geometry" />
        </mxCell>
        <mxCell id="V3l9DCqNzyq9gVZvSELY-15" value="订单状态" style="ellipse;shape=cloud;whiteSpace=wrap;html=1;" parent="qEZxNXo5xL8gnY59GB4b-1" vertex="1">
          <mxGeometry x="540" y="183" width="80" height="50" as="geometry" />
        </mxCell>
        <mxCell id="V3l9DCqNzyq9gVZvSELY-16" value="平台工具" style="rounded=0;whiteSpace=wrap;html=1;fillColor=#97D077;strokeColor=#82b366;" parent="qEZxNXo5xL8gnY59GB4b-1" vertex="1">
          <mxGeometry x="240" y="540" width="90" height="40" as="geometry" />
        </mxCell>
        <mxCell id="V3l9DCqNzyq9gVZvSELY-20" style="edgeStyle=orthogonalEdgeStyle;rounded=0;orthogonalLoop=1;jettySize=auto;html=1;exitX=0.5;exitY=0;exitDx=0;exitDy=0;entryX=0.5;entryY=1;entryDx=0;entryDy=0;" parent="qEZxNXo5xL8gnY59GB4b-1" source="V3l9DCqNzyq9gVZvSELY-17" target="V3l9DCqNzyq9gVZvSELY-1" edge="1">
          <mxGeometry relative="1" as="geometry" />
        </mxCell>
        <mxCell id="V3l9DCqNzyq9gVZvSELY-17" value="策略调度" style="rounded=0;whiteSpace=wrap;html=1;fillColor=#f8cecc;strokeColor=#b85450;" parent="qEZxNXo5xL8gnY59GB4b-1" vertex="1">
          <mxGeometry x="420" y="460" width="90" height="40" as="geometry" />
        </mxCell>
        <mxCell id="V3l9DCqNzyq9gVZvSELY-26" value="投放引擎" style="text;html=1;strokeColor=none;fillColor=none;align=center;verticalAlign=middle;whiteSpace=wrap;rounded=0;" parent="qEZxNXo5xL8gnY59GB4b-1" vertex="1">
          <mxGeometry x="739" y="340" width="60" height="30" as="geometry" />
        </mxCell>
        <mxCell id="V3l9DCqNzyq9gVZvSELY-29" value="&lt;font style=&quot;font-size: 11px&quot;&gt;策略上下线&lt;/font&gt;" style="text;html=1;strokeColor=none;fillColor=none;align=center;verticalAlign=middle;whiteSpace=wrap;rounded=0;" parent="qEZxNXo5xL8gnY59GB4b-1" vertex="1">
          <mxGeometry x="170" y="350" width="70" height="30" as="geometry" />
        </mxCell>
        <mxCell id="V3l9DCqNzyq9gVZvSELY-30" value="&lt;font style=&quot;font-size: 11px&quot;&gt;规则投放&lt;/font&gt;" style="text;html=1;strokeColor=none;fillColor=none;align=center;verticalAlign=middle;whiteSpace=wrap;rounded=0;" parent="qEZxNXo5xL8gnY59GB4b-1" vertex="1">
          <mxGeometry x="430" y="350" width="70" height="30" as="geometry" />
        </mxCell>
        <mxCell id="V3l9DCqNzyq9gVZvSELY-31" value="&lt;font style=&quot;font-size: 11px&quot;&gt;log&lt;/font&gt;" style="text;html=1;strokeColor=none;fillColor=none;align=center;verticalAlign=middle;whiteSpace=wrap;rounded=0;" parent="qEZxNXo5xL8gnY59GB4b-1" vertex="1">
          <mxGeometry x="530" y="530" width="70" height="30" as="geometry" />
        </mxCell>
        <mxCell id="V3l9DCqNzyq9gVZvSELY-32" value="&lt;span style=&quot;font-size: 11px&quot;&gt;数据回流&lt;/span&gt;&lt;span style=&quot;font-size: 11px&quot;&gt;mq&lt;/span&gt;" style="text;html=1;strokeColor=none;fillColor=none;align=center;verticalAlign=middle;whiteSpace=wrap;rounded=0;" parent="qEZxNXo5xL8gnY59GB4b-1" vertex="1">
          <mxGeometry x="525" y="440" width="95" height="30" as="geometry" />
        </mxCell>
        <mxCell id="V3l9DCqNzyq9gVZvSELY-34" value="&lt;span style=&quot;font-size: 11px&quot;&gt;离线触点&lt;/span&gt;" style="text;html=1;strokeColor=none;fillColor=none;align=center;verticalAlign=middle;whiteSpace=wrap;rounded=0;" parent="qEZxNXo5xL8gnY59GB4b-1" vertex="1">
          <mxGeometry x="487.5" y="163" width="95" height="30" as="geometry" />
        </mxCell>
        <mxCell id="V3l9DCqNzyq9gVZvSELY-35" value="&lt;span style=&quot;font-size: 11px&quot;&gt;在线触点&lt;/span&gt;" style="text;html=1;strokeColor=none;fillColor=none;align=center;verticalAlign=middle;whiteSpace=wrap;rounded=0;" parent="qEZxNXo5xL8gnY59GB4b-1" vertex="1">
          <mxGeometry x="767.5" y="163" width="95" height="30" as="geometry" />
        </mxCell>
        <mxCell id="V3l9DCqNzyq9gVZvSELY-37" value="圈人平台" style="rounded=0;whiteSpace=wrap;html=1;" parent="qEZxNXo5xL8gnY59GB4b-1" vertex="1">
          <mxGeometry x="659" y="670" width="65" height="40" as="geometry" />
        </mxCell>
        <mxCell id="CN5j0-hdPku83hluR3uZ-1" style="edgeStyle=orthogonalEdgeStyle;rounded=0;orthogonalLoop=1;jettySize=auto;html=1;exitX=0.5;exitY=1;exitDx=0;exitDy=0;entryX=0.5;entryY=1;entryDx=0;entryDy=0;dashed=1;fontSize=11;strokeColor=#0000FF;" parent="qEZxNXo5xL8gnY59GB4b-1" source="V3l9DCqNzyq9gVZvSELY-38" target="CN5j0-hdPku83hluR3uZ-0" edge="1">
          <mxGeometry relative="1" as="geometry">
            <Array as="points">
              <mxPoint x="780" y="770" />
              <mxPoint x="165" y="770" />
            </Array>
          </mxGeometry>
        </mxCell>
        <mxCell id="V3l9DCqNzyq9gVZvSELY-38" value="触达中心" style="rounded=0;whiteSpace=wrap;html=1;" parent="qEZxNXo5xL8gnY59GB4b-1" vertex="1">
          <mxGeometry x="747.5" y="670" width="65" height="40" as="geometry" />
        </mxCell>
        <mxCell id="CN5j0-hdPku83hluR3uZ-2" style="edgeStyle=orthogonalEdgeStyle;rounded=0;orthogonalLoop=1;jettySize=auto;html=1;exitX=0.5;exitY=1;exitDx=0;exitDy=0;entryX=0.5;entryY=1;entryDx=0;entryDy=0;dashed=1;fontSize=11;strokeColor=#0000FF;" parent="qEZxNXo5xL8gnY59GB4b-1" source="V3l9DCqNzyq9gVZvSELY-39" target="CN5j0-hdPku83hluR3uZ-0" edge="1">
          <mxGeometry relative="1" as="geometry">
            <Array as="points">
              <mxPoint x="844" y="770" />
              <mxPoint x="165" y="770" />
            </Array>
          </mxGeometry>
        </mxCell>
        <mxCell id="CN5j0-hdPku83hluR3uZ-3" value="MQ" style="edgeLabel;html=1;align=center;verticalAlign=middle;resizable=0;points=[];fontSize=11;" parent="CN5j0-hdPku83hluR3uZ-2" vertex="1" connectable="0">
          <mxGeometry x="-0.0012" y="-1" relative="1" as="geometry">
            <mxPoint as="offset" />
          </mxGeometry>
        </mxCell>
        <mxCell id="V3l9DCqNzyq9gVZvSELY-39" value="权益中心" style="rounded=0;whiteSpace=wrap;html=1;" parent="qEZxNXo5xL8gnY59GB4b-1" vertex="1">
          <mxGeometry x="811.5" y="670" width="65" height="40" as="geometry" />
        </mxCell>
        <mxCell id="V3l9DCqNzyq9gVZvSELY-40" value="玩法资格" style="rounded=0;whiteSpace=wrap;html=1;" parent="qEZxNXo5xL8gnY59GB4b-1" vertex="1">
          <mxGeometry x="900" y="670" width="65" height="40" as="geometry" />
        </mxCell>
        <mxCell id="V3l9DCqNzyq9gVZvSELY-48" value="&lt;font style=&quot;font-size: 11px&quot;&gt;投放&lt;/font&gt;" style="text;html=1;strokeColor=none;fillColor=none;align=center;verticalAlign=middle;whiteSpace=wrap;rounded=0;" parent="qEZxNXo5xL8gnY59GB4b-1" vertex="1">
          <mxGeometry x="799" y="603" width="70" height="30" as="geometry" />
        </mxCell>
        <mxCell id="V3l9DCqNzyq9gVZvSELY-52" value="&lt;font style=&quot;font-size: 11px&quot;&gt;触点&lt;/font&gt;" style="text;html=1;strokeColor=none;fillColor=none;align=center;verticalAlign=middle;whiteSpace=wrap;rounded=0;" parent="qEZxNXo5xL8gnY59GB4b-1" vertex="1">
          <mxGeometry x="620" y="133" width="70" height="30" as="geometry" />
        </mxCell>
        <mxCell id="V3l9DCqNzyq9gVZvSELY-61" value="&lt;b&gt;用增平台&lt;/b&gt;" style="text;html=1;strokeColor=none;fillColor=none;align=center;verticalAlign=middle;whiteSpace=wrap;rounded=0;fontSize=11;" parent="qEZxNXo5xL8gnY59GB4b-1" vertex="1">
          <mxGeometry x="85" y="120" width="60" height="30" as="geometry" />
        </mxCell>
        <mxCell id="VilWsovoB7dW34IjjS87-3" value="&lt;font style=&quot;font-size: 11px&quot;&gt;B端编排&lt;/font&gt;" style="text;html=1;strokeColor=none;fillColor=none;align=center;verticalAlign=middle;whiteSpace=wrap;rounded=0;" parent="qEZxNXo5xL8gnY59GB4b-1" vertex="1">
          <mxGeometry x="70" y="340" width="70" height="30" as="geometry" />
        </mxCell>
        <mxCell id="LZAqQfxyWwCZFDv3tE0B-2" value="&lt;font style=&quot;font-size: 11px&quot;&gt;基础能力&lt;/font&gt;" style="text;html=1;strokeColor=none;fillColor=none;align=center;verticalAlign=middle;whiteSpace=wrap;rounded=0;" parent="qEZxNXo5xL8gnY59GB4b-1" vertex="1">
          <mxGeometry x="650" y="630" width="70" height="30" as="geometry" />
        </mxCell>
        <mxCell id="CN5j0-hdPku83hluR3uZ-0" value="数据统计工具" style="rounded=0;whiteSpace=wrap;html=1;fillColor=#97D077;strokeColor=#82b366;" parent="qEZxNXo5xL8gnY59GB4b-1" vertex="1">
          <mxGeometry x="120" y="540" width="90" height="40" as="geometry" />
        </mxCell>
      </root>
    </mxGraphModel>
  </diagram>
  <diagram name="Page-4" id="jRP2HG58VSzJUonnOooc">
    <mxGraphModel dx="946" dy="614" grid="1" gridSize="10" guides="1" tooltips="1" connect="1" arrows="1" fold="1" page="1" pageScale="1" pageWidth="850" pageHeight="1100" math="0" shadow="0">
      <root>
        <mxCell id="-T5OrTRSwgCYzWXyjC8E-0" />
        <mxCell id="-T5OrTRSwgCYzWXyjC8E-1" parent="-T5OrTRSwgCYzWXyjC8E-0" />
        <mxCell id="-T5OrTRSwgCYzWXyjC8E-9" value="" style="endArrow=none;dashed=1;html=1;strokeWidth=3;dashPattern=1 2;strokeColor=#000000;" parent="-T5OrTRSwgCYzWXyjC8E-1" edge="1">
          <mxGeometry width="50" height="50" relative="1" as="geometry">
            <mxPoint x="75" y="255" as="sourcePoint" />
            <mxPoint x="75" y="1355" as="targetPoint" />
          </mxGeometry>
        </mxCell>
        <mxCell id="-T5OrTRSwgCYzWXyjC8E-10" value="" style="endArrow=none;dashed=1;html=1;strokeWidth=3;dashPattern=1 2;strokeColor=#000000;" parent="-T5OrTRSwgCYzWXyjC8E-1" edge="1">
          <mxGeometry width="50" height="50" relative="1" as="geometry">
            <mxPoint x="324.99999999999955" y="255" as="sourcePoint" />
            <mxPoint x="325" y="1520" as="targetPoint" />
          </mxGeometry>
        </mxCell>
        <mxCell id="-T5OrTRSwgCYzWXyjC8E-11" value="" style="endArrow=none;dashed=1;html=1;dashPattern=1 2;strokeWidth=3;strokeColor=#000000;" parent="-T5OrTRSwgCYzWXyjC8E-1" edge="1">
          <mxGeometry width="50" height="50" relative="1" as="geometry">
            <mxPoint x="574.9999999999995" y="255" as="sourcePoint" />
            <mxPoint x="575" y="1520" as="targetPoint" />
          </mxGeometry>
        </mxCell>
        <mxCell id="-T5OrTRSwgCYzWXyjC8E-12" value="" style="endArrow=none;dashed=1;html=1;dashPattern=1 2;strokeWidth=3;strokeColor=#000000;startArrow=none;" parent="-T5OrTRSwgCYzWXyjC8E-1" source="-T5OrTRSwgCYzWXyjC8E-33" edge="1">
          <mxGeometry width="50" height="50" relative="1" as="geometry">
            <mxPoint x="824.9999999999995" y="255" as="sourcePoint" />
            <mxPoint x="824.9999999999995" y="1355" as="targetPoint" />
          </mxGeometry>
        </mxCell>
        <mxCell id="-T5OrTRSwgCYzWXyjC8E-13" value="" style="endArrow=none;dashed=1;html=1;strokeWidth=3;dashPattern=1 2;strokeColor=#000000;startArrow=none;" parent="-T5OrTRSwgCYzWXyjC8E-1" source="lmEghAM37NFx8jysLvvu-7" edge="1">
          <mxGeometry width="50" height="50" relative="1" as="geometry">
            <mxPoint x="1075" y="255" as="sourcePoint" />
            <mxPoint x="1075" y="1520" as="targetPoint" />
          </mxGeometry>
        </mxCell>
        <mxCell id="-T5OrTRSwgCYzWXyjC8E-56" value="" style="edgeStyle=orthogonalEdgeStyle;rounded=0;orthogonalLoop=1;jettySize=auto;html=1;dashed=1;fontSize=11;strokeColor=#000000;" parent="-T5OrTRSwgCYzWXyjC8E-1" source="-T5OrTRSwgCYzWXyjC8E-14" target="-T5OrTRSwgCYzWXyjC8E-27" edge="1">
          <mxGeometry relative="1" as="geometry" />
        </mxCell>
        <mxCell id="-T5OrTRSwgCYzWXyjC8E-14" value="运营" style="shape=umlActor;verticalLabelPosition=bottom;labelBackgroundColor=#ffffff;verticalAlign=top;html=1;fontSize=20;strokeWidth=3;fillColor=#0F0F0F;" parent="-T5OrTRSwgCYzWXyjC8E-1" vertex="1">
          <mxGeometry x="45" y="125" width="60" height="100" as="geometry" />
        </mxCell>
        <mxCell id="-T5OrTRSwgCYzWXyjC8E-15" style="edgeStyle=none;rounded=0;orthogonalLoop=1;jettySize=auto;html=1;entryX=-0.087;entryY=0.137;entryDx=0;entryDy=0;entryPerimeter=0;endArrow=block;endFill=1;strokeWidth=2;fontSize=20;exitX=1.02;exitY=0.58;exitDx=0;exitDy=0;exitPerimeter=0;" parent="-T5OrTRSwgCYzWXyjC8E-1" source="-T5OrTRSwgCYzWXyjC8E-17" target="-T5OrTRSwgCYzWXyjC8E-30" edge="1">
          <mxGeometry relative="1" as="geometry">
            <mxPoint x="350" y="389" as="sourcePoint" />
          </mxGeometry>
        </mxCell>
        <mxCell id="-T5OrTRSwgCYzWXyjC8E-16" value="2.同步策略组信息" style="text;html=1;resizable=0;points=[];align=center;verticalAlign=middle;labelBackgroundColor=#ffffff;fontSize=20;" parent="-T5OrTRSwgCYzWXyjC8E-15" vertex="1" connectable="0">
          <mxGeometry x="-0.4294" y="1" relative="1" as="geometry">
            <mxPoint x="37" y="-17" as="offset" />
          </mxGeometry>
        </mxCell>
        <mxCell id="-T5OrTRSwgCYzWXyjC8E-17" value="" style="rounded=0;whiteSpace=wrap;html=1;strokeColor=#990000;strokeWidth=2;" parent="-T5OrTRSwgCYzWXyjC8E-1" vertex="1">
          <mxGeometry x="300" y="285" width="50" height="200" as="geometry" />
        </mxCell>
        <mxCell id="-T5OrTRSwgCYzWXyjC8E-24" value="" style="rounded=0;whiteSpace=wrap;html=1;strokeColor=#990000;strokeWidth=2;" parent="-T5OrTRSwgCYzWXyjC8E-1" vertex="1">
          <mxGeometry x="300" y="535" width="50" height="830" as="geometry" />
        </mxCell>
        <mxCell id="-T5OrTRSwgCYzWXyjC8E-25" style="rounded=0;orthogonalLoop=1;jettySize=auto;html=1;fontSize=20;exitX=0.997;exitY=-0.004;exitDx=0;exitDy=0;exitPerimeter=0;entryX=-0.002;entryY=-0.003;entryDx=0;entryDy=0;entryPerimeter=0;endArrow=block;endFill=1;strokeWidth=2;" parent="-T5OrTRSwgCYzWXyjC8E-1" source="-T5OrTRSwgCYzWXyjC8E-27" target="-T5OrTRSwgCYzWXyjC8E-17" edge="1">
          <mxGeometry relative="1" as="geometry">
            <mxPoint x="285" y="295" as="targetPoint" />
          </mxGeometry>
        </mxCell>
        <mxCell id="-T5OrTRSwgCYzWXyjC8E-26" value="1.上线策略组" style="text;html=1;resizable=0;points=[];align=center;verticalAlign=middle;labelBackgroundColor=#ffffff;fontSize=20;" parent="-T5OrTRSwgCYzWXyjC8E-25" vertex="1" connectable="0">
          <mxGeometry x="-0.2012" y="-1" relative="1" as="geometry">
            <mxPoint x="17" as="offset" />
          </mxGeometry>
        </mxCell>
        <mxCell id="-T5OrTRSwgCYzWXyjC8E-27" value="" style="rounded=0;whiteSpace=wrap;html=1;strokeColor=#990000;strokeWidth=2;" parent="-T5OrTRSwgCYzWXyjC8E-1" vertex="1">
          <mxGeometry x="50" y="285" width="50" height="55" as="geometry" />
        </mxCell>
        <mxCell id="-T5OrTRSwgCYzWXyjC8E-59" style="edgeStyle=orthogonalEdgeStyle;rounded=0;orthogonalLoop=1;jettySize=auto;html=1;exitX=1;exitY=0.75;exitDx=0;exitDy=0;fontSize=11;strokeColor=#000000;strokeWidth=2;entryX=0.018;entryY=0.378;entryDx=0;entryDy=0;entryPerimeter=0;" parent="-T5OrTRSwgCYzWXyjC8E-1" source="-T5OrTRSwgCYzWXyjC8E-30" target="lmEghAM37NFx8jysLvvu-0" edge="1">
          <mxGeometry relative="1" as="geometry">
            <mxPoint x="1070" y="496.7272727272725" as="targetPoint" />
          </mxGeometry>
        </mxCell>
        <mxCell id="-T5OrTRSwgCYzWXyjC8E-60" style="edgeStyle=orthogonalEdgeStyle;rounded=0;orthogonalLoop=1;jettySize=auto;html=1;exitX=1;exitY=0.25;exitDx=0;exitDy=0;entryX=0;entryY=0.25;entryDx=0;entryDy=0;fontSize=11;strokeColor=#000000;strokeWidth=2;" parent="-T5OrTRSwgCYzWXyjC8E-1" source="-T5OrTRSwgCYzWXyjC8E-30" target="-T5OrTRSwgCYzWXyjC8E-57" edge="1">
          <mxGeometry relative="1" as="geometry" />
        </mxCell>
        <mxCell id="-T5OrTRSwgCYzWXyjC8E-30" value="" style="rounded=0;whiteSpace=wrap;html=1;strokeColor=#990000;strokeWidth=2;" parent="-T5OrTRSwgCYzWXyjC8E-1" vertex="1">
          <mxGeometry x="550" y="360" width="50" height="290" as="geometry" />
        </mxCell>
        <mxCell id="-T5OrTRSwgCYzWXyjC8E-39" value="" style="rounded=0;whiteSpace=wrap;html=1;strokeColor=#990000;strokeWidth=2;" parent="-T5OrTRSwgCYzWXyjC8E-1" vertex="1">
          <mxGeometry x="1050" y="1280" width="50" height="160" as="geometry" />
        </mxCell>
        <mxCell id="-T5OrTRSwgCYzWXyjC8E-40" value="Manager" style="rounded=0;whiteSpace=wrap;html=1;strokeColor=#000000;strokeWidth=2;fillColor=#FFF2CC;fontSize=20;fontStyle=1" parent="-T5OrTRSwgCYzWXyjC8E-1" vertex="1">
          <mxGeometry x="245" y="197.5" width="160" height="55" as="geometry" />
        </mxCell>
        <mxCell id="-T5OrTRSwgCYzWXyjC8E-41" value="Tower" style="rounded=0;whiteSpace=wrap;html=1;strokeColor=#000000;strokeWidth=2;fillColor=#FFF2CC;fontSize=20;fontStyle=1" parent="-T5OrTRSwgCYzWXyjC8E-1" vertex="1">
          <mxGeometry x="495" y="197.5" width="160" height="55" as="geometry" />
        </mxCell>
        <mxCell id="-T5OrTRSwgCYzWXyjC8E-42" value="Scheduler" style="rounded=0;whiteSpace=wrap;html=1;strokeColor=#000000;strokeWidth=2;fillColor=#FFF2CC;fontSize=20;fontStyle=1" parent="-T5OrTRSwgCYzWXyjC8E-1" vertex="1">
          <mxGeometry x="745" y="197.5" width="160" height="55" as="geometry" />
        </mxCell>
        <mxCell id="-T5OrTRSwgCYzWXyjC8E-43" value="Engine" style="rounded=0;whiteSpace=wrap;html=1;strokeColor=#000000;strokeWidth=2;fillColor=#FFF2CC;fontSize=20;fontStyle=1" parent="-T5OrTRSwgCYzWXyjC8E-1" vertex="1">
          <mxGeometry x="995" y="197.5" width="160" height="55" as="geometry" />
        </mxCell>
        <mxCell id="-T5OrTRSwgCYzWXyjC8E-57" value="" style="rounded=0;whiteSpace=wrap;html=1;strokeColor=#990000;strokeWidth=2;" parent="-T5OrTRSwgCYzWXyjC8E-1" vertex="1">
          <mxGeometry x="800" y="392" width="50" height="160" as="geometry" />
        </mxCell>
        <mxCell id="-T5OrTRSwgCYzWXyjC8E-58" value="" style="endArrow=none;dashed=1;html=1;dashPattern=1 2;strokeWidth=3;strokeColor=#000000;" parent="-T5OrTRSwgCYzWXyjC8E-1" target="-T5OrTRSwgCYzWXyjC8E-57" edge="1">
          <mxGeometry width="50" height="50" relative="1" as="geometry">
            <mxPoint x="824.9999999999995" y="255" as="sourcePoint" />
            <mxPoint x="824.9999999999995" y="1355" as="targetPoint" />
          </mxGeometry>
        </mxCell>
        <mxCell id="-T5OrTRSwgCYzWXyjC8E-62" value="3.上线策略组" style="text;html=1;resizable=0;points=[];align=center;verticalAlign=middle;labelBackgroundColor=#ffffff;fontSize=20;" parent="-T5OrTRSwgCYzWXyjC8E-1" vertex="1" connectable="0">
          <mxGeometry x="710.0014899798181" y="410.00481557729876" as="geometry" />
        </mxCell>
        <mxCell id="-T5OrTRSwgCYzWXyjC8E-63" value="4.上线策略/活动" style="text;html=1;resizable=0;points=[];align=center;verticalAlign=middle;labelBackgroundColor=#ffffff;fontSize=20;" parent="-T5OrTRSwgCYzWXyjC8E-1" vertex="1" connectable="0">
          <mxGeometry x="943.0014899798181" y="550.0048155772988" as="geometry">
            <mxPoint y="5" as="offset" />
          </mxGeometry>
        </mxCell>
        <mxCell id="lmEghAM37NFx8jysLvvu-0" value="" style="rounded=0;whiteSpace=wrap;html=1;strokeColor=#990000;strokeWidth=2;" parent="-T5OrTRSwgCYzWXyjC8E-1" vertex="1">
          <mxGeometry x="1050" y="520" width="50" height="150" as="geometry" />
        </mxCell>
        <mxCell id="lmEghAM37NFx8jysLvvu-1" value="" style="endArrow=none;dashed=1;html=1;strokeWidth=3;dashPattern=1 2;strokeColor=#000000;" parent="-T5OrTRSwgCYzWXyjC8E-1" target="lmEghAM37NFx8jysLvvu-0" edge="1">
          <mxGeometry width="50" height="50" relative="1" as="geometry">
            <mxPoint x="1075" y="255" as="sourcePoint" />
            <mxPoint x="1075" y="1355" as="targetPoint" />
          </mxGeometry>
        </mxCell>
        <mxCell id="lmEghAM37NFx8jysLvvu-9" style="edgeStyle=orthogonalEdgeStyle;rounded=0;orthogonalLoop=1;jettySize=auto;html=1;fontSize=11;strokeColor=#000000;strokeWidth=2;entryX=0.982;entryY=0.119;entryDx=0;entryDy=0;entryPerimeter=0;" parent="-T5OrTRSwgCYzWXyjC8E-1" target="-T5OrTRSwgCYzWXyjC8E-33" edge="1">
          <mxGeometry relative="1" as="geometry">
            <mxPoint x="1050" y="756" as="sourcePoint" />
          </mxGeometry>
        </mxCell>
        <mxCell id="lmEghAM37NFx8jysLvvu-7" value="" style="rounded=0;whiteSpace=wrap;html=1;strokeColor=#990000;strokeWidth=2;" parent="-T5OrTRSwgCYzWXyjC8E-1" vertex="1">
          <mxGeometry x="1050" y="714" width="50" height="150" as="geometry" />
        </mxCell>
        <mxCell id="lmEghAM37NFx8jysLvvu-8" value="" style="endArrow=none;dashed=1;html=1;strokeWidth=3;dashPattern=1 2;strokeColor=#000000;startArrow=none;" parent="-T5OrTRSwgCYzWXyjC8E-1" source="lmEghAM37NFx8jysLvvu-0" target="lmEghAM37NFx8jysLvvu-7" edge="1">
          <mxGeometry width="50" height="50" relative="1" as="geometry">
            <mxPoint x="1075" y="670" as="sourcePoint" />
            <mxPoint x="1075" y="1355" as="targetPoint" />
          </mxGeometry>
        </mxCell>
        <mxCell id="-T5OrTRSwgCYzWXyjC8E-33" value="" style="rounded=0;whiteSpace=wrap;html=1;strokeColor=#990000;strokeWidth=2;" parent="-T5OrTRSwgCYzWXyjC8E-1" vertex="1">
          <mxGeometry x="800" y="673" width="50" height="697" as="geometry" />
        </mxCell>
        <mxCell id="lmEghAM37NFx8jysLvvu-10" value="" style="endArrow=none;dashed=1;html=1;dashPattern=1 2;strokeWidth=3;strokeColor=#000000;startArrow=none;" parent="-T5OrTRSwgCYzWXyjC8E-1" source="-T5OrTRSwgCYzWXyjC8E-57" target="-T5OrTRSwgCYzWXyjC8E-33" edge="1">
          <mxGeometry width="50" height="50" relative="1" as="geometry">
            <mxPoint x="825" y="552" as="sourcePoint" />
            <mxPoint x="824.9999999999995" y="1355" as="targetPoint" />
          </mxGeometry>
        </mxCell>
        <mxCell id="lmEghAM37NFx8jysLvvu-13" value="6.用户命中策略mq" style="text;html=1;resizable=0;points=[];align=center;verticalAlign=middle;labelBackgroundColor=#ffffff;fontSize=20;" parent="-T5OrTRSwgCYzWXyjC8E-1" vertex="1" connectable="0">
          <mxGeometry x="960.0024756342972" y="739.9982043707795" as="geometry">
            <mxPoint x="-9" y="-4" as="offset" />
          </mxGeometry>
        </mxCell>
        <mxCell id="lmEghAM37NFx8jysLvvu-15" value="&amp;nbsp; 7.匹配策略组信息" style="text;html=1;resizable=0;points=[];align=center;verticalAlign=middle;labelBackgroundColor=#ffffff;fontSize=20;" parent="-T5OrTRSwgCYzWXyjC8E-1" vertex="1" connectable="0">
          <mxGeometry x="943.0024756342972" y="819.9982043707795" as="geometry" />
        </mxCell>
        <mxCell id="lmEghAM37NFx8jysLvvu-16" value="" style="rounded=0;whiteSpace=wrap;html=1;strokeColor=#990000;strokeWidth=2;" parent="-T5OrTRSwgCYzWXyjC8E-1" vertex="1">
          <mxGeometry x="550" y="1160" width="50" height="280" as="geometry" />
        </mxCell>
        <mxCell id="lmEghAM37NFx8jysLvvu-17" value="11.新增定时任务" style="text;html=1;resizable=0;points=[];align=center;verticalAlign=middle;labelBackgroundColor=#ffffff;fontSize=20;" parent="-T5OrTRSwgCYzWXyjC8E-1" vertex="1" connectable="0">
          <mxGeometry x="700.0024756342972" y="1319.9982043707796" as="geometry">
            <mxPoint x="2" y="4" as="offset" />
          </mxGeometry>
        </mxCell>
        <mxCell id="lmEghAM37NFx8jysLvvu-18" value="8.更新用户上层人群状态" style="text;html=1;resizable=0;points=[];align=center;verticalAlign=middle;labelBackgroundColor=#ffffff;fontSize=20;" parent="-T5OrTRSwgCYzWXyjC8E-1" vertex="1" connectable="0">
          <mxGeometry x="960.0024756342972" y="931.9982043707796" as="geometry">
            <mxPoint x="2" y="2" as="offset" />
          </mxGeometry>
        </mxCell>
        <mxCell id="lmEghAM37NFx8jysLvvu-19" value="9.放入延迟队列" style="text;html=1;resizable=0;points=[];align=center;verticalAlign=middle;labelBackgroundColor=#ffffff;fontSize=20;" parent="-T5OrTRSwgCYzWXyjC8E-1" vertex="1" connectable="0">
          <mxGeometry x="960.0024756342972" y="1069.9982043707796" as="geometry">
            <mxPoint x="2" y="2" as="offset" />
          </mxGeometry>
        </mxCell>
        <mxCell id="lmEghAM37NFx8jysLvvu-20" value="10.到达时间&lt;br&gt;（目标是否完成）&lt;br&gt;更新用户人群状态" style="text;html=1;resizable=0;points=[];align=center;verticalAlign=middle;labelBackgroundColor=#ffffff;fontSize=20;" parent="-T5OrTRSwgCYzWXyjC8E-1" vertex="1" connectable="0">
          <mxGeometry x="950.0024756342972" y="1210.9982043707796" as="geometry">
            <mxPoint x="-4" y="-25" as="offset" />
          </mxGeometry>
        </mxCell>
        <mxCell id="uwHxlu8d41mvb_eszfKB-1" style="edgeStyle=orthogonalEdgeStyle;rounded=0;orthogonalLoop=1;jettySize=auto;html=1;exitX=1;exitY=0.25;exitDx=0;exitDy=0;entryX=1.018;entryY=0.332;entryDx=0;entryDy=0;entryPerimeter=0;fontSize=11;strokeColor=#000000;strokeWidth=2;" parent="-T5OrTRSwgCYzWXyjC8E-1" edge="1">
          <mxGeometry relative="1" as="geometry">
            <mxPoint x="850" y="960" as="sourcePoint" />
            <mxPoint x="850.8999999999996" y="1013.874" as="targetPoint" />
            <Array as="points">
              <mxPoint x="940" y="959.75" />
              <mxPoint x="940" y="1013.75" />
            </Array>
          </mxGeometry>
        </mxCell>
        <mxCell id="uwHxlu8d41mvb_eszfKB-3" style="edgeStyle=orthogonalEdgeStyle;rounded=0;orthogonalLoop=1;jettySize=auto;html=1;exitX=1;exitY=0.25;exitDx=0;exitDy=0;entryX=1.018;entryY=0.332;entryDx=0;entryDy=0;entryPerimeter=0;fontSize=11;strokeColor=#000000;strokeWidth=2;" parent="-T5OrTRSwgCYzWXyjC8E-1" edge="1">
          <mxGeometry relative="1" as="geometry">
            <mxPoint x="850" y="1090" as="sourcePoint" />
            <mxPoint x="850.8999999999996" y="1143.8739999999998" as="targetPoint" />
            <Array as="points">
              <mxPoint x="940" y="1089.75" />
              <mxPoint x="940" y="1143.75" />
            </Array>
          </mxGeometry>
        </mxCell>
        <mxCell id="uwHxlu8d41mvb_eszfKB-6" style="edgeStyle=orthogonalEdgeStyle;rounded=0;orthogonalLoop=1;jettySize=auto;html=1;exitX=1;exitY=0.25;exitDx=0;exitDy=0;entryX=1.018;entryY=0.332;entryDx=0;entryDy=0;entryPerimeter=0;fontSize=11;strokeColor=#000000;strokeWidth=2;" parent="-T5OrTRSwgCYzWXyjC8E-1" edge="1">
          <mxGeometry relative="1" as="geometry">
            <mxPoint x="853" y="1238.12" as="sourcePoint" />
            <mxPoint x="853.8999999999996" y="1291.9939999999997" as="targetPoint" />
            <Array as="points">
              <mxPoint x="943" y="1237.87" />
              <mxPoint x="943" y="1291.87" />
            </Array>
          </mxGeometry>
        </mxCell>
        <mxCell id="uwHxlu8d41mvb_eszfKB-8" value="" style="endArrow=classic;html=1;rounded=0;fontSize=11;strokeColor=#000000;strokeWidth=2;entryX=1.036;entryY=0.667;entryDx=0;entryDy=0;entryPerimeter=0;" parent="-T5OrTRSwgCYzWXyjC8E-1" target="lmEghAM37NFx8jysLvvu-16" edge="1">
          <mxGeometry width="50" height="50" relative="1" as="geometry">
            <mxPoint x="800" y="1347" as="sourcePoint" />
            <mxPoint x="850" y="900" as="targetPoint" />
          </mxGeometry>
        </mxCell>
        <mxCell id="uwHxlu8d41mvb_eszfKB-9" style="edgeStyle=orthogonalEdgeStyle;rounded=0;orthogonalLoop=1;jettySize=auto;html=1;exitX=1;exitY=0.75;exitDx=0;exitDy=0;fontSize=11;strokeColor=#000000;strokeWidth=2;" parent="-T5OrTRSwgCYzWXyjC8E-1" edge="1">
          <mxGeometry relative="1" as="geometry">
            <mxPoint x="600" y="1430" as="sourcePoint" />
            <mxPoint x="1050" y="1430" as="targetPoint" />
          </mxGeometry>
        </mxCell>
        <mxCell id="uwHxlu8d41mvb_eszfKB-10" style="edgeStyle=orthogonalEdgeStyle;rounded=0;orthogonalLoop=1;jettySize=auto;html=1;exitX=1;exitY=0.25;exitDx=0;exitDy=0;entryX=1.018;entryY=0.332;entryDx=0;entryDy=0;entryPerimeter=0;fontSize=11;strokeColor=#000000;strokeWidth=2;" parent="-T5OrTRSwgCYzWXyjC8E-1" edge="1">
          <mxGeometry relative="1" as="geometry">
            <mxPoint x="850" y="840" as="sourcePoint" />
            <mxPoint x="850.8999999999996" y="893.8739999999998" as="targetPoint" />
            <Array as="points">
              <mxPoint x="940" y="839.75" />
              <mxPoint x="940" y="893.75" />
            </Array>
          </mxGeometry>
        </mxCell>
        <mxCell id="uwHxlu8d41mvb_eszfKB-11" value="12.定时任务执行" style="text;html=1;resizable=0;points=[];align=center;verticalAlign=middle;labelBackgroundColor=#ffffff;fontSize=20;" parent="-T5OrTRSwgCYzWXyjC8E-1" vertex="1" connectable="0">
          <mxGeometry x="810.0024756342972" y="1409.9982043707796" as="geometry">
            <mxPoint x="2" y="4" as="offset" />
          </mxGeometry>
        </mxCell>
        <mxCell id="lFXpyLrEdtRnJ4KnYRDi-5" style="edgeStyle=orthogonalEdgeStyle;rounded=0;orthogonalLoop=1;jettySize=auto;html=1;exitX=1;exitY=0.25;exitDx=0;exitDy=0;entryX=1.018;entryY=0.332;entryDx=0;entryDy=0;entryPerimeter=0;fontSize=11;strokeColor=#000000;strokeWidth=2;" parent="-T5OrTRSwgCYzWXyjC8E-1" edge="1">
          <mxGeometry relative="1" as="geometry">
            <mxPoint x="1100" y="600" as="sourcePoint" />
            <mxPoint x="1100.8999999999996" y="653.8739999999998" as="targetPoint" />
            <Array as="points">
              <mxPoint x="1190" y="599.75" />
              <mxPoint x="1190" y="653.75" />
            </Array>
          </mxGeometry>
        </mxCell>
        <mxCell id="lFXpyLrEdtRnJ4KnYRDi-6" value="5.召回策略执行" style="text;html=1;resizable=0;points=[];align=center;verticalAlign=middle;labelBackgroundColor=#ffffff;fontSize=20;" parent="-T5OrTRSwgCYzWXyjC8E-1" vertex="1" connectable="0">
          <mxGeometry x="1219.998889924322" y="580.0021350660146" as="geometry" />
        </mxCell>
      </root>
    </mxGraphModel>
  </diagram>
  <diagram name="Page-5" id="7aw6Igpn2jHoRzugN4nf">
    <mxGraphModel dx="1796" dy="557" grid="1" gridSize="10" guides="1" tooltips="1" connect="1" arrows="1" fold="1" page="1" pageScale="1" pageWidth="850" pageHeight="1100" math="0" shadow="0">
      <root>
        <mxCell id="-wio4jYrz6Z_WqMP-ToP-0" />
        <mxCell id="-wio4jYrz6Z_WqMP-ToP-1" parent="-wio4jYrz6Z_WqMP-ToP-0" />
        <mxCell id="EA0Et3k9bPW94U-_KOiB-99" value="" style="rounded=1;whiteSpace=wrap;html=1;fillColor=#f5f5f5;strokeColor=#666666;gradientColor=#b3b3b3;dashed=1;" parent="-wio4jYrz6Z_WqMP-ToP-1" vertex="1">
          <mxGeometry x="-200" y="63" width="260" height="237" as="geometry" />
        </mxCell>
        <mxCell id="EA0Et3k9bPW94U-_KOiB-95" value="" style="rounded=1;whiteSpace=wrap;html=1;fillColor=#f5f5f5;strokeColor=#666666;gradientColor=#b3b3b3;dashed=1;" parent="-wio4jYrz6Z_WqMP-ToP-1" vertex="1">
          <mxGeometry x="120" y="20" width="840" height="920" as="geometry" />
        </mxCell>
        <mxCell id="EA0Et3k9bPW94U-_KOiB-72" value="" style="rounded=0;whiteSpace=wrap;html=1;dashed=1;fillColor=#d5e8d4;strokeColor=#82b366;" parent="-wio4jYrz6Z_WqMP-ToP-1" vertex="1">
          <mxGeometry x="214.5" y="320" width="240" height="100" as="geometry" />
        </mxCell>
        <mxCell id="EA0Et3k9bPW94U-_KOiB-71" value="" style="rounded=0;whiteSpace=wrap;html=1;dashed=1;fillColor=#d5e8d4;strokeColor=#82b366;" parent="-wio4jYrz6Z_WqMP-ToP-1" vertex="1">
          <mxGeometry x="590" y="140" width="240" height="100" as="geometry" />
        </mxCell>
        <mxCell id="EA0Et3k9bPW94U-_KOiB-2" value="" style="rounded=0;whiteSpace=wrap;html=1;dashed=1;fillColor=#d5e8d4;strokeColor=#82b366;" parent="-wio4jYrz6Z_WqMP-ToP-1" vertex="1">
          <mxGeometry x="365.5" y="820" width="240" height="100" as="geometry" />
        </mxCell>
        <mxCell id="EA0Et3k9bPW94U-_KOiB-6" style="edgeStyle=orthogonalEdgeStyle;rounded=0;orthogonalLoop=1;jettySize=auto;html=1;exitX=0.5;exitY=1;exitDx=0;exitDy=0;entryX=0.5;entryY=0;entryDx=0;entryDy=0;" parent="-wio4jYrz6Z_WqMP-ToP-1" source="EA0Et3k9bPW94U-_KOiB-7" target="EA0Et3k9bPW94U-_KOiB-22" edge="1">
          <mxGeometry relative="1" as="geometry" />
        </mxCell>
        <mxCell id="EA0Et3k9bPW94U-_KOiB-7" value="延迟队列" style="rounded=0;whiteSpace=wrap;html=1;fillColor=#fff2cc;strokeColor=#d6b656;" parent="-wio4jYrz6Z_WqMP-ToP-1" vertex="1">
          <mxGeometry x="440" y="183" width="90" height="40" as="geometry" />
        </mxCell>
        <mxCell id="EA0Et3k9bPW94U-_KOiB-8" value="更新策略实时人群" style="rounded=0;whiteSpace=wrap;html=1;fillColor=#fff2cc;strokeColor=#d6b656;" parent="-wio4jYrz6Z_WqMP-ToP-1" vertex="1">
          <mxGeometry x="350" y="363" width="90" height="40" as="geometry" />
        </mxCell>
        <mxCell id="EA0Et3k9bPW94U-_KOiB-64" style="edgeStyle=orthogonalEdgeStyle;rounded=0;orthogonalLoop=1;jettySize=auto;html=1;exitX=0.5;exitY=1;exitDx=0;exitDy=0;" parent="-wio4jYrz6Z_WqMP-ToP-1" source="EA0Et3k9bPW94U-_KOiB-11" target="EA0Et3k9bPW94U-_KOiB-61" edge="1">
          <mxGeometry relative="1" as="geometry" />
        </mxCell>
        <mxCell id="EA0Et3k9bPW94U-_KOiB-11" value="更新用户与策略DAG关系" style="rounded=0;whiteSpace=wrap;html=1;fillColor=#fff2cc;strokeColor=#d6b656;" parent="-wio4jYrz6Z_WqMP-ToP-1" vertex="1">
          <mxGeometry x="230" y="363" width="90" height="40" as="geometry" />
        </mxCell>
        <mxCell id="EA0Et3k9bPW94U-_KOiB-16" style="edgeStyle=orthogonalEdgeStyle;rounded=0;orthogonalLoop=1;jettySize=auto;html=1;exitX=1;exitY=0.5;exitDx=0;exitDy=0;" parent="-wio4jYrz6Z_WqMP-ToP-1" source="EA0Et3k9bPW94U-_KOiB-22" target="EA0Et3k9bPW94U-_KOiB-27" edge="1">
          <mxGeometry relative="1" as="geometry" />
        </mxCell>
        <mxCell id="EA0Et3k9bPW94U-_KOiB-17" value="是" style="edgeLabel;html=1;align=center;verticalAlign=middle;resizable=0;points=[];" parent="EA0Et3k9bPW94U-_KOiB-16" vertex="1" connectable="0">
          <mxGeometry x="-0.2917" y="1" relative="1" as="geometry">
            <mxPoint y="1" as="offset" />
          </mxGeometry>
        </mxCell>
        <mxCell id="EA0Et3k9bPW94U-_KOiB-18" style="edgeStyle=orthogonalEdgeStyle;rounded=0;orthogonalLoop=1;jettySize=auto;html=1;exitX=0;exitY=0.5;exitDx=0;exitDy=0;entryX=0.5;entryY=0;entryDx=0;entryDy=0;" parent="-wio4jYrz6Z_WqMP-ToP-1" source="EA0Et3k9bPW94U-_KOiB-22" target="EA0Et3k9bPW94U-_KOiB-8" edge="1">
          <mxGeometry relative="1" as="geometry" />
        </mxCell>
        <mxCell id="EA0Et3k9bPW94U-_KOiB-19" value="uid" style="edgeLabel;html=1;align=center;verticalAlign=middle;resizable=0;points=[];" parent="EA0Et3k9bPW94U-_KOiB-18" vertex="1" connectable="0">
          <mxGeometry x="0.4476" y="1" relative="1" as="geometry">
            <mxPoint as="offset" />
          </mxGeometry>
        </mxCell>
        <mxCell id="EA0Et3k9bPW94U-_KOiB-55" style="edgeStyle=orthogonalEdgeStyle;rounded=0;orthogonalLoop=1;jettySize=auto;html=1;exitX=0;exitY=0.5;exitDx=0;exitDy=0;" parent="-wio4jYrz6Z_WqMP-ToP-1" source="EA0Et3k9bPW94U-_KOiB-22" target="EA0Et3k9bPW94U-_KOiB-11" edge="1">
          <mxGeometry relative="1" as="geometry" />
        </mxCell>
        <mxCell id="EA0Et3k9bPW94U-_KOiB-59" value="否" style="edgeLabel;html=1;align=center;verticalAlign=middle;resizable=0;points=[];" parent="EA0Et3k9bPW94U-_KOiB-55" vertex="1" connectable="0">
          <mxGeometry x="-0.7613" y="-1" relative="1" as="geometry">
            <mxPoint as="offset" />
          </mxGeometry>
        </mxCell>
        <mxCell id="EA0Et3k9bPW94U-_KOiB-22" value="完成目标" style="rhombus;whiteSpace=wrap;html=1;fillColor=#f8cecc;strokeColor=#b85450;" parent="-wio4jYrz6Z_WqMP-ToP-1" vertex="1">
          <mxGeometry x="458" y="263" width="55" height="80" as="geometry" />
        </mxCell>
        <mxCell id="EA0Et3k9bPW94U-_KOiB-26" value="等待器" style="text;html=1;strokeColor=none;fillColor=none;align=center;verticalAlign=middle;whiteSpace=wrap;rounded=0;" parent="-wio4jYrz6Z_WqMP-ToP-1" vertex="1">
          <mxGeometry x="484" y="138" width="60" height="30" as="geometry" />
        </mxCell>
        <mxCell id="EA0Et3k9bPW94U-_KOiB-27" value="结束" style="rounded=0;whiteSpace=wrap;html=1;fillColor=#fff2cc;strokeColor=#d6b656;" parent="-wio4jYrz6Z_WqMP-ToP-1" vertex="1">
          <mxGeometry x="600" y="363" width="90" height="40" as="geometry" />
        </mxCell>
        <mxCell id="EA0Et3k9bPW94U-_KOiB-66" style="edgeStyle=orthogonalEdgeStyle;rounded=0;orthogonalLoop=1;jettySize=auto;html=1;exitX=1;exitY=0.5;exitDx=0;exitDy=0;" parent="-wio4jYrz6Z_WqMP-ToP-1" source="EA0Et3k9bPW94U-_KOiB-31" target="EA0Et3k9bPW94U-_KOiB-40" edge="1">
          <mxGeometry relative="1" as="geometry" />
        </mxCell>
        <mxCell id="EA0Et3k9bPW94U-_KOiB-70" value="否" style="edgeLabel;html=1;align=center;verticalAlign=middle;resizable=0;points=[];" parent="EA0Et3k9bPW94U-_KOiB-66" vertex="1" connectable="0">
          <mxGeometry x="-0.4429" y="-3" relative="1" as="geometry">
            <mxPoint x="1" y="1" as="offset" />
          </mxGeometry>
        </mxCell>
        <mxCell id="EA0Et3k9bPW94U-_KOiB-92" style="edgeStyle=orthogonalEdgeStyle;rounded=0;orthogonalLoop=1;jettySize=auto;html=1;exitX=0.5;exitY=1;exitDx=0;exitDy=0;" parent="-wio4jYrz6Z_WqMP-ToP-1" source="EA0Et3k9bPW94U-_KOiB-31" target="EA0Et3k9bPW94U-_KOiB-2" edge="1">
          <mxGeometry relative="1" as="geometry" />
        </mxCell>
        <mxCell id="EA0Et3k9bPW94U-_KOiB-98" value="是" style="edgeLabel;html=1;align=center;verticalAlign=middle;resizable=0;points=[];" parent="EA0Et3k9bPW94U-_KOiB-92" vertex="1" connectable="0">
          <mxGeometry x="-0.697" relative="1" as="geometry">
            <mxPoint as="offset" />
          </mxGeometry>
        </mxCell>
        <mxCell id="EA0Et3k9bPW94U-_KOiB-31" value="用户是否触发 触发时机" style="rhombus;whiteSpace=wrap;html=1;fillColor=#f8cecc;strokeColor=#b85450;" parent="-wio4jYrz6Z_WqMP-ToP-1" vertex="1">
          <mxGeometry x="444.5" y="595" width="82" height="93" as="geometry" />
        </mxCell>
        <mxCell id="EA0Et3k9bPW94U-_KOiB-32" value="更新策略实时人群" style="rounded=0;whiteSpace=wrap;html=1;fillColor=#fff2cc;strokeColor=#d6b656;" parent="-wio4jYrz6Z_WqMP-ToP-1" vertex="1">
          <mxGeometry x="497.5" y="860" width="90" height="40" as="geometry" />
        </mxCell>
        <mxCell id="EA0Et3k9bPW94U-_KOiB-33" value="更新用户与策略DAG关系" style="rounded=0;whiteSpace=wrap;html=1;fillColor=#fff2cc;strokeColor=#d6b656;" parent="-wio4jYrz6Z_WqMP-ToP-1" vertex="1">
          <mxGeometry x="377.5" y="860" width="90" height="40" as="geometry" />
        </mxCell>
        <mxCell id="EA0Et3k9bPW94U-_KOiB-40" value="更新定时人群" style="rounded=0;whiteSpace=wrap;html=1;fillColor=#fff2cc;strokeColor=#d6b656;" parent="-wio4jYrz6Z_WqMP-ToP-1" vertex="1">
          <mxGeometry x="600" y="733" width="90" height="40" as="geometry" />
        </mxCell>
        <mxCell id="EA0Et3k9bPW94U-_KOiB-56" style="edgeStyle=orthogonalEdgeStyle;rounded=0;orthogonalLoop=1;jettySize=auto;html=1;exitX=0.16;exitY=0.55;exitDx=0;exitDy=0;exitPerimeter=0;entryX=1;entryY=0.5;entryDx=0;entryDy=0;" parent="-wio4jYrz6Z_WqMP-ToP-1" source="EA0Et3k9bPW94U-_KOiB-46" target="EA0Et3k9bPW94U-_KOiB-40" edge="1">
          <mxGeometry relative="1" as="geometry" />
        </mxCell>
        <mxCell id="EA0Et3k9bPW94U-_KOiB-57" value="定时任务" style="edgeLabel;html=1;align=center;verticalAlign=middle;resizable=0;points=[];" parent="EA0Et3k9bPW94U-_KOiB-56" vertex="1" connectable="0">
          <mxGeometry x="-0.0345" y="2" relative="1" as="geometry">
            <mxPoint as="offset" />
          </mxGeometry>
        </mxCell>
        <mxCell id="EA0Et3k9bPW94U-_KOiB-46" value="worker" style="ellipse;shape=cloud;whiteSpace=wrap;html=1;fillColor=#dae8fc;strokeColor=#6c8ebf;" parent="-wio4jYrz6Z_WqMP-ToP-1" vertex="1">
          <mxGeometry x="840" y="709" width="120" height="80" as="geometry" />
        </mxCell>
        <mxCell id="EA0Et3k9bPW94U-_KOiB-50" style="edgeStyle=orthogonalEdgeStyle;rounded=0;orthogonalLoop=1;jettySize=auto;html=1;exitX=0.5;exitY=1;exitDx=0;exitDy=0;" parent="-wio4jYrz6Z_WqMP-ToP-1" source="EA0Et3k9bPW94U-_KOiB-48" target="EA0Et3k9bPW94U-_KOiB-7" edge="1">
          <mxGeometry relative="1" as="geometry" />
        </mxCell>
        <mxCell id="EA0Et3k9bPW94U-_KOiB-53" style="edgeStyle=orthogonalEdgeStyle;rounded=0;orthogonalLoop=1;jettySize=auto;html=1;exitX=1;exitY=0.5;exitDx=0;exitDy=0;entryX=0.5;entryY=0;entryDx=0;entryDy=0;" parent="-wio4jYrz6Z_WqMP-ToP-1" source="EA0Et3k9bPW94U-_KOiB-48" target="EA0Et3k9bPW94U-_KOiB-51" edge="1">
          <mxGeometry relative="1" as="geometry" />
        </mxCell>
        <mxCell id="EA0Et3k9bPW94U-_KOiB-54" style="edgeStyle=orthogonalEdgeStyle;rounded=0;orthogonalLoop=1;jettySize=auto;html=1;exitX=1;exitY=0.5;exitDx=0;exitDy=0;" parent="-wio4jYrz6Z_WqMP-ToP-1" source="EA0Et3k9bPW94U-_KOiB-48" target="EA0Et3k9bPW94U-_KOiB-52" edge="1">
          <mxGeometry relative="1" as="geometry" />
        </mxCell>
        <mxCell id="EA0Et3k9bPW94U-_KOiB-48" value="事件接收" style="rounded=0;whiteSpace=wrap;html=1;fillColor=#fff2cc;strokeColor=#d6b656;" parent="-wio4jYrz6Z_WqMP-ToP-1" vertex="1">
          <mxGeometry x="440" y="80" width="90" height="40" as="geometry" />
        </mxCell>
        <mxCell id="EA0Et3k9bPW94U-_KOiB-51" value="更新用户与策略DAG关系" style="rounded=0;whiteSpace=wrap;html=1;fillColor=#fff2cc;strokeColor=#d6b656;" parent="-wio4jYrz6Z_WqMP-ToP-1" vertex="1">
          <mxGeometry x="600" y="183" width="90" height="40" as="geometry" />
        </mxCell>
        <mxCell id="EA0Et3k9bPW94U-_KOiB-52" value="更新人群" style="rounded=0;whiteSpace=wrap;html=1;fillColor=#fff2cc;strokeColor=#d6b656;" parent="-wio4jYrz6Z_WqMP-ToP-1" vertex="1">
          <mxGeometry x="730" y="183" width="90" height="40" as="geometry" />
        </mxCell>
        <mxCell id="EA0Et3k9bPW94U-_KOiB-65" style="edgeStyle=orthogonalEdgeStyle;rounded=0;orthogonalLoop=1;jettySize=auto;html=1;exitX=0.5;exitY=1;exitDx=0;exitDy=0;entryX=0.5;entryY=0;entryDx=0;entryDy=0;" parent="-wio4jYrz6Z_WqMP-ToP-1" source="EA0Et3k9bPW94U-_KOiB-61" target="EA0Et3k9bPW94U-_KOiB-31" edge="1">
          <mxGeometry relative="1" as="geometry" />
        </mxCell>
        <mxCell id="EA0Et3k9bPW94U-_KOiB-61" value="延迟队列" style="rounded=0;whiteSpace=wrap;html=1;fillColor=#fff2cc;strokeColor=#d6b656;" parent="-wio4jYrz6Z_WqMP-ToP-1" vertex="1">
          <mxGeometry x="440.5" y="500" width="90" height="40" as="geometry" />
        </mxCell>
        <mxCell id="EA0Et3k9bPW94U-_KOiB-63" value="等待器" style="text;html=1;strokeColor=none;fillColor=none;align=center;verticalAlign=middle;whiteSpace=wrap;rounded=0;" parent="-wio4jYrz6Z_WqMP-ToP-1" vertex="1">
          <mxGeometry x="484" y="460" width="60" height="30" as="geometry" />
        </mxCell>
        <mxCell id="EA0Et3k9bPW94U-_KOiB-87" style="edgeStyle=orthogonalEdgeStyle;rounded=0;orthogonalLoop=1;jettySize=auto;html=1;exitX=0.875;exitY=0.5;exitDx=0;exitDy=0;exitPerimeter=0;entryX=0;entryY=0.5;entryDx=0;entryDy=0;" parent="-wio4jYrz6Z_WqMP-ToP-1" target="EA0Et3k9bPW94U-_KOiB-86" edge="1">
          <mxGeometry relative="1" as="geometry">
            <mxPoint x="-45" y="110" as="sourcePoint" />
          </mxGeometry>
        </mxCell>
        <mxCell id="EA0Et3k9bPW94U-_KOiB-90" style="edgeStyle=orthogonalEdgeStyle;rounded=0;orthogonalLoop=1;jettySize=auto;html=1;exitX=0.55;exitY=0.95;exitDx=0;exitDy=0;exitPerimeter=0;" parent="-wio4jYrz6Z_WqMP-ToP-1" target="EA0Et3k9bPW94U-_KOiB-88" edge="1">
          <mxGeometry relative="1" as="geometry">
            <mxPoint x="-84" y="146" as="sourcePoint" />
          </mxGeometry>
        </mxCell>
        <mxCell id="EA0Et3k9bPW94U-_KOiB-85" style="edgeStyle=orthogonalEdgeStyle;rounded=0;orthogonalLoop=1;jettySize=auto;html=1;exitX=1;exitY=0.75;exitDx=0;exitDy=0;entryX=0.16;entryY=0.55;entryDx=0;entryDy=0;entryPerimeter=0;" parent="-wio4jYrz6Z_WqMP-ToP-1" source="EA0Et3k9bPW94U-_KOiB-84" edge="1">
          <mxGeometry relative="1" as="geometry">
            <mxPoint x="-130.80000000000018" y="114" as="targetPoint" />
          </mxGeometry>
        </mxCell>
        <mxCell id="EA0Et3k9bPW94U-_KOiB-84" value="&lt;br&gt;&lt;br&gt;用户" style="shape=actor;whiteSpace=wrap;html=1;fillColor=#f5f5f5;fontColor=#333333;strokeColor=#666666;" parent="-wio4jYrz6Z_WqMP-ToP-1" vertex="1">
          <mxGeometry x="-280" y="69" width="40" height="60" as="geometry" />
        </mxCell>
        <mxCell id="EA0Et3k9bPW94U-_KOiB-86" value="策略DAG判断" style="rounded=0;whiteSpace=wrap;html=1;fillColor=#fff2cc;strokeColor=#d6b656;" parent="-wio4jYrz6Z_WqMP-ToP-1" vertex="1">
          <mxGeometry x="170" y="90" width="90" height="40" as="geometry" />
        </mxCell>
        <mxCell id="EA0Et3k9bPW94U-_KOiB-89" style="edgeStyle=orthogonalEdgeStyle;rounded=0;orthogonalLoop=1;jettySize=auto;html=1;exitX=1;exitY=0.5;exitDx=0;exitDy=0;entryX=0;entryY=0.5;entryDx=0;entryDy=0;" parent="-wio4jYrz6Z_WqMP-ToP-1" source="EA0Et3k9bPW94U-_KOiB-88" target="EA0Et3k9bPW94U-_KOiB-48" edge="1">
          <mxGeometry relative="1" as="geometry">
            <Array as="points">
              <mxPoint x="370" y="243" />
              <mxPoint x="370" y="100" />
            </Array>
          </mxGeometry>
        </mxCell>
        <mxCell id="EA0Et3k9bPW94U-_KOiB-91" value="MQ" style="edgeLabel;html=1;align=center;verticalAlign=middle;resizable=0;points=[];" parent="EA0Et3k9bPW94U-_KOiB-89" vertex="1" connectable="0">
          <mxGeometry x="-0.3183" y="1" relative="1" as="geometry">
            <mxPoint as="offset" />
          </mxGeometry>
        </mxCell>
        <mxCell id="EA0Et3k9bPW94U-_KOiB-97" style="edgeStyle=orthogonalEdgeStyle;rounded=0;orthogonalLoop=1;jettySize=auto;html=1;exitX=0.5;exitY=1;exitDx=0;exitDy=0;entryX=0.5;entryY=0;entryDx=0;entryDy=0;dashed=1;" parent="-wio4jYrz6Z_WqMP-ToP-1" source="EA0Et3k9bPW94U-_KOiB-88" target="EA0Et3k9bPW94U-_KOiB-2" edge="1">
          <mxGeometry relative="1" as="geometry">
            <Array as="points">
              <mxPoint x="-84" y="740" />
              <mxPoint x="486" y="740" />
            </Array>
          </mxGeometry>
        </mxCell>
        <mxCell id="EA0Et3k9bPW94U-_KOiB-88" value="执行Action" style="rounded=0;whiteSpace=wrap;html=1;fillColor=#fff2cc;strokeColor=#d6b656;" parent="-wio4jYrz6Z_WqMP-ToP-1" vertex="1">
          <mxGeometry x="-129" y="223" width="90" height="40" as="geometry" />
        </mxCell>
        <mxCell id="EA0Et3k9bPW94U-_KOiB-96" value="策略调度" style="text;html=1;strokeColor=none;fillColor=none;align=center;verticalAlign=middle;whiteSpace=wrap;rounded=0;dashed=1;" parent="-wio4jYrz6Z_WqMP-ToP-1" vertex="1">
          <mxGeometry x="466.5" y="30" width="103.5" height="30" as="geometry" />
        </mxCell>
        <mxCell id="EA0Et3k9bPW94U-_KOiB-100" value="召回策略" style="rounded=0;whiteSpace=wrap;html=1;fillColor=#fff2cc;strokeColor=#d6b656;" parent="-wio4jYrz6Z_WqMP-ToP-1" vertex="1">
          <mxGeometry x="-130" y="98" width="90" height="40" as="geometry" />
        </mxCell>
        <mxCell id="EA0Et3k9bPW94U-_KOiB-101" value="执行引擎" style="text;html=1;strokeColor=none;fillColor=none;align=center;verticalAlign=middle;whiteSpace=wrap;rounded=0;dashed=1;" parent="-wio4jYrz6Z_WqMP-ToP-1" vertex="1">
          <mxGeometry x="-200" y="63" width="103.5" height="30" as="geometry" />
        </mxCell>
      </root>
    </mxGraphModel>
  </diagram>
  <diagram name="Page-6" id="zzzePUq0nsB6TQnhFfei">
    <mxGraphModel dx="946" dy="557" grid="1" gridSize="10" guides="1" tooltips="1" connect="1" arrows="1" fold="1" page="1" pageScale="1" pageWidth="850" pageHeight="1100" math="0" shadow="1">
      <root>
        <mxCell id="rrimaMchRw-oIbadar-t-0" />
        <mxCell id="rrimaMchRw-oIbadar-t-1" parent="rrimaMchRw-oIbadar-t-0" />
        <mxCell id="-_rACLvB1AtckXVK6Wln-24" value="" style="rounded=1;whiteSpace=wrap;html=1;dashed=1;fillColor=#f5f5f5;fontColor=#333333;strokeColor=#666666;" parent="rrimaMchRw-oIbadar-t-1" vertex="1">
          <mxGeometry x="10" y="380" width="590" height="310" as="geometry" />
        </mxCell>
        <mxCell id="gl7tEu_SfvSwaPXAgm_s-19" value="消息调度中转" style="rounded=0;whiteSpace=wrap;html=1;strokeColor=#666666;strokeWidth=2;fillColor=#f5f5f5;fontSize=20;fontStyle=1;fontColor=#333333;" parent="rrimaMchRw-oIbadar-t-1" vertex="1">
          <mxGeometry x="325" y="197.5" width="160" height="55" as="geometry" />
        </mxCell>
        <mxCell id="gl7tEu_SfvSwaPXAgm_s-64" style="edgeStyle=orthogonalEdgeStyle;rounded=0;orthogonalLoop=1;jettySize=auto;html=1;exitX=0.5;exitY=1;exitDx=0;exitDy=0;fontSize=11;strokeColor=#000000;strokeWidth=1;" parent="rrimaMchRw-oIbadar-t-1" edge="1">
          <mxGeometry relative="1" as="geometry">
            <mxPoint x="324.9999999999998" y="720.0000000000002" as="sourcePoint" />
            <mxPoint x="324.9999999999998" y="720.0000000000002" as="targetPoint" />
          </mxGeometry>
        </mxCell>
        <mxCell id="gl7tEu_SfvSwaPXAgm_s-68" value="" style="endArrow=none;dashed=1;html=1;dashPattern=1 2;strokeWidth=3;strokeColor=#000000;startArrow=none;" parent="rrimaMchRw-oIbadar-t-1" edge="1">
          <mxGeometry width="50" height="50" relative="1" as="geometry">
            <mxPoint x="406.89527458492967" y="635" as="sourcePoint" />
            <mxPoint x="403" y="940" as="targetPoint" />
          </mxGeometry>
        </mxCell>
        <mxCell id="gVZA2u7U6dX2-v0OsyPI-1" value="消息发送方" style="rounded=0;whiteSpace=wrap;html=1;strokeColor=#666666;strokeWidth=2;fillColor=#f5f5f5;fontSize=20;fontStyle=1;fontColor=#333333;" parent="rrimaMchRw-oIbadar-t-1" vertex="1">
          <mxGeometry x="40" y="199" width="160" height="55" as="geometry" />
        </mxCell>
        <mxCell id="gVZA2u7U6dX2-v0OsyPI-3" value="" style="endArrow=none;dashed=1;html=1;strokeWidth=3;dashPattern=1 2;strokeColor=#000000;startArrow=none;exitX=0.431;exitY=1.009;exitDx=0;exitDy=0;exitPerimeter=0;" parent="rrimaMchRw-oIbadar-t-1" source="gl7tEu_SfvSwaPXAgm_s-13" edge="1">
          <mxGeometry width="50" height="50" relative="1" as="geometry">
            <mxPoint x="108.96000000000004" y="254.49500000000012" as="sourcePoint" />
            <mxPoint x="101" y="880" as="targetPoint" />
            <Array as="points" />
          </mxGeometry>
        </mxCell>
        <mxCell id="-_rACLvB1AtckXVK6Wln-7" style="edgeStyle=orthogonalEdgeStyle;rounded=0;orthogonalLoop=1;jettySize=auto;html=1;exitX=0.3;exitY=0.588;exitDx=0;exitDy=0;exitPerimeter=0;" parent="rrimaMchRw-oIbadar-t-1" source="gVZA2u7U6dX2-v0OsyPI-12" edge="1">
          <mxGeometry relative="1" as="geometry">
            <mxPoint x="120" y="570" as="targetPoint" />
          </mxGeometry>
        </mxCell>
        <mxCell id="-_rACLvB1AtckXVK6Wln-11" style="edgeStyle=orthogonalEdgeStyle;rounded=0;orthogonalLoop=1;jettySize=auto;html=1;exitX=1;exitY=0.75;exitDx=0;exitDy=0;" parent="rrimaMchRw-oIbadar-t-1" source="gVZA2u7U6dX2-v0OsyPI-12" edge="1">
          <mxGeometry relative="1" as="geometry">
            <mxPoint x="418.181818181818" y="680" as="targetPoint" />
            <Array as="points">
              <mxPoint x="460" y="633" />
              <mxPoint x="460" y="680" />
            </Array>
          </mxGeometry>
        </mxCell>
        <mxCell id="gVZA2u7U6dX2-v0OsyPI-12" value="" style="rounded=0;whiteSpace=wrap;html=1;strokeColor=#990000;strokeWidth=2;" parent="rrimaMchRw-oIbadar-t-1" vertex="1">
          <mxGeometry x="392.5" y="341.5" width="25" height="388.5" as="geometry" />
        </mxCell>
        <mxCell id="gVZA2u7U6dX2-v0OsyPI-13" value="" style="endArrow=none;dashed=1;html=1;dashPattern=1 2;strokeWidth=3;strokeColor=#000000;" parent="rrimaMchRw-oIbadar-t-1" target="gVZA2u7U6dX2-v0OsyPI-12" edge="1">
          <mxGeometry width="50" height="50" relative="1" as="geometry">
            <mxPoint x="404.9999999999993" y="255" as="sourcePoint" />
            <mxPoint x="404.9999999999998" y="723.9999999999998" as="targetPoint" />
          </mxGeometry>
        </mxCell>
        <mxCell id="gVZA2u7U6dX2-v0OsyPI-27" value="&lt;font style=&quot;font-size: 14px&quot;&gt;发送消息&lt;/font&gt;" style="text;html=1;strokeColor=none;fillColor=none;align=center;verticalAlign=middle;whiteSpace=wrap;rounded=0;dashed=1;" parent="rrimaMchRw-oIbadar-t-1" vertex="1">
          <mxGeometry x="203" y="390" width="97.5" height="30" as="geometry" />
        </mxCell>
        <mxCell id="gVZA2u7U6dX2-v0OsyPI-30" value="延迟消息发送" style="rounded=0;whiteSpace=wrap;html=1;strokeColor=#666666;strokeWidth=2;fillColor=#f5f5f5;fontSize=20;fontStyle=1;fontColor=#333333;" parent="rrimaMchRw-oIbadar-t-1" vertex="1">
          <mxGeometry x="570" y="199" width="160" height="55" as="geometry" />
        </mxCell>
        <mxCell id="gVZA2u7U6dX2-v0OsyPI-31" value="" style="endArrow=none;dashed=1;html=1;dashPattern=1 2;strokeWidth=3;strokeColor=#000000;startArrow=none;" parent="rrimaMchRw-oIbadar-t-1" source="gVZA2u7U6dX2-v0OsyPI-32" edge="1">
          <mxGeometry width="50" height="50" relative="1" as="geometry">
            <mxPoint x="819.9999999999991" y="256.5" as="sourcePoint" />
            <mxPoint x="650" y="940" as="targetPoint" />
          </mxGeometry>
        </mxCell>
        <mxCell id="-_rACLvB1AtckXVK6Wln-22" style="edgeStyle=orthogonalEdgeStyle;rounded=0;orthogonalLoop=1;jettySize=auto;html=1;exitX=1;exitY=0.75;exitDx=0;exitDy=0;entryX=0;entryY=0.75;entryDx=0;entryDy=0;" parent="rrimaMchRw-oIbadar-t-1" source="gVZA2u7U6dX2-v0OsyPI-32" target="-_rACLvB1AtckXVK6Wln-20" edge="1">
          <mxGeometry relative="1" as="geometry" />
        </mxCell>
        <mxCell id="gVZA2u7U6dX2-v0OsyPI-32" value="" style="rounded=0;whiteSpace=wrap;html=1;strokeColor=#990000;strokeWidth=2;" parent="rrimaMchRw-oIbadar-t-1" vertex="1">
          <mxGeometry x="637.5" y="617" width="25" height="130" as="geometry" />
        </mxCell>
        <mxCell id="gVZA2u7U6dX2-v0OsyPI-33" value="" style="endArrow=none;dashed=1;html=1;dashPattern=1 2;strokeWidth=3;strokeColor=#000000;" parent="rrimaMchRw-oIbadar-t-1" target="gVZA2u7U6dX2-v0OsyPI-32" edge="1">
          <mxGeometry width="50" height="50" relative="1" as="geometry">
            <mxPoint x="649.9999999999993" y="256.5" as="sourcePoint" />
            <mxPoint x="649.9999999999998" y="725.4999999999998" as="targetPoint" />
          </mxGeometry>
        </mxCell>
        <mxCell id="-_rACLvB1AtckXVK6Wln-2" value="&lt;span style=&quot;font-size: 14px&quot;&gt;校验执行时间&lt;/span&gt;" style="text;html=1;strokeColor=none;fillColor=none;align=center;verticalAlign=middle;whiteSpace=wrap;rounded=0;dashed=1;" parent="rrimaMchRw-oIbadar-t-1" vertex="1">
          <mxGeometry x="472.5" y="470" width="97.5" height="30" as="geometry" />
        </mxCell>
        <mxCell id="-_rACLvB1AtckXVK6Wln-5" style="edgeStyle=orthogonalEdgeStyle;rounded=0;orthogonalLoop=1;jettySize=auto;html=1;exitX=1;exitY=0.25;exitDx=0;exitDy=0;entryX=-0.1;entryY=0.222;entryDx=0;entryDy=0;entryPerimeter=0;" parent="rrimaMchRw-oIbadar-t-1" source="gl7tEu_SfvSwaPXAgm_s-13" target="gVZA2u7U6dX2-v0OsyPI-12" edge="1">
          <mxGeometry relative="1" as="geometry" />
        </mxCell>
        <mxCell id="-_rACLvB1AtckXVK6Wln-9" style="edgeStyle=orthogonalEdgeStyle;rounded=0;orthogonalLoop=1;jettySize=auto;html=1;exitX=1.055;exitY=0.721;exitDx=0;exitDy=0;exitPerimeter=0;" parent="rrimaMchRw-oIbadar-t-1" source="gl7tEu_SfvSwaPXAgm_s-13" edge="1">
          <mxGeometry relative="1" as="geometry">
            <mxPoint x="390" y="611" as="targetPoint" />
          </mxGeometry>
        </mxCell>
        <mxCell id="gl7tEu_SfvSwaPXAgm_s-13" value="" style="rounded=0;whiteSpace=wrap;html=1;strokeColor=#990000;strokeWidth=2;" parent="rrimaMchRw-oIbadar-t-1" vertex="1">
          <mxGeometry x="90" y="330" width="25" height="389" as="geometry" />
        </mxCell>
        <mxCell id="-_rACLvB1AtckXVK6Wln-4" value="" style="endArrow=none;dashed=1;html=1;strokeWidth=3;dashPattern=1 2;strokeColor=#000000;startArrow=none;exitX=0.431;exitY=1.009;exitDx=0;exitDy=0;exitPerimeter=0;" parent="rrimaMchRw-oIbadar-t-1" source="gVZA2u7U6dX2-v0OsyPI-1" target="gl7tEu_SfvSwaPXAgm_s-13" edge="1">
          <mxGeometry width="50" height="50" relative="1" as="geometry">
            <mxPoint x="108.96000000000004" y="254.49500000000012" as="sourcePoint" />
            <mxPoint x="109" y="890.0000000000002" as="targetPoint" />
            <Array as="points" />
          </mxGeometry>
        </mxCell>
        <mxCell id="-_rACLvB1AtckXVK6Wln-6" style="edgeStyle=orthogonalEdgeStyle;rounded=0;orthogonalLoop=1;jettySize=auto;html=1;exitX=1;exitY=0.25;exitDx=0;exitDy=0;entryX=1;entryY=0.5;entryDx=0;entryDy=0;" parent="rrimaMchRw-oIbadar-t-1" source="gVZA2u7U6dX2-v0OsyPI-12" target="gVZA2u7U6dX2-v0OsyPI-12" edge="1">
          <mxGeometry relative="1" as="geometry">
            <Array as="points">
              <mxPoint x="470" y="439" />
              <mxPoint x="470" y="536" />
            </Array>
          </mxGeometry>
        </mxCell>
        <mxCell id="-_rACLvB1AtckXVK6Wln-8" value="&lt;font style=&quot;font-size: 14px&quot;&gt;不符合消息回发&lt;/font&gt;" style="text;html=1;strokeColor=none;fillColor=none;align=center;verticalAlign=middle;whiteSpace=wrap;rounded=0;dashed=1;" parent="rrimaMchRw-oIbadar-t-1" vertex="1">
          <mxGeometry x="220" y="530" width="120" height="30" as="geometry" />
        </mxCell>
        <mxCell id="-_rACLvB1AtckXVK6Wln-12" value="&lt;span style=&quot;font-size: 14px&quot;&gt;校验执行时间&lt;/span&gt;" style="text;html=1;strokeColor=none;fillColor=none;align=center;verticalAlign=middle;whiteSpace=wrap;rounded=0;dashed=1;" parent="rrimaMchRw-oIbadar-t-1" vertex="1">
          <mxGeometry x="460" y="630" width="97.5" height="30" as="geometry" />
        </mxCell>
        <mxCell id="-_rACLvB1AtckXVK6Wln-14" value="&lt;font style=&quot;font-size: 14px&quot;&gt;发送消息&lt;/font&gt;" style="text;html=1;strokeColor=none;fillColor=none;align=center;verticalAlign=middle;whiteSpace=wrap;rounded=0;dashed=1;" parent="rrimaMchRw-oIbadar-t-1" vertex="1">
          <mxGeometry x="220" y="587" width="97.5" height="30" as="geometry" />
        </mxCell>
        <mxCell id="-_rACLvB1AtckXVK6Wln-16" style="edgeStyle=orthogonalEdgeStyle;rounded=0;orthogonalLoop=1;jettySize=auto;html=1;entryX=0;entryY=0.75;entryDx=0;entryDy=0;" parent="rrimaMchRw-oIbadar-t-1" target="gVZA2u7U6dX2-v0OsyPI-32" edge="1">
          <mxGeometry relative="1" as="geometry">
            <mxPoint x="620" y="699" as="targetPoint" />
            <mxPoint x="420" y="715" as="sourcePoint" />
          </mxGeometry>
        </mxCell>
        <mxCell id="-_rACLvB1AtckXVK6Wln-17" value="&lt;font style=&quot;font-size: 14px&quot;&gt;符合执行时间发送消息&lt;/font&gt;" style="text;html=1;strokeColor=none;fillColor=none;align=center;verticalAlign=middle;whiteSpace=wrap;rounded=0;dashed=1;" parent="rrimaMchRw-oIbadar-t-1" vertex="1">
          <mxGeometry x="460" y="689" width="167.5" height="30" as="geometry" />
        </mxCell>
        <mxCell id="-_rACLvB1AtckXVK6Wln-18" value="消息接收方" style="rounded=0;whiteSpace=wrap;html=1;strokeColor=#666666;strokeWidth=2;fillColor=#f5f5f5;fontSize=20;fontStyle=1;fontColor=#333333;" parent="rrimaMchRw-oIbadar-t-1" vertex="1">
          <mxGeometry x="830" y="197.5" width="160" height="55" as="geometry" />
        </mxCell>
        <mxCell id="-_rACLvB1AtckXVK6Wln-19" value="" style="endArrow=none;dashed=1;html=1;dashPattern=1 2;strokeWidth=3;strokeColor=#000000;startArrow=none;" parent="rrimaMchRw-oIbadar-t-1" source="-_rACLvB1AtckXVK6Wln-20" edge="1">
          <mxGeometry width="50" height="50" relative="1" as="geometry">
            <mxPoint x="1079.999999999999" y="255" as="sourcePoint" />
            <mxPoint x="910" y="938.5" as="targetPoint" />
          </mxGeometry>
        </mxCell>
        <mxCell id="-_rACLvB1AtckXVK6Wln-20" value="" style="rounded=0;whiteSpace=wrap;html=1;strokeColor=#990000;strokeWidth=2;" parent="rrimaMchRw-oIbadar-t-1" vertex="1">
          <mxGeometry x="897.5" y="615.5" width="25" height="130" as="geometry" />
        </mxCell>
        <mxCell id="-_rACLvB1AtckXVK6Wln-21" value="" style="endArrow=none;dashed=1;html=1;dashPattern=1 2;strokeWidth=3;strokeColor=#000000;" parent="rrimaMchRw-oIbadar-t-1" target="-_rACLvB1AtckXVK6Wln-20" edge="1">
          <mxGeometry width="50" height="50" relative="1" as="geometry">
            <mxPoint x="909.9999999999991" y="255" as="sourcePoint" />
            <mxPoint x="909.9999999999998" y="723.9999999999998" as="targetPoint" />
          </mxGeometry>
        </mxCell>
        <mxCell id="-_rACLvB1AtckXVK6Wln-25" value="&lt;font style=&quot;font-size: 14px&quot;&gt;发送消息&lt;/font&gt;" style="text;html=1;strokeColor=none;fillColor=none;align=center;verticalAlign=middle;whiteSpace=wrap;rounded=0;dashed=1;" parent="rrimaMchRw-oIbadar-t-1" vertex="1">
          <mxGeometry x="730" y="689" width="97.5" height="30" as="geometry" />
        </mxCell>
        <mxCell id="-_rACLvB1AtckXVK6Wln-26" value="&lt;b&gt;循环重复&lt;/b&gt;" style="text;html=1;strokeColor=none;fillColor=none;align=center;verticalAlign=middle;whiteSpace=wrap;rounded=0;dashed=1;" parent="rrimaMchRw-oIbadar-t-1" vertex="1">
          <mxGeometry x="20" y="410" width="60" height="30" as="geometry" />
        </mxCell>
      </root>
    </mxGraphModel>
  </diagram>
  <diagram name="Page-7" id="wjJlaR4RRefMDoWHH8bm">
    <mxGraphModel dx="2111" dy="743" grid="1" gridSize="10" guides="1" tooltips="1" connect="1" arrows="1" fold="1" page="1" pageScale="1" pageWidth="850" pageHeight="1100" math="0" shadow="0">
      <root>
        <mxCell id="MhqtkSOCvvF7JMtFQgt9-0" />
        <mxCell id="MhqtkSOCvvF7JMtFQgt9-1" parent="MhqtkSOCvvF7JMtFQgt9-0" />
        <mxCell id="Qrg4ncD-vOtdzRJObZiR-33" value="" style="rounded=0;whiteSpace=wrap;html=1;strokeWidth=1;dashed=1;fillColor=#dae8fc;strokeColor=#6c8ebf;" parent="MhqtkSOCvvF7JMtFQgt9-1" vertex="1">
          <mxGeometry x="369" y="714" width="601" height="525" as="geometry" />
        </mxCell>
        <mxCell id="MhqtkSOCvvF7JMtFQgt9-2" value="" style="shape=umlLifeline;participant=umlEntity;perimeter=lifelinePerimeter;whiteSpace=wrap;html=1;container=1;collapsible=0;recursiveResize=0;verticalAlign=top;spacingTop=36;outlineConnect=0;" parent="MhqtkSOCvvF7JMtFQgt9-1" vertex="1">
          <mxGeometry x="120" y="160" width="40" height="1120" as="geometry" />
        </mxCell>
        <mxCell id="MhqtkSOCvvF7JMtFQgt9-3" value="" style="shape=umlLifeline;participant=umlEntity;perimeter=lifelinePerimeter;whiteSpace=wrap;html=1;container=1;collapsible=0;recursiveResize=0;verticalAlign=top;spacingTop=36;outlineConnect=0;" parent="MhqtkSOCvvF7JMtFQgt9-1" vertex="1">
          <mxGeometry x="260" y="160" width="40" height="1120" as="geometry" />
        </mxCell>
        <mxCell id="MhqtkSOCvvF7JMtFQgt9-5" value="" style="endArrow=open;html=1;endSize=12;startArrow=diamondThin;startSize=14;startFill=0;edgeStyle=orthogonalEdgeStyle;align=left;verticalAlign=bottom;rounded=0;" parent="MhqtkSOCvvF7JMtFQgt9-1" edge="1">
          <mxGeometry x="-1" y="3" relative="1" as="geometry">
            <mxPoint x="139" y="274.55" as="sourcePoint" />
            <mxPoint x="279" y="274.55" as="targetPoint" />
          </mxGeometry>
        </mxCell>
        <mxCell id="MhqtkSOCvvF7JMtFQgt9-6" value="Manager" style="text;html=1;strokeColor=none;fillColor=none;align=center;verticalAlign=middle;whiteSpace=wrap;rounded=0;" parent="MhqtkSOCvvF7JMtFQgt9-1" vertex="1">
          <mxGeometry x="110" y="120" width="60" height="30" as="geometry" />
        </mxCell>
        <mxCell id="MhqtkSOCvvF7JMtFQgt9-7" value="Tower" style="text;html=1;strokeColor=none;fillColor=none;align=center;verticalAlign=middle;whiteSpace=wrap;rounded=0;" parent="MhqtkSOCvvF7JMtFQgt9-1" vertex="1">
          <mxGeometry x="253" y="120" width="60" height="30" as="geometry" />
        </mxCell>
        <mxCell id="MhqtkSOCvvF7JMtFQgt9-8" value="" style="shape=umlLifeline;participant=umlEntity;perimeter=lifelinePerimeter;whiteSpace=wrap;html=1;container=1;collapsible=0;recursiveResize=0;verticalAlign=top;spacingTop=36;outlineConnect=0;" parent="MhqtkSOCvvF7JMtFQgt9-1" vertex="1">
          <mxGeometry x="400" y="160" width="40" height="1120" as="geometry" />
        </mxCell>
        <mxCell id="MhqtkSOCvvF7JMtFQgt9-9" value="投放引擎" style="text;html=1;strokeColor=none;fillColor=none;align=center;verticalAlign=middle;whiteSpace=wrap;rounded=0;" parent="MhqtkSOCvvF7JMtFQgt9-1" vertex="1">
          <mxGeometry x="390" y="120" width="60" height="30" as="geometry" />
        </mxCell>
        <mxCell id="MhqtkSOCvvF7JMtFQgt9-10" value="" style="shape=umlLifeline;participant=umlEntity;perimeter=lifelinePerimeter;whiteSpace=wrap;html=1;container=1;collapsible=0;recursiveResize=0;verticalAlign=top;spacingTop=36;outlineConnect=0;" parent="MhqtkSOCvvF7JMtFQgt9-1" vertex="1">
          <mxGeometry x="539" y="160" width="40" height="1120" as="geometry" />
        </mxCell>
        <mxCell id="MhqtkSOCvvF7JMtFQgt9-32" value="" style="endArrow=open;html=1;endSize=12;startArrow=diamondThin;startSize=14;startFill=0;edgeStyle=orthogonalEdgeStyle;align=left;verticalAlign=bottom;rounded=0;dashed=1;dashPattern=1 1;" parent="MhqtkSOCvvF7JMtFQgt9-10" target="MhqtkSOCvvF7JMtFQgt9-16" edge="1">
          <mxGeometry y="20" relative="1" as="geometry">
            <mxPoint x="-119" y="400" as="sourcePoint" />
            <mxPoint x="230.5" y="400" as="targetPoint" />
            <mxPoint x="-1" as="offset" />
            <Array as="points">
              <mxPoint x="171" y="400" />
              <mxPoint x="171" y="400" />
            </Array>
          </mxGeometry>
        </mxCell>
        <mxCell id="Qrg4ncD-vOtdzRJObZiR-23" value="" style="endArrow=open;html=1;endSize=12;startArrow=diamondThin;startSize=14;startFill=0;edgeStyle=orthogonalEdgeStyle;align=left;verticalAlign=bottom;rounded=0;" parent="MhqtkSOCvvF7JMtFQgt9-10" edge="1">
          <mxGeometry y="20" relative="1" as="geometry">
            <mxPoint x="-122.5" y="453" as="sourcePoint" />
            <mxPoint x="153.5" y="453" as="targetPoint" />
            <mxPoint x="-1" as="offset" />
            <Array as="points">
              <mxPoint x="81" y="453" />
              <mxPoint x="81" y="453" />
            </Array>
          </mxGeometry>
        </mxCell>
        <mxCell id="MhqtkSOCvvF7JMtFQgt9-11" value="编排事件接收" style="text;html=1;strokeColor=none;fillColor=none;align=center;verticalAlign=middle;whiteSpace=wrap;rounded=0;" parent="MhqtkSOCvvF7JMtFQgt9-1" vertex="1">
          <mxGeometry x="524" y="120" width="75" height="30" as="geometry" />
        </mxCell>
        <mxCell id="MhqtkSOCvvF7JMtFQgt9-12" value="" style="shape=umlLifeline;participant=umlEntity;perimeter=lifelinePerimeter;whiteSpace=wrap;html=1;container=1;collapsible=0;recursiveResize=0;verticalAlign=top;spacingTop=36;outlineConnect=0;" parent="MhqtkSOCvvF7JMtFQgt9-1" vertex="1">
          <mxGeometry x="800" y="160" width="49" height="1120" as="geometry" />
        </mxCell>
        <mxCell id="Qrg4ncD-vOtdzRJObZiR-36" value="" style="endArrow=open;html=1;endSize=12;startArrow=diamondThin;startSize=14;startFill=0;edgeStyle=orthogonalEdgeStyle;align=left;verticalAlign=bottom;rounded=0;" parent="MhqtkSOCvvF7JMtFQgt9-12" edge="1">
          <mxGeometry y="20" relative="1" as="geometry">
            <mxPoint x="-106.99909090909091" y="855.9999999999998" as="sourcePoint" />
            <mxPoint x="-106.99909090909091" y="825.9999999999998" as="targetPoint" />
            <mxPoint x="-1" as="offset" />
            <Array as="points">
              <mxPoint x="-40" y="856" />
              <mxPoint x="-40" y="826" />
            </Array>
          </mxGeometry>
        </mxCell>
        <mxCell id="Qrg4ncD-vOtdzRJObZiR-37" value="未达成判断下级节点" style="text;html=1;strokeColor=none;fillColor=none;align=center;verticalAlign=middle;whiteSpace=wrap;rounded=0;" parent="MhqtkSOCvvF7JMtFQgt9-12" vertex="1">
          <mxGeometry x="-120" y="793" width="168" height="40" as="geometry" />
        </mxCell>
        <mxCell id="Qrg4ncD-vOtdzRJObZiR-41" value="" style="endArrow=open;html=1;endSize=12;startArrow=diamondThin;startSize=14;startFill=0;edgeStyle=orthogonalEdgeStyle;align=left;verticalAlign=bottom;rounded=0;" parent="MhqtkSOCvvF7JMtFQgt9-12" edge="1">
          <mxGeometry y="20" relative="1" as="geometry">
            <mxPoint x="-108.75" y="793" as="sourcePoint" />
            <mxPoint x="148.75" y="793" as="targetPoint" />
            <mxPoint x="-1" as="offset" />
            <Array as="points">
              <mxPoint x="79.25" y="793" />
              <mxPoint x="79.25" y="793" />
            </Array>
          </mxGeometry>
        </mxCell>
        <mxCell id="MhqtkSOCvvF7JMtFQgt9-13" value="等待器" style="text;html=1;strokeColor=none;fillColor=none;align=center;verticalAlign=middle;whiteSpace=wrap;rounded=0;" parent="MhqtkSOCvvF7JMtFQgt9-1" vertex="1">
          <mxGeometry x="800" y="120" width="60" height="30" as="geometry" />
        </mxCell>
        <mxCell id="MhqtkSOCvvF7JMtFQgt9-16" value="" style="shape=umlLifeline;participant=umlEntity;perimeter=lifelinePerimeter;whiteSpace=wrap;html=1;container=1;collapsible=0;recursiveResize=0;verticalAlign=top;spacingTop=36;outlineConnect=0;" parent="MhqtkSOCvvF7JMtFQgt9-1" vertex="1">
          <mxGeometry x="673" y="160" width="40" height="1120" as="geometry" />
        </mxCell>
        <mxCell id="MhqtkSOCvvF7JMtFQgt9-17" value="DAG服务" style="text;html=1;strokeColor=none;fillColor=none;align=center;verticalAlign=middle;whiteSpace=wrap;rounded=0;" parent="MhqtkSOCvvF7JMtFQgt9-1" vertex="1">
          <mxGeometry x="680" y="120" width="60" height="30" as="geometry" />
        </mxCell>
        <mxCell id="MhqtkSOCvvF7JMtFQgt9-19" value="" style="endArrow=open;html=1;endSize=12;startArrow=diamondThin;startSize=14;startFill=0;edgeStyle=orthogonalEdgeStyle;align=left;verticalAlign=bottom;rounded=0;" parent="MhqtkSOCvvF7JMtFQgt9-1" edge="1">
          <mxGeometry y="20" relative="1" as="geometry">
            <mxPoint x="280" y="290" as="sourcePoint" />
            <mxPoint x="420" y="290" as="targetPoint" />
            <mxPoint x="-1" as="offset" />
          </mxGeometry>
        </mxCell>
        <mxCell id="MhqtkSOCvvF7JMtFQgt9-20" value="" style="endArrow=open;html=1;endSize=12;startArrow=diamondThin;startSize=14;startFill=0;edgeStyle=orthogonalEdgeStyle;align=left;verticalAlign=bottom;rounded=0;" parent="MhqtkSOCvvF7JMtFQgt9-1" target="MhqtkSOCvvF7JMtFQgt9-16" edge="1">
          <mxGeometry y="20" relative="1" as="geometry">
            <mxPoint x="280" y="331" as="sourcePoint" />
            <mxPoint x="740" y="331" as="targetPoint" />
            <mxPoint x="-1" as="offset" />
            <Array as="points">
              <mxPoint x="660" y="331" />
              <mxPoint x="660" y="331" />
            </Array>
          </mxGeometry>
        </mxCell>
        <mxCell id="MhqtkSOCvvF7JMtFQgt9-21" value="1.上线策略组" style="text;html=1;strokeColor=none;fillColor=none;align=center;verticalAlign=middle;whiteSpace=wrap;rounded=0;" parent="MhqtkSOCvvF7JMtFQgt9-1" vertex="1">
          <mxGeometry x="168" y="250" width="80" height="30" as="geometry" />
        </mxCell>
        <mxCell id="MhqtkSOCvvF7JMtFQgt9-22" value="2.上线策略组" style="text;html=1;strokeColor=none;fillColor=none;align=center;verticalAlign=middle;whiteSpace=wrap;rounded=0;" parent="MhqtkSOCvvF7JMtFQgt9-1" vertex="1">
          <mxGeometry x="310" y="260" width="80" height="30" as="geometry" />
        </mxCell>
        <mxCell id="MhqtkSOCvvF7JMtFQgt9-24" value="3.上线策略组，存储策略组DAG信息" style="text;html=1;strokeColor=none;fillColor=none;align=center;verticalAlign=middle;whiteSpace=wrap;rounded=0;" parent="MhqtkSOCvvF7JMtFQgt9-1" vertex="1">
          <mxGeometry x="436" y="300" width="231" height="30" as="geometry" />
        </mxCell>
        <mxCell id="MhqtkSOCvvF7JMtFQgt9-26" value="" style="endArrow=open;html=1;endSize=12;startArrow=diamondThin;startSize=14;startFill=0;edgeStyle=orthogonalEdgeStyle;align=left;verticalAlign=bottom;rounded=0;" parent="MhqtkSOCvvF7JMtFQgt9-1" target="MhqtkSOCvvF7JMtFQgt9-8" edge="1">
          <mxGeometry y="20" relative="1" as="geometry">
            <mxPoint x="10" y="380" as="sourcePoint" />
            <mxPoint x="410" y="380" as="targetPoint" />
            <mxPoint x="-1" as="offset" />
            <Array as="points">
              <mxPoint x="340" y="380" />
              <mxPoint x="340" y="380" />
            </Array>
          </mxGeometry>
        </mxCell>
        <mxCell id="MhqtkSOCvvF7JMtFQgt9-29" value="" style="endArrow=open;html=1;endSize=12;startArrow=diamondThin;startSize=14;startFill=0;edgeStyle=orthogonalEdgeStyle;align=left;verticalAlign=bottom;rounded=0;" parent="MhqtkSOCvvF7JMtFQgt9-1" target="MhqtkSOCvvF7JMtFQgt9-8" edge="1">
          <mxGeometry x="-1" y="3" relative="1" as="geometry">
            <mxPoint x="420" y="410" as="sourcePoint" />
            <mxPoint x="490" y="500" as="targetPoint" />
            <Array as="points">
              <mxPoint x="510" y="410" />
              <mxPoint x="510" y="440" />
            </Array>
          </mxGeometry>
        </mxCell>
        <mxCell id="MhqtkSOCvvF7JMtFQgt9-30" value="" style="endArrow=open;html=1;endSize=12;startArrow=diamondThin;startSize=14;startFill=0;edgeStyle=orthogonalEdgeStyle;align=left;verticalAlign=bottom;rounded=0;" parent="MhqtkSOCvvF7JMtFQgt9-1" edge="1">
          <mxGeometry x="-1" y="3" relative="1" as="geometry">
            <mxPoint x="421.04" y="484.96" as="sourcePoint" />
            <mxPoint x="420.0015384615386" y="515.0369230769229" as="targetPoint" />
            <Array as="points">
              <mxPoint x="511.04" y="484.96" />
              <mxPoint x="511.04" y="514.96" />
            </Array>
          </mxGeometry>
        </mxCell>
        <mxCell id="MhqtkSOCvvF7JMtFQgt9-38" value="" style="shape=umlLifeline;participant=umlEntity;perimeter=lifelinePerimeter;whiteSpace=wrap;html=1;container=1;collapsible=0;recursiveResize=0;verticalAlign=top;spacingTop=36;outlineConnect=0;" parent="MhqtkSOCvvF7JMtFQgt9-1" vertex="1">
          <mxGeometry x="930" y="160" width="40" height="1120" as="geometry" />
        </mxCell>
        <mxCell id="MhqtkSOCvvF7JMtFQgt9-39" value="特征服务" style="text;html=1;strokeColor=none;fillColor=none;align=center;verticalAlign=middle;whiteSpace=wrap;rounded=0;" parent="MhqtkSOCvvF7JMtFQgt9-1" vertex="1">
          <mxGeometry x="920" y="120" width="60" height="30" as="geometry" />
        </mxCell>
        <mxCell id="MhqtkSOCvvF7JMtFQgt9-41" value="4.用户触发触发时机" style="text;html=1;strokeColor=none;fillColor=none;align=center;verticalAlign=middle;whiteSpace=wrap;rounded=0;" parent="MhqtkSOCvvF7JMtFQgt9-1" vertex="1">
          <mxGeometry x="170" y="350" width="110" height="30" as="geometry" />
        </mxCell>
        <mxCell id="MhqtkSOCvvF7JMtFQgt9-42" value="5.召回触发时机对应的策略" style="text;html=1;strokeColor=none;fillColor=none;align=center;verticalAlign=middle;whiteSpace=wrap;rounded=0;" parent="MhqtkSOCvvF7JMtFQgt9-1" vertex="1">
          <mxGeometry x="429" y="380" width="110" height="30" as="geometry" />
        </mxCell>
        <mxCell id="MhqtkSOCvvF7JMtFQgt9-45" value="6.执行Condition" style="text;html=1;strokeColor=none;fillColor=none;align=center;verticalAlign=middle;whiteSpace=wrap;rounded=0;" parent="MhqtkSOCvvF7JMtFQgt9-1" vertex="1">
          <mxGeometry x="429" y="450" width="110" height="30" as="geometry" />
        </mxCell>
        <mxCell id="MhqtkSOCvvF7JMtFQgt9-46" value="6.1 查询用户DAG关系判断是否可命中策略" style="text;html=1;strokeColor=none;fillColor=none;align=center;verticalAlign=middle;whiteSpace=wrap;rounded=0;" parent="MhqtkSOCvvF7JMtFQgt9-1" vertex="1">
          <mxGeometry x="445" y="529" width="215" height="30" as="geometry" />
        </mxCell>
        <mxCell id="MhqtkSOCvvF7JMtFQgt9-47" value="6.2 判断是否状态跃迁" style="text;html=1;strokeColor=none;fillColor=none;align=center;verticalAlign=middle;whiteSpace=wrap;rounded=0;" parent="MhqtkSOCvvF7JMtFQgt9-1" vertex="1">
          <mxGeometry x="426" y="577" width="170" height="30" as="geometry" />
        </mxCell>
        <mxCell id="MhqtkSOCvvF7JMtFQgt9-49" value="" style="endArrow=open;html=1;endSize=12;startArrow=diamondThin;startSize=14;startFill=0;edgeStyle=orthogonalEdgeStyle;align=left;verticalAlign=bottom;rounded=0;" parent="MhqtkSOCvvF7JMtFQgt9-1" edge="1">
          <mxGeometry x="-1" y="3" relative="1" as="geometry">
            <mxPoint x="420.03999999999996" y="740" as="sourcePoint" />
            <mxPoint x="419.00153846153853" y="770.0769230769229" as="targetPoint" />
            <Array as="points">
              <mxPoint x="510.03999999999996" y="740" />
              <mxPoint x="510.03999999999996" y="770" />
            </Array>
          </mxGeometry>
        </mxCell>
        <mxCell id="MhqtkSOCvvF7JMtFQgt9-53" value="8.执行Action" style="text;html=1;strokeColor=none;fillColor=none;align=center;verticalAlign=middle;whiteSpace=wrap;rounded=0;" parent="MhqtkSOCvvF7JMtFQgt9-1" vertex="1">
          <mxGeometry x="399" y="714" width="131" height="30" as="geometry" />
        </mxCell>
        <mxCell id="MhqtkSOCvvF7JMtFQgt9-54" value="" style="endArrow=open;html=1;endSize=12;startArrow=diamondThin;startSize=14;startFill=0;edgeStyle=orthogonalEdgeStyle;align=left;verticalAlign=bottom;rounded=0;" parent="MhqtkSOCvvF7JMtFQgt9-1" edge="1">
          <mxGeometry y="20" relative="1" as="geometry">
            <mxPoint x="419" y="816.55" as="sourcePoint" />
            <mxPoint x="559" y="816.55" as="targetPoint" />
            <mxPoint x="-1" as="offset" />
          </mxGeometry>
        </mxCell>
        <mxCell id="MhqtkSOCvvF7JMtFQgt9-55" value="9.发送&lt;span&gt;用户策略完成&lt;/span&gt;&lt;span&gt;事件&lt;/span&gt;" style="text;html=1;strokeColor=none;fillColor=none;align=center;verticalAlign=middle;whiteSpace=wrap;rounded=0;" parent="MhqtkSOCvvF7JMtFQgt9-1" vertex="1">
          <mxGeometry x="417" y="784" width="161" height="30" as="geometry" />
        </mxCell>
        <mxCell id="MhqtkSOCvvF7JMtFQgt9-59" value="10. 执行轨迹跃迁" style="text;html=1;strokeColor=none;fillColor=none;align=center;verticalAlign=middle;whiteSpace=wrap;rounded=0;" parent="MhqtkSOCvvF7JMtFQgt9-1" vertex="1">
          <mxGeometry x="559" y="831" width="140" height="30" as="geometry" />
        </mxCell>
        <mxCell id="MhqtkSOCvvF7JMtFQgt9-62" value="" style="endArrow=open;html=1;endSize=12;startArrow=diamondThin;startSize=14;startFill=0;edgeStyle=orthogonalEdgeStyle;align=left;verticalAlign=bottom;rounded=0;" parent="MhqtkSOCvvF7JMtFQgt9-1" edge="1">
          <mxGeometry y="20" relative="1" as="geometry">
            <mxPoint x="698.590909090909" y="927" as="sourcePoint" />
            <mxPoint x="698.590909090909" y="897" as="targetPoint" />
            <mxPoint x="-1" as="offset" />
            <Array as="points">
              <mxPoint x="776" y="927" />
              <mxPoint x="776" y="897" />
            </Array>
          </mxGeometry>
        </mxCell>
        <mxCell id="MhqtkSOCvvF7JMtFQgt9-64" value="" style="endArrow=open;html=1;endSize=12;startArrow=diamondThin;startSize=14;startFill=0;edgeStyle=orthogonalEdgeStyle;align=left;verticalAlign=bottom;rounded=0;" parent="MhqtkSOCvvF7JMtFQgt9-1" edge="1">
          <mxGeometry y="20" relative="1" as="geometry">
            <mxPoint x="691.08" y="1159" as="sourcePoint" />
            <mxPoint x="817.83" y="1159" as="targetPoint" />
            <mxPoint x="-1" as="offset" />
            <Array as="points">
              <mxPoint x="802.08" y="1159" />
              <mxPoint x="802.08" y="1159" />
            </Array>
          </mxGeometry>
        </mxCell>
        <mxCell id="MhqtkSOCvvF7JMtFQgt9-69" value="" style="shape=curlyBracket;whiteSpace=wrap;html=1;rounded=1;flipH=1;direction=south;strokeWidth=3;" parent="MhqtkSOCvvF7JMtFQgt9-1" vertex="1">
          <mxGeometry x="545.5" y="54" width="274.5" height="46" as="geometry" />
        </mxCell>
        <mxCell id="MhqtkSOCvvF7JMtFQgt9-70" value="&lt;b&gt;盖亚编排服务&lt;/b&gt;" style="text;html=1;strokeColor=none;fillColor=none;align=center;verticalAlign=middle;whiteSpace=wrap;rounded=0;" parent="MhqtkSOCvvF7JMtFQgt9-1" vertex="1">
          <mxGeometry x="649" y="24" width="75" height="30" as="geometry" />
        </mxCell>
        <mxCell id="MhqtkSOCvvF7JMtFQgt9-71" value="" style="shape=curlyBracket;whiteSpace=wrap;html=1;rounded=1;flipH=1;direction=south;strokeWidth=3;" parent="MhqtkSOCvvF7JMtFQgt9-1" vertex="1">
          <mxGeometry x="134" y="54" width="150" height="46" as="geometry" />
        </mxCell>
        <mxCell id="MhqtkSOCvvF7JMtFQgt9-72" value="&lt;b&gt;盖亚B端&lt;/b&gt;" style="text;html=1;strokeColor=none;fillColor=none;align=center;verticalAlign=middle;whiteSpace=wrap;rounded=0;" parent="MhqtkSOCvvF7JMtFQgt9-1" vertex="1">
          <mxGeometry x="173" y="19" width="75" height="30" as="geometry" />
        </mxCell>
        <mxCell id="MhqtkSOCvvF7JMtFQgt9-73" value="" style="shape=curlyBracket;whiteSpace=wrap;html=1;rounded=1;strokeWidth=3;" parent="MhqtkSOCvvF7JMtFQgt9-1" vertex="1">
          <mxGeometry x="-60" y="380" width="20" height="900" as="geometry" />
        </mxCell>
        <mxCell id="MhqtkSOCvvF7JMtFQgt9-78" value="&lt;b&gt;重复4～11&lt;/b&gt;" style="text;html=1;strokeColor=none;fillColor=none;align=center;verticalAlign=middle;whiteSpace=wrap;rounded=0;" parent="MhqtkSOCvvF7JMtFQgt9-1" vertex="1">
          <mxGeometry x="-170" y="815" width="95" height="30" as="geometry" />
        </mxCell>
        <mxCell id="Qrg4ncD-vOtdzRJObZiR-0" value="&lt;br&gt;&lt;br&gt;用户" style="shape=actor;whiteSpace=wrap;html=1;fontColor=#000000;strokeWidth=1;" parent="MhqtkSOCvvF7JMtFQgt9-1" vertex="1">
          <mxGeometry x="-30" y="346" width="40" height="60" as="geometry" />
        </mxCell>
        <mxCell id="Qrg4ncD-vOtdzRJObZiR-1" value="&lt;br&gt;&lt;br&gt;运营" style="shape=actor;whiteSpace=wrap;html=1;fontColor=#000000;strokeWidth=1;" parent="MhqtkSOCvvF7JMtFQgt9-1" vertex="1">
          <mxGeometry x="-30" y="224" width="40" height="60" as="geometry" />
        </mxCell>
        <mxCell id="Qrg4ncD-vOtdzRJObZiR-2" value="" style="endArrow=open;html=1;endSize=12;startArrow=diamondThin;startSize=14;startFill=0;edgeStyle=orthogonalEdgeStyle;align=left;verticalAlign=bottom;rounded=0;" parent="MhqtkSOCvvF7JMtFQgt9-1" edge="1">
          <mxGeometry x="-1" y="3" relative="1" as="geometry">
            <mxPoint x="10" y="260" as="sourcePoint" />
            <mxPoint x="140" y="260" as="targetPoint" />
          </mxGeometry>
        </mxCell>
        <mxCell id="Qrg4ncD-vOtdzRJObZiR-3" value="盖亚后台配置策略" style="text;html=1;strokeColor=none;fillColor=none;align=center;verticalAlign=middle;whiteSpace=wrap;rounded=0;" parent="MhqtkSOCvvF7JMtFQgt9-1" vertex="1">
          <mxGeometry x="30" y="230" width="80" height="30" as="geometry" />
        </mxCell>
        <mxCell id="Qrg4ncD-vOtdzRJObZiR-13" value="" style="endArrow=open;html=1;endSize=12;startArrow=diamondThin;startSize=14;startFill=0;edgeStyle=orthogonalEdgeStyle;align=left;verticalAlign=bottom;rounded=0;" parent="MhqtkSOCvvF7JMtFQgt9-1" edge="1">
          <mxGeometry y="20" relative="1" as="geometry">
            <mxPoint x="556.2500000000005" y="861" as="sourcePoint" />
            <mxPoint x="689.75" y="861" as="targetPoint" />
            <mxPoint x="-1" as="offset" />
            <Array as="points">
              <mxPoint x="667.25" y="861" />
              <mxPoint x="667.25" y="861" />
            </Array>
          </mxGeometry>
        </mxCell>
        <mxCell id="Qrg4ncD-vOtdzRJObZiR-15" value="11.b 下层节点是等待器&lt;br&gt;发送等待消息&amp;nbsp;" style="text;html=1;strokeColor=none;fillColor=none;align=center;verticalAlign=middle;whiteSpace=wrap;rounded=0;" parent="MhqtkSOCvvF7JMtFQgt9-1" vertex="1">
          <mxGeometry x="665.83" y="1117" width="198" height="40" as="geometry" />
        </mxCell>
        <mxCell id="Qrg4ncD-vOtdzRJObZiR-16" value="" style="endArrow=open;html=1;endSize=12;startArrow=diamondThin;startSize=14;startFill=0;edgeStyle=orthogonalEdgeStyle;align=left;verticalAlign=bottom;rounded=0;" parent="MhqtkSOCvvF7JMtFQgt9-1" edge="1">
          <mxGeometry y="20" relative="1" as="geometry">
            <mxPoint x="689.0800000000005" y="1073.0000000000002" as="sourcePoint" />
            <mxPoint x="817.83" y="1073" as="targetPoint" />
            <mxPoint x="-1" as="offset" />
            <Array as="points">
              <mxPoint x="800.08" y="1073" />
              <mxPoint x="800.08" y="1073" />
            </Array>
          </mxGeometry>
        </mxCell>
        <mxCell id="Qrg4ncD-vOtdzRJObZiR-17" value="11.a下层节点是策略器&lt;br&gt;发送停留消息，等待4被触发" style="text;html=1;strokeColor=none;fillColor=none;align=center;verticalAlign=middle;whiteSpace=wrap;rounded=0;" parent="MhqtkSOCvvF7JMtFQgt9-1" vertex="1">
          <mxGeometry x="676" y="1031" width="191" height="40" as="geometry" />
        </mxCell>
        <mxCell id="Qrg4ncD-vOtdzRJObZiR-18" value="" style="endArrow=open;html=1;endSize=12;startArrow=diamondThin;startSize=14;startFill=0;edgeStyle=orthogonalEdgeStyle;align=left;verticalAlign=bottom;rounded=0;dashed=1;dashPattern=1 1;" parent="MhqtkSOCvvF7JMtFQgt9-1" edge="1">
          <mxGeometry y="20" relative="1" as="geometry">
            <mxPoint x="817.33" y="1114.0666666666666" as="sourcePoint" />
            <mxPoint x="416.9966666666665" y="1114.0666666666666" as="targetPoint" />
            <mxPoint x="-1" as="offset" />
            <Array as="points">
              <mxPoint x="547.83" y="1114" />
              <mxPoint x="547.83" y="1114" />
            </Array>
          </mxGeometry>
        </mxCell>
        <mxCell id="Qrg4ncD-vOtdzRJObZiR-19" value="11.a 到达执行时间发送定时任务 跳至6" style="text;html=1;strokeColor=none;fillColor=none;align=center;verticalAlign=middle;whiteSpace=wrap;rounded=0;" parent="MhqtkSOCvvF7JMtFQgt9-1" vertex="1">
          <mxGeometry x="570.83" y="1079" width="227" height="40" as="geometry" />
        </mxCell>
        <mxCell id="Qrg4ncD-vOtdzRJObZiR-21" value="" style="endArrow=open;html=1;endSize=12;startArrow=diamondThin;startSize=14;startFill=0;edgeStyle=orthogonalEdgeStyle;align=left;verticalAlign=bottom;rounded=0;dashed=1;dashPattern=1 1;" parent="MhqtkSOCvvF7JMtFQgt9-1" edge="1">
          <mxGeometry y="20" relative="1" as="geometry">
            <mxPoint x="820" y="1215.31" as="sourcePoint" />
            <mxPoint x="558.6666666666665" y="1215.31" as="targetPoint" />
            <mxPoint x="-1" as="offset" />
            <Array as="points">
              <mxPoint x="620.5" y="1215.31" />
              <mxPoint x="620.5" y="1215.31" />
            </Array>
          </mxGeometry>
        </mxCell>
        <mxCell id="Qrg4ncD-vOtdzRJObZiR-22" value="11.b 到达执行时间发送等待完成事件，跳至11" style="text;html=1;strokeColor=none;fillColor=none;align=center;verticalAlign=middle;whiteSpace=wrap;rounded=0;" parent="MhqtkSOCvvF7JMtFQgt9-1" vertex="1">
          <mxGeometry x="607.33" y="1171.25" width="150.5" height="40" as="geometry" />
        </mxCell>
        <mxCell id="Qrg4ncD-vOtdzRJObZiR-25" value="7 获取状态跃迁信息" style="text;html=1;strokeColor=none;fillColor=none;align=center;verticalAlign=middle;whiteSpace=wrap;rounded=0;" parent="MhqtkSOCvvF7JMtFQgt9-1" vertex="1">
          <mxGeometry x="671" y="610" width="170" height="30" as="geometry" />
        </mxCell>
        <mxCell id="Qrg4ncD-vOtdzRJObZiR-28" value="11. 更新DAG关系" style="text;html=1;strokeColor=none;fillColor=none;align=center;verticalAlign=middle;whiteSpace=wrap;rounded=0;" parent="MhqtkSOCvvF7JMtFQgt9-1" vertex="1">
          <mxGeometry x="680" y="869" width="168" height="40" as="geometry" />
        </mxCell>
        <mxCell id="Qrg4ncD-vOtdzRJObZiR-30" value="" style="shape=curlyBracket;whiteSpace=wrap;html=1;rounded=1;flipH=1;fontColor=#000000;strokeWidth=2;" parent="MhqtkSOCvvF7JMtFQgt9-1" vertex="1">
          <mxGeometry x="1010" y="836.5" width="20" height="403.5" as="geometry" />
        </mxCell>
        <mxCell id="Qrg4ncD-vOtdzRJObZiR-35" value="&lt;font style=&quot;font-size: 12px&quot;&gt;状态跃迁&lt;/font&gt;" style="text;strokeColor=none;fillColor=none;html=1;fontSize=24;fontStyle=1;verticalAlign=middle;align=center;fontColor=#000000;" parent="MhqtkSOCvvF7JMtFQgt9-1" vertex="1">
          <mxGeometry x="359" y="704" width="70" height="40" as="geometry" />
        </mxCell>
        <mxCell id="Qrg4ncD-vOtdzRJObZiR-24" value="" style="endArrow=open;html=1;endSize=12;startArrow=diamondThin;startSize=14;startFill=0;edgeStyle=orthogonalEdgeStyle;align=left;verticalAlign=bottom;rounded=0;" parent="MhqtkSOCvvF7JMtFQgt9-1" edge="1">
          <mxGeometry y="20" relative="1" as="geometry">
            <mxPoint x="692.0000000000005" y="636" as="sourcePoint" />
            <mxPoint x="949.5" y="636" as="targetPoint" />
            <mxPoint x="-1" as="offset" />
            <Array as="points">
              <mxPoint x="880" y="636" />
              <mxPoint x="880" y="636" />
            </Array>
          </mxGeometry>
        </mxCell>
        <mxCell id="Qrg4ncD-vOtdzRJObZiR-31" value="&lt;b&gt;轨&lt;br&gt;迹&lt;br&gt;跃&lt;br&gt;迁&lt;/b&gt;" style="text;html=1;strokeColor=none;fillColor=none;align=center;verticalAlign=middle;whiteSpace=wrap;rounded=0;" parent="MhqtkSOCvvF7JMtFQgt9-1" vertex="1">
          <mxGeometry x="1030" y="1009" width="50" height="70" as="geometry" />
        </mxCell>
        <mxCell id="nGZLMsFJj8k745PRj4iu-6" value="" style="endArrow=open;html=1;endSize=12;startArrow=diamondThin;startSize=14;startFill=0;edgeStyle=orthogonalEdgeStyle;align=left;verticalAlign=bottom;rounded=0;" edge="1" parent="MhqtkSOCvvF7JMtFQgt9-1">
          <mxGeometry x="-1" y="3" relative="1" as="geometry">
            <mxPoint x="420.01" y="660" as="sourcePoint" />
            <mxPoint x="418.97153846153856" y="690.0769230769229" as="targetPoint" />
            <Array as="points">
              <mxPoint x="510.01" y="660" />
              <mxPoint x="510.01" y="690" />
            </Array>
          </mxGeometry>
        </mxCell>
        <mxCell id="nGZLMsFJj8k745PRj4iu-7" value="状态未跃迁直接Return" style="text;html=1;strokeColor=none;fillColor=none;align=center;verticalAlign=middle;whiteSpace=wrap;rounded=0;" vertex="1" parent="MhqtkSOCvvF7JMtFQgt9-1">
          <mxGeometry x="426" y="630" width="170" height="30" as="geometry" />
        </mxCell>
        <mxCell id="Qrg4ncD-vOtdzRJObZiR-40" value="&amp;nbsp;判断目标是否达成，达成目标 退出" style="text;html=1;strokeColor=none;fillColor=none;align=center;verticalAlign=middle;whiteSpace=wrap;rounded=0;" parent="MhqtkSOCvvF7JMtFQgt9-1" vertex="1">
          <mxGeometry x="690" y="920" width="300" height="40" as="geometry" />
        </mxCell>
      </root>
    </mxGraphModel>
  </diagram>
  <diagram name="Page-8" id="1k9lMU652MU-rsnkTxiU">
    <mxGraphModel dx="946" dy="557" grid="1" gridSize="10" guides="1" tooltips="1" connect="1" arrows="1" fold="1" page="1" pageScale="1" pageWidth="850" pageHeight="1100" math="0" shadow="0">
      <root>
        <mxCell id="yXDH0oRyd6vMobtHPtSY-0" />
        <mxCell id="yXDH0oRyd6vMobtHPtSY-1" parent="yXDH0oRyd6vMobtHPtSY-0" />
        <mxCell id="rUmdGjMmmeIC6B4pgKzY-82" value="" style="rounded=0;whiteSpace=wrap;html=1;dashed=1;fillColor=#f5f5f5;strokeColor=#666666;fontColor=#333333;dashPattern=1 1;" parent="yXDH0oRyd6vMobtHPtSY-1" vertex="1">
          <mxGeometry x="950" y="200" width="1050" height="400" as="geometry" />
        </mxCell>
        <mxCell id="rUmdGjMmmeIC6B4pgKzY-103" style="edgeStyle=orthogonalEdgeStyle;rounded=0;orthogonalLoop=1;jettySize=auto;html=1;exitX=1;exitY=0.5;exitDx=0;exitDy=0;entryX=0.5;entryY=0;entryDx=0;entryDy=0;fontColor=#000000;" parent="yXDH0oRyd6vMobtHPtSY-1" source="rUmdGjMmmeIC6B4pgKzY-101" target="rUmdGjMmmeIC6B4pgKzY-61" edge="1">
          <mxGeometry relative="1" as="geometry" />
        </mxCell>
        <mxCell id="rUmdGjMmmeIC6B4pgKzY-101" value="" style="rounded=0;whiteSpace=wrap;html=1;dashed=1;dashPattern=1 1;strokeWidth=1;fillColor=#dae8fc;strokeColor=#6c8ebf;" parent="yXDH0oRyd6vMobtHPtSY-1" vertex="1">
          <mxGeometry x="1162" width="358" height="110" as="geometry" />
        </mxCell>
        <mxCell id="rUmdGjMmmeIC6B4pgKzY-75" style="edgeStyle=orthogonalEdgeStyle;rounded=0;orthogonalLoop=1;jettySize=auto;html=1;exitX=0.5;exitY=0;exitDx=0;exitDy=0;entryX=0.5;entryY=1;entryDx=0;entryDy=0;fontColor=#000000;" parent="yXDH0oRyd6vMobtHPtSY-1" source="rUmdGjMmmeIC6B4pgKzY-73" target="rUmdGjMmmeIC6B4pgKzY-61" edge="1">
          <mxGeometry relative="1" as="geometry" />
        </mxCell>
        <mxCell id="rUmdGjMmmeIC6B4pgKzY-73" value="" style="rounded=0;whiteSpace=wrap;html=1;strokeWidth=2;fillColor=#d5e8d4;strokeColor=#82b366;" parent="yXDH0oRyd6vMobtHPtSY-1" vertex="1">
          <mxGeometry x="1510" y="475" width="380" height="120" as="geometry" />
        </mxCell>
        <mxCell id="FMplp9FgPgl24mxet8NA-5" style="edgeStyle=orthogonalEdgeStyle;rounded=0;orthogonalLoop=1;jettySize=auto;html=1;exitX=0.75;exitY=1;exitDx=0;exitDy=0;entryX=0;entryY=0.25;entryDx=0;entryDy=0;fontColor=#000000;" parent="yXDH0oRyd6vMobtHPtSY-1" source="rUmdGjMmmeIC6B4pgKzY-67" target="rUmdGjMmmeIC6B4pgKzY-70" edge="1">
          <mxGeometry relative="1" as="geometry" />
        </mxCell>
        <mxCell id="rUmdGjMmmeIC6B4pgKzY-67" value="" style="rounded=0;whiteSpace=wrap;html=1;strokeWidth=2;fillColor=#dae8fc;strokeColor=#6c8ebf;" parent="yXDH0oRyd6vMobtHPtSY-1" vertex="1">
          <mxGeometry x="960" y="248" width="490" height="120" as="geometry" />
        </mxCell>
        <mxCell id="rUmdGjMmmeIC6B4pgKzY-45" value="跃迁引擎事件Consumer" style="text;html=1;strokeColor=none;fillColor=none;align=center;verticalAlign=middle;whiteSpace=wrap;rounded=0;dashed=1;" parent="yXDH0oRyd6vMobtHPtSY-1" vertex="1">
          <mxGeometry x="1200" y="253" width="140" height="30" as="geometry" />
        </mxCell>
        <mxCell id="rUmdGjMmmeIC6B4pgKzY-48" value="多策略编排服务" style="text;html=1;strokeColor=none;fillColor=none;align=center;verticalAlign=middle;whiteSpace=wrap;rounded=0;dashed=1;" parent="yXDH0oRyd6vMobtHPtSY-1" vertex="1">
          <mxGeometry x="1410" y="211" width="120" height="30" as="geometry" />
        </mxCell>
        <mxCell id="rUmdGjMmmeIC6B4pgKzY-51" value="RPC服务进程" style="text;html=1;strokeColor=none;fillColor=none;align=center;verticalAlign=middle;whiteSpace=wrap;rounded=0;dashed=1;" parent="yXDH0oRyd6vMobtHPtSY-1" vertex="1">
          <mxGeometry x="1590" y="306" width="120" height="30" as="geometry" />
        </mxCell>
        <mxCell id="rUmdGjMmmeIC6B4pgKzY-61" value="" style="rounded=0;whiteSpace=wrap;html=1;strokeWidth=2;fillColor=#d5e8d4;strokeColor=#82b366;" parent="yXDH0oRyd6vMobtHPtSY-1" vertex="1">
          <mxGeometry x="1510" y="246" width="380" height="120" as="geometry" />
        </mxCell>
        <mxCell id="rUmdGjMmmeIC6B4pgKzY-62" value="Http API" style="rounded=0;whiteSpace=wrap;html=1;fillColor=#dae8fc;strokeColor=#6c8ebf;" parent="yXDH0oRyd6vMobtHPtSY-1" vertex="1">
          <mxGeometry x="1530" y="281" width="140" height="70" as="geometry" />
        </mxCell>
        <mxCell id="rUmdGjMmmeIC6B4pgKzY-63" value="HSF API" style="rounded=0;whiteSpace=wrap;html=1;fillColor=#dae8fc;strokeColor=#6c8ebf;" parent="yXDH0oRyd6vMobtHPtSY-1" vertex="1">
          <mxGeometry x="1740" y="281" width="140" height="70" as="geometry" />
        </mxCell>
        <mxCell id="rUmdGjMmmeIC6B4pgKzY-64" value="RPC服务" style="text;html=1;strokeColor=none;fillColor=none;align=center;verticalAlign=middle;whiteSpace=wrap;rounded=0;dashed=1;" parent="yXDH0oRyd6vMobtHPtSY-1" vertex="1">
          <mxGeometry x="1650" y="251" width="120" height="30" as="geometry" />
        </mxCell>
        <mxCell id="rUmdGjMmmeIC6B4pgKzY-65" value="等待节点完成事件Consumer" style="rounded=0;whiteSpace=wrap;html=1;fillColor=#fff2cc;strokeColor=#d6b656;" parent="yXDH0oRyd6vMobtHPtSY-1" vertex="1">
          <mxGeometry x="1130" y="285" width="140" height="70" as="geometry" />
        </mxCell>
        <mxCell id="rUmdGjMmmeIC6B4pgKzY-66" value="策略节点完成事件Consumer" style="rounded=0;whiteSpace=wrap;html=1;fillColor=#fff2cc;strokeColor=#d6b656;" parent="yXDH0oRyd6vMobtHPtSY-1" vertex="1">
          <mxGeometry x="1290" y="283" width="140" height="70" as="geometry" />
        </mxCell>
        <mxCell id="FMplp9FgPgl24mxet8NA-2" style="edgeStyle=orthogonalEdgeStyle;rounded=0;orthogonalLoop=1;jettySize=auto;html=1;exitX=0;exitY=0.75;exitDx=0;exitDy=0;entryX=1;entryY=0.75;entryDx=0;entryDy=0;fontColor=#000000;dashed=1;" parent="yXDH0oRyd6vMobtHPtSY-1" source="rUmdGjMmmeIC6B4pgKzY-70" target="rUmdGjMmmeIC6B4pgKzY-78" edge="1">
          <mxGeometry relative="1" as="geometry" />
        </mxCell>
        <mxCell id="rUmdGjMmmeIC6B4pgKzY-70" value="跃迁轨迹更新" style="rounded=0;whiteSpace=wrap;html=1;fillColor=#dae8fc;strokeColor=#6c8ebf;" parent="yXDH0oRyd6vMobtHPtSY-1" vertex="1">
          <mxGeometry x="1540" y="505" width="140" height="70" as="geometry" />
        </mxCell>
        <mxCell id="rUmdGjMmmeIC6B4pgKzY-71" value="跃迁轨迹查询" style="rounded=0;whiteSpace=wrap;html=1;fillColor=#dae8fc;strokeColor=#6c8ebf;" parent="yXDH0oRyd6vMobtHPtSY-1" vertex="1">
          <mxGeometry x="1740" y="505" width="140" height="70" as="geometry" />
        </mxCell>
        <mxCell id="rUmdGjMmmeIC6B4pgKzY-72" value="跃迁引擎core" style="text;html=1;strokeColor=none;fillColor=none;align=center;verticalAlign=middle;whiteSpace=wrap;rounded=0;dashed=1;" parent="yXDH0oRyd6vMobtHPtSY-1" vertex="1">
          <mxGeometry x="1650" y="479" width="120" height="30" as="geometry" />
        </mxCell>
        <mxCell id="rUmdGjMmmeIC6B4pgKzY-99" style="edgeStyle=orthogonalEdgeStyle;rounded=0;orthogonalLoop=1;jettySize=auto;html=1;exitX=0.5;exitY=1;exitDx=0;exitDy=0;entryX=0.445;entryY=0.021;entryDx=0;entryDy=0;entryPerimeter=0;fontColor=#000000;dashed=1;" parent="yXDH0oRyd6vMobtHPtSY-1" source="rUmdGjMmmeIC6B4pgKzY-77" target="rUmdGjMmmeIC6B4pgKzY-66" edge="1">
          <mxGeometry relative="1" as="geometry" />
        </mxCell>
        <mxCell id="rUmdGjMmmeIC6B4pgKzY-77" value="在线引擎" style="rounded=0;whiteSpace=wrap;html=1;fillColor=#D5E8D4;" parent="yXDH0oRyd6vMobtHPtSY-1" vertex="1">
          <mxGeometry x="1360" y="30" width="120" height="60" as="geometry" />
        </mxCell>
        <mxCell id="rUmdGjMmmeIC6B4pgKzY-92" style="edgeStyle=orthogonalEdgeStyle;rounded=0;orthogonalLoop=1;jettySize=auto;html=1;exitX=0.5;exitY=0;exitDx=0;exitDy=0;entryX=0.453;entryY=1.005;entryDx=0;entryDy=0;entryPerimeter=0;dashed=1;fontColor=#000000;" parent="yXDH0oRyd6vMobtHPtSY-1" source="rUmdGjMmmeIC6B4pgKzY-78" target="rUmdGjMmmeIC6B4pgKzY-65" edge="1">
          <mxGeometry relative="1" as="geometry" />
        </mxCell>
        <mxCell id="rUmdGjMmmeIC6B4pgKzY-106" style="edgeStyle=orthogonalEdgeStyle;rounded=0;orthogonalLoop=1;jettySize=auto;html=1;exitX=0;exitY=0.5;exitDx=0;exitDy=0;entryX=0;entryY=0.5;entryDx=0;entryDy=0;fontColor=#000000;dashed=1;" parent="yXDH0oRyd6vMobtHPtSY-1" source="rUmdGjMmmeIC6B4pgKzY-78" target="rUmdGjMmmeIC6B4pgKzY-93" edge="1">
          <mxGeometry relative="1" as="geometry">
            <Array as="points">
              <mxPoint x="920" y="555" />
              <mxPoint x="920" y="60" />
            </Array>
          </mxGeometry>
        </mxCell>
        <mxCell id="rUmdGjMmmeIC6B4pgKzY-78" value="等待器" style="rounded=0;whiteSpace=wrap;html=1;fillColor=#dae8fc;strokeColor=#6c8ebf;" parent="yXDH0oRyd6vMobtHPtSY-1" vertex="1">
          <mxGeometry x="1134" y="513" width="120" height="60" as="geometry" />
        </mxCell>
        <mxCell id="rUmdGjMmmeIC6B4pgKzY-81" value="等待消息&amp;amp;&amp;amp;停留消息" style="text;html=1;strokeColor=none;fillColor=none;align=center;verticalAlign=middle;whiteSpace=wrap;rounded=0;dashed=1;" parent="yXDH0oRyd6vMobtHPtSY-1" vertex="1">
          <mxGeometry x="1300" y="535" width="120" height="30" as="geometry" />
        </mxCell>
        <mxCell id="rUmdGjMmmeIC6B4pgKzY-87" value="MQ" style="text;html=1;strokeColor=none;fillColor=none;align=center;verticalAlign=middle;whiteSpace=wrap;rounded=0;dashed=1;" parent="yXDH0oRyd6vMobtHPtSY-1" vertex="1">
          <mxGeometry x="1282" y="150" width="120" height="30" as="geometry" />
        </mxCell>
        <mxCell id="rUmdGjMmmeIC6B4pgKzY-98" style="edgeStyle=orthogonalEdgeStyle;rounded=0;orthogonalLoop=1;jettySize=auto;html=1;exitX=0.5;exitY=1;exitDx=0;exitDy=0;entryX=0.445;entryY=0.005;entryDx=0;entryDy=0;entryPerimeter=0;fontColor=#000000;dashed=1;" parent="yXDH0oRyd6vMobtHPtSY-1" source="rUmdGjMmmeIC6B4pgKzY-93" target="rUmdGjMmmeIC6B4pgKzY-66" edge="1">
          <mxGeometry relative="1" as="geometry" />
        </mxCell>
        <mxCell id="rUmdGjMmmeIC6B4pgKzY-93" value="离线引擎" style="rounded=0;whiteSpace=wrap;html=1;fillColor=#D5E8D4;" parent="yXDH0oRyd6vMobtHPtSY-1" vertex="1">
          <mxGeometry x="1197" y="30" width="120" height="60" as="geometry" />
        </mxCell>
        <mxCell id="rUmdGjMmmeIC6B4pgKzY-95" value="MQ" style="text;html=1;strokeColor=none;fillColor=none;align=center;verticalAlign=middle;whiteSpace=wrap;rounded=0;dashed=1;" parent="yXDH0oRyd6vMobtHPtSY-1" vertex="1">
          <mxGeometry x="1150" y="445" width="120" height="30" as="geometry" />
        </mxCell>
        <mxCell id="rUmdGjMmmeIC6B4pgKzY-97" value="兜底任务执行" style="text;html=1;strokeColor=none;fillColor=none;align=center;verticalAlign=middle;whiteSpace=wrap;rounded=0;dashed=1;" parent="yXDH0oRyd6vMobtHPtSY-1" vertex="1">
          <mxGeometry x="1030" y="30" width="120" height="30" as="geometry" />
        </mxCell>
        <mxCell id="rUmdGjMmmeIC6B4pgKzY-102" value="投放引擎" style="text;html=1;strokeColor=none;fillColor=none;align=center;verticalAlign=middle;whiteSpace=wrap;rounded=0;dashed=1;" parent="yXDH0oRyd6vMobtHPtSY-1" vertex="1">
          <mxGeometry x="1275" width="120" height="30" as="geometry" />
        </mxCell>
        <mxCell id="rUmdGjMmmeIC6B4pgKzY-104" value="API" style="text;html=1;strokeColor=none;fillColor=none;align=center;verticalAlign=middle;whiteSpace=wrap;rounded=0;dashed=1;" parent="yXDH0oRyd6vMobtHPtSY-1" vertex="1">
          <mxGeometry x="1550" y="30" width="120" height="30" as="geometry" />
        </mxCell>
        <mxCell id="FMplp9FgPgl24mxet8NA-7" style="edgeStyle=orthogonalEdgeStyle;rounded=0;orthogonalLoop=1;jettySize=auto;html=1;exitX=0.5;exitY=1;exitDx=0;exitDy=0;entryX=0;entryY=0.5;entryDx=0;entryDy=0;dashed=1;fontColor=#000000;" parent="yXDH0oRyd6vMobtHPtSY-1" source="FMplp9FgPgl24mxet8NA-0" target="FMplp9FgPgl24mxet8NA-1" edge="1">
          <mxGeometry relative="1" as="geometry" />
        </mxCell>
        <mxCell id="FMplp9FgPgl24mxet8NA-0" value="定时扫描" style="rounded=0;whiteSpace=wrap;html=1;dashed=1;fillColor=#f8cecc;strokeColor=#b85450;" parent="yXDH0oRyd6vMobtHPtSY-1" vertex="1">
          <mxGeometry x="760" y="40" width="120" height="60" as="geometry" />
        </mxCell>
        <mxCell id="FMplp9FgPgl24mxet8NA-1" value="目标完成事件&lt;br&gt;Consumer" style="rounded=0;whiteSpace=wrap;html=1;fillColor=#f8cecc;strokeColor=#b85450;dashed=1;" parent="yXDH0oRyd6vMobtHPtSY-1" vertex="1">
          <mxGeometry x="977" y="283" width="140" height="70" as="geometry" />
        </mxCell>
        <mxCell id="FMplp9FgPgl24mxet8NA-6" value="内部调用" style="text;html=1;strokeColor=none;fillColor=none;align=center;verticalAlign=middle;whiteSpace=wrap;rounded=0;dashed=1;" parent="yXDH0oRyd6vMobtHPtSY-1" vertex="1">
          <mxGeometry x="1360" y="500" width="120" height="30" as="geometry" />
        </mxCell>
        <mxCell id="uRs4W3y_FABtzYTXUugw-2" value="&lt;b&gt;停留消息&lt;/b&gt;：&lt;span&gt;等待器收到停留消息后，到达停留时间后，发送兜底任务至离线引擎。&lt;/span&gt;" style="text;html=1;strokeColor=none;fillColor=none;align=center;verticalAlign=middle;whiteSpace=wrap;rounded=0;fontSize=12;fontColor=#000000;" vertex="1" parent="yXDH0oRyd6vMobtHPtSY-1">
          <mxGeometry x="2125" y="610" width="475" height="30" as="geometry" />
        </mxCell>
        <mxCell id="uRs4W3y_FABtzYTXUugw-4" value="&lt;b&gt;等待消息&lt;/b&gt;：等待&lt;span&gt;器收到等待消息后，到达执行时间后，发送等待节点完成事件回跃迁引擎&lt;/span&gt;" style="text;html=1;strokeColor=none;fillColor=none;align=center;verticalAlign=middle;whiteSpace=wrap;rounded=0;fontSize=12;fontColor=#000000;" vertex="1" parent="yXDH0oRyd6vMobtHPtSY-1">
          <mxGeometry x="2133" y="640" width="495" height="30" as="geometry" />
        </mxCell>
      </root>
    </mxGraphModel>
  </diagram>
  <diagram name="Page-9" id="-qX1zntvRividhvZpqOv">
    <mxGraphModel dx="946" dy="557" grid="1" gridSize="10" guides="1" tooltips="1" connect="1" arrows="1" fold="1" page="1" pageScale="1" pageWidth="850" pageHeight="1100" math="0" shadow="0">
      <root>
        <mxCell id="YtsTQeswsm0jsMoOUH_d-0" />
        <mxCell id="YtsTQeswsm0jsMoOUH_d-1" parent="YtsTQeswsm0jsMoOUH_d-0" />
        <mxCell id="2VdqKx8Owr7AcIRzdqmv-49" style="edgeStyle=orthogonalEdgeStyle;rounded=0;orthogonalLoop=1;jettySize=auto;html=1;exitX=1;exitY=0.5;exitDx=0;exitDy=0;entryX=1;entryY=0.4;entryDx=0;entryDy=0;entryPerimeter=0;fontSize=12;fontColor=#000000;" parent="YtsTQeswsm0jsMoOUH_d-1" source="YtsTQeswsm0jsMoOUH_d-2" target="YtsTQeswsm0jsMoOUH_d-6" edge="1">
          <mxGeometry relative="1" as="geometry" />
        </mxCell>
        <mxCell id="YtsTQeswsm0jsMoOUH_d-2" value="待投放" style="rounded=1;whiteSpace=wrap;html=1;strokeWidth=1;fillColor=#d5e8d4;strokeColor=#82b366;" parent="YtsTQeswsm0jsMoOUH_d-1" vertex="1">
          <mxGeometry x="390" y="580" width="120" height="60" as="geometry" />
        </mxCell>
        <mxCell id="2VdqKx8Owr7AcIRzdqmv-34" style="edgeStyle=orthogonalEdgeStyle;rounded=0;orthogonalLoop=1;jettySize=auto;html=1;exitX=0;exitY=0.5;exitDx=0;exitDy=0;entryX=0;entryY=0.5;entryDx=0;entryDy=0;fontSize=12;fontColor=#000000;" parent="YtsTQeswsm0jsMoOUH_d-1" source="YtsTQeswsm0jsMoOUH_d-4" target="YtsTQeswsm0jsMoOUH_d-6" edge="1">
          <mxGeometry relative="1" as="geometry" />
        </mxCell>
        <mxCell id="YtsTQeswsm0jsMoOUH_d-4" value="等待中" style="rounded=1;whiteSpace=wrap;html=1;strokeWidth=1;fillColor=#d5e8d4;strokeColor=#82b366;" parent="YtsTQeswsm0jsMoOUH_d-1" vertex="1">
          <mxGeometry x="160" y="580" width="120" height="60" as="geometry" />
        </mxCell>
        <mxCell id="2VdqKx8Owr7AcIRzdqmv-13" style="edgeStyle=orthogonalEdgeStyle;rounded=0;orthogonalLoop=1;jettySize=auto;html=1;exitX=0.5;exitY=1;exitDx=0;exitDy=0;fontSize=12;fontColor=#000000;" parent="YtsTQeswsm0jsMoOUH_d-1" source="YtsTQeswsm0jsMoOUH_d-6" target="YtsTQeswsm0jsMoOUH_d-11" edge="1">
          <mxGeometry relative="1" as="geometry" />
        </mxCell>
        <mxCell id="YtsTQeswsm0jsMoOUH_d-6" value="节点完成" style="rounded=1;whiteSpace=wrap;html=1;strokeWidth=1;fillColor=#dae8fc;strokeColor=#6c8ebf;" parent="YtsTQeswsm0jsMoOUH_d-1" vertex="1">
          <mxGeometry x="260" y="100" width="120" height="60" as="geometry" />
        </mxCell>
        <mxCell id="2VdqKx8Owr7AcIRzdqmv-25" style="edgeStyle=orthogonalEdgeStyle;rounded=0;orthogonalLoop=1;jettySize=auto;html=1;exitX=0.5;exitY=1;exitDx=0;exitDy=0;entryX=0.5;entryY=0;entryDx=0;entryDy=0;fontSize=12;fontColor=#000000;" parent="YtsTQeswsm0jsMoOUH_d-1" source="YtsTQeswsm0jsMoOUH_d-11" target="2VdqKx8Owr7AcIRzdqmv-22" edge="1">
          <mxGeometry relative="1" as="geometry" />
        </mxCell>
        <mxCell id="2VdqKx8Owr7AcIRzdqmv-26" value="否" style="edgeLabel;html=1;align=center;verticalAlign=middle;resizable=0;points=[];fontSize=12;fontColor=#000000;" parent="2VdqKx8Owr7AcIRzdqmv-25" vertex="1" connectable="0">
          <mxGeometry x="-0.1778" y="-1" relative="1" as="geometry">
            <mxPoint as="offset" />
          </mxGeometry>
        </mxCell>
        <mxCell id="lAN6AShTxT8Y7kBn5asG-1" style="edgeStyle=orthogonalEdgeStyle;rounded=0;orthogonalLoop=1;jettySize=auto;html=1;exitX=1;exitY=0.5;exitDx=0;exitDy=0;dashed=1;" edge="1" parent="YtsTQeswsm0jsMoOUH_d-1" source="YtsTQeswsm0jsMoOUH_d-11" target="lAN6AShTxT8Y7kBn5asG-0">
          <mxGeometry relative="1" as="geometry" />
        </mxCell>
        <mxCell id="lAN6AShTxT8Y7kBn5asG-2" value="是" style="edgeLabel;html=1;align=center;verticalAlign=middle;resizable=0;points=[];" vertex="1" connectable="0" parent="lAN6AShTxT8Y7kBn5asG-1">
          <mxGeometry x="-0.8581" relative="1" as="geometry">
            <mxPoint as="offset" />
          </mxGeometry>
        </mxCell>
        <mxCell id="YtsTQeswsm0jsMoOUH_d-11" value="达成目标" style="rhombus;whiteSpace=wrap;html=1;strokeWidth=1;fillColor=#f5f5f5;fontColor=#333333;strokeColor=#666666;" parent="YtsTQeswsm0jsMoOUH_d-1" vertex="1">
          <mxGeometry x="280" y="220" width="80" height="90" as="geometry" />
        </mxCell>
        <mxCell id="YtsTQeswsm0jsMoOUH_d-12" value="退出结束" style="rounded=1;whiteSpace=wrap;html=1;strokeWidth=1;fillColor=#f8cecc;strokeColor=#b85450;" parent="YtsTQeswsm0jsMoOUH_d-1" vertex="1">
          <mxGeometry x="260" y="740" width="120" height="60" as="geometry" />
        </mxCell>
        <mxCell id="2VdqKx8Owr7AcIRzdqmv-39" style="edgeStyle=orthogonalEdgeStyle;rounded=0;orthogonalLoop=1;jettySize=auto;html=1;exitX=0;exitY=0.5;exitDx=0;exitDy=0;fontSize=12;fontColor=#000000;" parent="YtsTQeswsm0jsMoOUH_d-1" source="2VdqKx8Owr7AcIRzdqmv-22" target="YtsTQeswsm0jsMoOUH_d-4" edge="1">
          <mxGeometry relative="1" as="geometry" />
        </mxCell>
        <mxCell id="2VdqKx8Owr7AcIRzdqmv-40" style="edgeStyle=orthogonalEdgeStyle;rounded=0;orthogonalLoop=1;jettySize=auto;html=1;exitX=1;exitY=0.5;exitDx=0;exitDy=0;fontSize=12;fontColor=#000000;" parent="YtsTQeswsm0jsMoOUH_d-1" source="2VdqKx8Owr7AcIRzdqmv-22" target="YtsTQeswsm0jsMoOUH_d-2" edge="1">
          <mxGeometry relative="1" as="geometry" />
        </mxCell>
        <mxCell id="2VdqKx8Owr7AcIRzdqmv-46" style="edgeStyle=orthogonalEdgeStyle;rounded=0;orthogonalLoop=1;jettySize=auto;html=1;exitX=0.5;exitY=1;exitDx=0;exitDy=0;entryX=0.5;entryY=0;entryDx=0;entryDy=0;fontSize=12;fontColor=#000000;" parent="YtsTQeswsm0jsMoOUH_d-1" source="2VdqKx8Owr7AcIRzdqmv-22" target="YtsTQeswsm0jsMoOUH_d-12" edge="1">
          <mxGeometry relative="1" as="geometry" />
        </mxCell>
        <mxCell id="2VdqKx8Owr7AcIRzdqmv-48" value="否" style="edgeLabel;html=1;align=center;verticalAlign=middle;resizable=0;points=[];fontSize=12;fontColor=#000000;" parent="2VdqKx8Owr7AcIRzdqmv-46" vertex="1" connectable="0">
          <mxGeometry x="-0.6486" relative="1" as="geometry">
            <mxPoint as="offset" />
          </mxGeometry>
        </mxCell>
        <mxCell id="2VdqKx8Owr7AcIRzdqmv-22" value="是否存在下级节点" style="rhombus;whiteSpace=wrap;html=1;strokeWidth=1;fillColor=#f5f5f5;fontColor=#333333;strokeColor=#666666;" parent="YtsTQeswsm0jsMoOUH_d-1" vertex="1">
          <mxGeometry x="280" y="400" width="80" height="90" as="geometry" />
        </mxCell>
        <mxCell id="lAN6AShTxT8Y7kBn5asG-0" value="达成目标结束" style="rounded=1;whiteSpace=wrap;html=1;strokeWidth=1;fillColor=#f8cecc;strokeColor=#b85450;" vertex="1" parent="YtsTQeswsm0jsMoOUH_d-1">
          <mxGeometry x="600" y="740" width="120" height="60" as="geometry" />
        </mxCell>
      </root>
    </mxGraphModel>
  </diagram>
  <diagram name="Page-10" id="PN-QYn_09TMq_fafTDQe">
    <mxGraphModel dx="946" dy="557" grid="1" gridSize="10" guides="1" tooltips="1" connect="1" arrows="1" fold="1" page="1" pageScale="1" pageWidth="850" pageHeight="1100" math="0" shadow="0">
      <root>
        <mxCell id="AKlZgJkWNVHXloGJrO5A-0" />
        <mxCell id="AKlZgJkWNVHXloGJrO5A-1" parent="AKlZgJkWNVHXloGJrO5A-0" />
        <mxCell id="pTDmiaxmzj9pVhCjkG1d-23" value="" style="rounded=1;whiteSpace=wrap;html=1;fontSize=12;fontColor=#333333;strokeWidth=1;dashed=1;fillColor=#f5f5f5;strokeColor=#666666;" parent="AKlZgJkWNVHXloGJrO5A-1" vertex="1">
          <mxGeometry x="65" y="40" width="815" height="630" as="geometry" />
        </mxCell>
        <mxCell id="pTDmiaxmzj9pVhCjkG1d-2" style="edgeStyle=orthogonalEdgeStyle;rounded=0;orthogonalLoop=1;jettySize=auto;html=1;exitX=0.5;exitY=1;exitDx=0;exitDy=0;entryX=0.5;entryY=0;entryDx=0;entryDy=0;fontSize=12;fontColor=#000000;" parent="AKlZgJkWNVHXloGJrO5A-1" source="AKlZgJkWNVHXloGJrO5A-2" target="AKlZgJkWNVHXloGJrO5A-4" edge="1">
          <mxGeometry relative="1" as="geometry" />
        </mxCell>
        <mxCell id="pTDmiaxmzj9pVhCjkG1d-3" style="edgeStyle=orthogonalEdgeStyle;rounded=0;orthogonalLoop=1;jettySize=auto;html=1;exitX=0.5;exitY=1;exitDx=0;exitDy=0;fontSize=12;fontColor=#000000;" parent="AKlZgJkWNVHXloGJrO5A-1" source="AKlZgJkWNVHXloGJrO5A-2" target="AKlZgJkWNVHXloGJrO5A-5" edge="1">
          <mxGeometry relative="1" as="geometry" />
        </mxCell>
        <mxCell id="pTDmiaxmzj9pVhCjkG1d-4" style="edgeStyle=orthogonalEdgeStyle;rounded=0;orthogonalLoop=1;jettySize=auto;html=1;exitX=0.5;exitY=1;exitDx=0;exitDy=0;fontSize=12;fontColor=#000000;" parent="AKlZgJkWNVHXloGJrO5A-1" source="AKlZgJkWNVHXloGJrO5A-2" target="AKlZgJkWNVHXloGJrO5A-6" edge="1">
          <mxGeometry relative="1" as="geometry" />
        </mxCell>
        <mxCell id="pTDmiaxmzj9pVhCjkG1d-5" style="edgeStyle=orthogonalEdgeStyle;rounded=0;orthogonalLoop=1;jettySize=auto;html=1;exitX=0.5;exitY=1;exitDx=0;exitDy=0;fontSize=12;fontColor=#000000;" parent="AKlZgJkWNVHXloGJrO5A-1" source="AKlZgJkWNVHXloGJrO5A-2" target="AKlZgJkWNVHXloGJrO5A-7" edge="1">
          <mxGeometry relative="1" as="geometry">
            <Array as="points">
              <mxPoint x="480" y="150" />
              <mxPoint x="580" y="150" />
            </Array>
          </mxGeometry>
        </mxCell>
        <mxCell id="pTDmiaxmzj9pVhCjkG1d-6" style="edgeStyle=orthogonalEdgeStyle;rounded=0;orthogonalLoop=1;jettySize=auto;html=1;exitX=0.5;exitY=1;exitDx=0;exitDy=0;fontSize=12;fontColor=#000000;" parent="AKlZgJkWNVHXloGJrO5A-1" source="AKlZgJkWNVHXloGJrO5A-2" target="AKlZgJkWNVHXloGJrO5A-8" edge="1">
          <mxGeometry relative="1" as="geometry" />
        </mxCell>
        <mxCell id="AKlZgJkWNVHXloGJrO5A-2" value="策略器1" style="ellipse;whiteSpace=wrap;html=1;fontSize=12;strokeWidth=2;fillColor=#dae8fc;strokeColor=#6c8ebf;" parent="AKlZgJkWNVHXloGJrO5A-1" vertex="1">
          <mxGeometry x="440" y="50" width="80" height="50" as="geometry" />
        </mxCell>
        <mxCell id="AKlZgJkWNVHXloGJrO5A-18" style="edgeStyle=orthogonalEdgeStyle;rounded=0;orthogonalLoop=1;jettySize=auto;html=1;exitX=0.5;exitY=1;exitDx=0;exitDy=0;fontSize=12;fontColor=#000000;" parent="AKlZgJkWNVHXloGJrO5A-1" source="AKlZgJkWNVHXloGJrO5A-4" target="AKlZgJkWNVHXloGJrO5A-10" edge="1">
          <mxGeometry relative="1" as="geometry" />
        </mxCell>
        <mxCell id="AKlZgJkWNVHXloGJrO5A-4" value="策略器&lt;br&gt;2" style="ellipse;whiteSpace=wrap;html=1;fontSize=12;strokeWidth=2;fillColor=#dae8fc;strokeColor=#6c8ebf;" parent="AKlZgJkWNVHXloGJrO5A-1" vertex="1">
          <mxGeometry x="120" y="200" width="80" height="50" as="geometry" />
        </mxCell>
        <mxCell id="AKlZgJkWNVHXloGJrO5A-19" style="edgeStyle=orthogonalEdgeStyle;rounded=0;orthogonalLoop=1;jettySize=auto;html=1;exitX=0.5;exitY=1;exitDx=0;exitDy=0;entryX=0.5;entryY=0;entryDx=0;entryDy=0;fontSize=12;fontColor=#000000;" parent="AKlZgJkWNVHXloGJrO5A-1" source="AKlZgJkWNVHXloGJrO5A-5" target="AKlZgJkWNVHXloGJrO5A-10" edge="1">
          <mxGeometry relative="1" as="geometry" />
        </mxCell>
        <mxCell id="AKlZgJkWNVHXloGJrO5A-5" value="策略器&lt;br&gt;3" style="ellipse;whiteSpace=wrap;html=1;fontSize=12;strokeWidth=2;fillColor=#dae8fc;strokeColor=#6c8ebf;" parent="AKlZgJkWNVHXloGJrO5A-1" vertex="1">
          <mxGeometry x="220" y="200" width="80" height="50" as="geometry" />
        </mxCell>
        <mxCell id="AKlZgJkWNVHXloGJrO5A-20" style="edgeStyle=orthogonalEdgeStyle;rounded=0;orthogonalLoop=1;jettySize=auto;html=1;exitX=0.5;exitY=1;exitDx=0;exitDy=0;fontSize=12;fontColor=#000000;" parent="AKlZgJkWNVHXloGJrO5A-1" source="AKlZgJkWNVHXloGJrO5A-6" target="AKlZgJkWNVHXloGJrO5A-11" edge="1">
          <mxGeometry relative="1" as="geometry" />
        </mxCell>
        <mxCell id="AKlZgJkWNVHXloGJrO5A-6" value="策略器&lt;br&gt;4" style="ellipse;whiteSpace=wrap;html=1;fontSize=12;strokeWidth=2;fillColor=#dae8fc;strokeColor=#6c8ebf;" parent="AKlZgJkWNVHXloGJrO5A-1" vertex="1">
          <mxGeometry x="440" y="210" width="80" height="50" as="geometry" />
        </mxCell>
        <mxCell id="AKlZgJkWNVHXloGJrO5A-21" style="edgeStyle=orthogonalEdgeStyle;rounded=0;orthogonalLoop=1;jettySize=auto;html=1;exitX=0.5;exitY=1;exitDx=0;exitDy=0;entryX=0.5;entryY=0;entryDx=0;entryDy=0;fontSize=12;fontColor=#000000;" parent="AKlZgJkWNVHXloGJrO5A-1" source="AKlZgJkWNVHXloGJrO5A-7" target="AKlZgJkWNVHXloGJrO5A-11" edge="1">
          <mxGeometry relative="1" as="geometry" />
        </mxCell>
        <mxCell id="AKlZgJkWNVHXloGJrO5A-7" value="策略器&lt;br&gt;5" style="ellipse;whiteSpace=wrap;html=1;fontSize=12;strokeWidth=2;fillColor=#dae8fc;strokeColor=#6c8ebf;" parent="AKlZgJkWNVHXloGJrO5A-1" vertex="1">
          <mxGeometry x="540" y="210" width="80" height="50" as="geometry" />
        </mxCell>
        <mxCell id="pTDmiaxmzj9pVhCjkG1d-0" style="edgeStyle=orthogonalEdgeStyle;rounded=0;orthogonalLoop=1;jettySize=auto;html=1;exitX=0.5;exitY=1;exitDx=0;exitDy=0;entryX=1;entryY=0.5;entryDx=0;entryDy=0;fontSize=12;fontColor=#000000;" parent="AKlZgJkWNVHXloGJrO5A-1" source="AKlZgJkWNVHXloGJrO5A-8" target="AKlZgJkWNVHXloGJrO5A-11" edge="1">
          <mxGeometry relative="1" as="geometry" />
        </mxCell>
        <mxCell id="AKlZgJkWNVHXloGJrO5A-8" value="策略器(兜底)&lt;br&gt;6" style="ellipse;whiteSpace=wrap;html=1;fontSize=12;strokeWidth=2;fillColor=#dae8fc;strokeColor=#6c8ebf;" parent="AKlZgJkWNVHXloGJrO5A-1" vertex="1">
          <mxGeometry x="790" y="200" width="80" height="50" as="geometry" />
        </mxCell>
        <mxCell id="AKlZgJkWNVHXloGJrO5A-43" style="edgeStyle=orthogonalEdgeStyle;rounded=0;orthogonalLoop=1;jettySize=auto;html=1;exitX=0.5;exitY=1;exitDx=0;exitDy=0;fontSize=12;fontColor=#000000;" parent="AKlZgJkWNVHXloGJrO5A-1" source="AKlZgJkWNVHXloGJrO5A-10" target="AKlZgJkWNVHXloGJrO5A-31" edge="1">
          <mxGeometry relative="1" as="geometry" />
        </mxCell>
        <mxCell id="AKlZgJkWNVHXloGJrO5A-44" style="edgeStyle=orthogonalEdgeStyle;rounded=0;orthogonalLoop=1;jettySize=auto;html=1;exitX=0.5;exitY=1;exitDx=0;exitDy=0;entryX=0.5;entryY=0;entryDx=0;entryDy=0;fontSize=12;fontColor=#000000;" parent="AKlZgJkWNVHXloGJrO5A-1" source="AKlZgJkWNVHXloGJrO5A-10" target="AKlZgJkWNVHXloGJrO5A-32" edge="1">
          <mxGeometry relative="1" as="geometry" />
        </mxCell>
        <mxCell id="AKlZgJkWNVHXloGJrO5A-45" style="edgeStyle=orthogonalEdgeStyle;rounded=0;orthogonalLoop=1;jettySize=auto;html=1;exitX=0.5;exitY=1;exitDx=0;exitDy=0;fontSize=12;fontColor=#000000;" parent="AKlZgJkWNVHXloGJrO5A-1" source="AKlZgJkWNVHXloGJrO5A-10" target="AKlZgJkWNVHXloGJrO5A-33" edge="1">
          <mxGeometry relative="1" as="geometry" />
        </mxCell>
        <mxCell id="AKlZgJkWNVHXloGJrO5A-10" value="等待器&lt;br&gt;7" style="ellipse;whiteSpace=wrap;html=1;fontSize=12;strokeWidth=2;fillColor=#d5e8d4;strokeColor=#82b366;" parent="AKlZgJkWNVHXloGJrO5A-1" vertex="1">
          <mxGeometry x="170" y="300" width="80" height="50" as="geometry" />
        </mxCell>
        <mxCell id="AKlZgJkWNVHXloGJrO5A-46" style="edgeStyle=orthogonalEdgeStyle;rounded=0;orthogonalLoop=1;jettySize=auto;html=1;exitX=0.5;exitY=1;exitDx=0;exitDy=0;fontSize=12;fontColor=#000000;" parent="AKlZgJkWNVHXloGJrO5A-1" source="AKlZgJkWNVHXloGJrO5A-11" target="AKlZgJkWNVHXloGJrO5A-34" edge="1">
          <mxGeometry relative="1" as="geometry" />
        </mxCell>
        <mxCell id="AKlZgJkWNVHXloGJrO5A-47" style="edgeStyle=orthogonalEdgeStyle;rounded=0;orthogonalLoop=1;jettySize=auto;html=1;exitX=0.5;exitY=1;exitDx=0;exitDy=0;fontSize=12;fontColor=#000000;" parent="AKlZgJkWNVHXloGJrO5A-1" source="AKlZgJkWNVHXloGJrO5A-11" target="AKlZgJkWNVHXloGJrO5A-35" edge="1">
          <mxGeometry relative="1" as="geometry" />
        </mxCell>
        <mxCell id="AKlZgJkWNVHXloGJrO5A-48" style="edgeStyle=orthogonalEdgeStyle;rounded=0;orthogonalLoop=1;jettySize=auto;html=1;exitX=0.5;exitY=1;exitDx=0;exitDy=0;entryX=0.5;entryY=0;entryDx=0;entryDy=0;fontSize=12;fontColor=#000000;" parent="AKlZgJkWNVHXloGJrO5A-1" source="AKlZgJkWNVHXloGJrO5A-11" target="AKlZgJkWNVHXloGJrO5A-36" edge="1">
          <mxGeometry relative="1" as="geometry" />
        </mxCell>
        <mxCell id="AKlZgJkWNVHXloGJrO5A-11" value="等待器&lt;br&gt;8" style="ellipse;whiteSpace=wrap;html=1;fontSize=12;strokeWidth=2;fillColor=#d5e8d4;strokeColor=#82b366;" parent="AKlZgJkWNVHXloGJrO5A-1" vertex="1">
          <mxGeometry x="490" y="310" width="80" height="50" as="geometry" />
        </mxCell>
        <mxCell id="pTDmiaxmzj9pVhCjkG1d-12" style="edgeStyle=orthogonalEdgeStyle;rounded=0;orthogonalLoop=1;jettySize=auto;html=1;exitX=0.5;exitY=1;exitDx=0;exitDy=0;entryX=0.5;entryY=0;entryDx=0;entryDy=0;fontSize=12;fontColor=#000000;" parent="AKlZgJkWNVHXloGJrO5A-1" source="AKlZgJkWNVHXloGJrO5A-31" target="pTDmiaxmzj9pVhCjkG1d-11" edge="1">
          <mxGeometry relative="1" as="geometry" />
        </mxCell>
        <mxCell id="AKlZgJkWNVHXloGJrO5A-31" value="策略器&lt;br&gt;9" style="ellipse;whiteSpace=wrap;html=1;fontSize=12;strokeWidth=2;fillColor=#dae8fc;strokeColor=#6c8ebf;" parent="AKlZgJkWNVHXloGJrO5A-1" vertex="1">
          <mxGeometry x="115" y="420" width="50" height="50" as="geometry" />
        </mxCell>
        <mxCell id="pTDmiaxmzj9pVhCjkG1d-19" style="edgeStyle=orthogonalEdgeStyle;rounded=0;orthogonalLoop=1;jettySize=auto;html=1;exitX=0.5;exitY=1;exitDx=0;exitDy=0;fontSize=12;fontColor=#000000;" parent="AKlZgJkWNVHXloGJrO5A-1" source="AKlZgJkWNVHXloGJrO5A-32" target="pTDmiaxmzj9pVhCjkG1d-11" edge="1">
          <mxGeometry relative="1" as="geometry" />
        </mxCell>
        <mxCell id="AKlZgJkWNVHXloGJrO5A-32" value="策略器&lt;br&gt;10" style="ellipse;whiteSpace=wrap;html=1;fontSize=12;strokeWidth=2;fillColor=#dae8fc;strokeColor=#6c8ebf;" parent="AKlZgJkWNVHXloGJrO5A-1" vertex="1">
          <mxGeometry x="185" y="420" width="50" height="50" as="geometry" />
        </mxCell>
        <mxCell id="pTDmiaxmzj9pVhCjkG1d-14" style="edgeStyle=orthogonalEdgeStyle;rounded=0;orthogonalLoop=1;jettySize=auto;html=1;exitX=0.5;exitY=1;exitDx=0;exitDy=0;entryX=0.5;entryY=0;entryDx=0;entryDy=0;fontSize=12;fontColor=#000000;" parent="AKlZgJkWNVHXloGJrO5A-1" source="AKlZgJkWNVHXloGJrO5A-33" target="pTDmiaxmzj9pVhCjkG1d-11" edge="1">
          <mxGeometry relative="1" as="geometry" />
        </mxCell>
        <mxCell id="AKlZgJkWNVHXloGJrO5A-33" value="策略器&lt;br&gt;11" style="ellipse;whiteSpace=wrap;html=1;fontSize=12;strokeWidth=2;fillColor=#dae8fc;strokeColor=#6c8ebf;" parent="AKlZgJkWNVHXloGJrO5A-1" vertex="1">
          <mxGeometry x="257" y="420" width="50" height="50" as="geometry" />
        </mxCell>
        <mxCell id="pTDmiaxmzj9pVhCjkG1d-24" style="edgeStyle=orthogonalEdgeStyle;rounded=0;orthogonalLoop=1;jettySize=auto;html=1;exitX=0.5;exitY=1;exitDx=0;exitDy=0;entryX=0.5;entryY=0;entryDx=0;entryDy=0;fontSize=12;fontColor=#000000;" parent="AKlZgJkWNVHXloGJrO5A-1" source="AKlZgJkWNVHXloGJrO5A-34" target="pTDmiaxmzj9pVhCjkG1d-11" edge="1">
          <mxGeometry relative="1" as="geometry">
            <Array as="points">
              <mxPoint x="459" y="530" />
              <mxPoint x="510" y="530" />
            </Array>
          </mxGeometry>
        </mxCell>
        <mxCell id="AKlZgJkWNVHXloGJrO5A-34" value="策略器&lt;br&gt;12" style="ellipse;whiteSpace=wrap;html=1;fontSize=12;strokeWidth=2;fillColor=#dae8fc;strokeColor=#6c8ebf;" parent="AKlZgJkWNVHXloGJrO5A-1" vertex="1">
          <mxGeometry x="434" y="430" width="50" height="50" as="geometry" />
        </mxCell>
        <mxCell id="pTDmiaxmzj9pVhCjkG1d-25" style="edgeStyle=orthogonalEdgeStyle;rounded=0;orthogonalLoop=1;jettySize=auto;html=1;exitX=0.5;exitY=1;exitDx=0;exitDy=0;entryX=0.5;entryY=0;entryDx=0;entryDy=0;fontSize=12;fontColor=#000000;" parent="AKlZgJkWNVHXloGJrO5A-1" source="AKlZgJkWNVHXloGJrO5A-35" target="pTDmiaxmzj9pVhCjkG1d-11" edge="1">
          <mxGeometry relative="1" as="geometry">
            <Array as="points">
              <mxPoint x="530" y="530" />
              <mxPoint x="510" y="530" />
            </Array>
          </mxGeometry>
        </mxCell>
        <mxCell id="AKlZgJkWNVHXloGJrO5A-35" value="策略器&lt;br&gt;13" style="ellipse;whiteSpace=wrap;html=1;fontSize=12;strokeWidth=2;fillColor=#dae8fc;strokeColor=#6c8ebf;" parent="AKlZgJkWNVHXloGJrO5A-1" vertex="1">
          <mxGeometry x="505" y="430" width="50" height="50" as="geometry" />
        </mxCell>
        <mxCell id="pTDmiaxmzj9pVhCjkG1d-26" style="edgeStyle=orthogonalEdgeStyle;rounded=0;orthogonalLoop=1;jettySize=auto;html=1;exitX=0.5;exitY=1;exitDx=0;exitDy=0;fontSize=12;fontColor=#000000;" parent="AKlZgJkWNVHXloGJrO5A-1" source="AKlZgJkWNVHXloGJrO5A-36" target="pTDmiaxmzj9pVhCjkG1d-11" edge="1">
          <mxGeometry relative="1" as="geometry">
            <Array as="points">
              <mxPoint x="601" y="530" />
              <mxPoint x="510" y="530" />
            </Array>
          </mxGeometry>
        </mxCell>
        <mxCell id="AKlZgJkWNVHXloGJrO5A-36" value="策略器&lt;br&gt;14" style="ellipse;whiteSpace=wrap;html=1;fontSize=12;strokeWidth=2;fillColor=#dae8fc;strokeColor=#6c8ebf;" parent="AKlZgJkWNVHXloGJrO5A-1" vertex="1">
          <mxGeometry x="576" y="430" width="50" height="50" as="geometry" />
        </mxCell>
        <mxCell id="pTDmiaxmzj9pVhCjkG1d-7" value="策略器" style="ellipse;whiteSpace=wrap;html=1;fontSize=12;strokeWidth=2;fillColor=#dae8fc;strokeColor=#6c8ebf;" parent="AKlZgJkWNVHXloGJrO5A-1" vertex="1">
          <mxGeometry x="970" y="440" width="80" height="50" as="geometry" />
        </mxCell>
        <mxCell id="pTDmiaxmzj9pVhCjkG1d-8" value="等待器" style="ellipse;whiteSpace=wrap;html=1;fontSize=12;strokeWidth=2;fillColor=#d5e8d4;strokeColor=#82b366;" parent="AKlZgJkWNVHXloGJrO5A-1" vertex="1">
          <mxGeometry x="970" y="520" width="80" height="50" as="geometry" />
        </mxCell>
        <mxCell id="pTDmiaxmzj9pVhCjkG1d-9" value="：策略+停留" style="text;html=1;strokeColor=none;fillColor=none;align=center;verticalAlign=middle;whiteSpace=wrap;rounded=0;fontSize=12;fontColor=#000000;" parent="AKlZgJkWNVHXloGJrO5A-1" vertex="1">
          <mxGeometry x="1039" y="450" width="100" height="30" as="geometry" />
        </mxCell>
        <mxCell id="pTDmiaxmzj9pVhCjkG1d-10" value="：处于此节点用户状态为等待中，自然转化。直到等待时间结束" style="text;html=1;strokeColor=none;fillColor=none;align=center;verticalAlign=middle;whiteSpace=wrap;rounded=0;fontSize=12;fontColor=#000000;" parent="AKlZgJkWNVHXloGJrO5A-1" vertex="1">
          <mxGeometry x="1050" y="530" width="349" height="30" as="geometry" />
        </mxCell>
        <mxCell id="pTDmiaxmzj9pVhCjkG1d-22" style="edgeStyle=orthogonalEdgeStyle;rounded=0;orthogonalLoop=1;jettySize=auto;html=1;exitX=0.5;exitY=1;exitDx=0;exitDy=0;fontSize=12;fontColor=#000000;" parent="AKlZgJkWNVHXloGJrO5A-1" source="pTDmiaxmzj9pVhCjkG1d-11" target="pTDmiaxmzj9pVhCjkG1d-21" edge="1">
          <mxGeometry relative="1" as="geometry" />
        </mxCell>
        <mxCell id="pTDmiaxmzj9pVhCjkG1d-11" value="等待器&lt;br&gt;15" style="ellipse;whiteSpace=wrap;html=1;fontSize=12;strokeWidth=2;fillColor=#d5e8d4;strokeColor=#82b366;" parent="AKlZgJkWNVHXloGJrO5A-1" vertex="1">
          <mxGeometry x="470" y="590" width="80" height="50" as="geometry" />
        </mxCell>
        <mxCell id="pTDmiaxmzj9pVhCjkG1d-21" value="完成" style="rounded=1;whiteSpace=wrap;html=1;fontSize=12;strokeWidth=2;fillColor=#f8cecc;strokeColor=#b85450;" parent="AKlZgJkWNVHXloGJrO5A-1" vertex="1">
          <mxGeometry x="470" y="740" width="80" height="40" as="geometry" />
        </mxCell>
        <mxCell id="pTDmiaxmzj9pVhCjkG1d-27" value="DAG" style="text;html=1;strokeColor=none;fillColor=none;align=center;verticalAlign=middle;whiteSpace=wrap;rounded=0;dashed=1;fontSize=12;fontColor=#000000;" parent="AKlZgJkWNVHXloGJrO5A-1" vertex="1">
          <mxGeometry x="125" y="50" width="60" height="30" as="geometry" />
        </mxCell>
      </root>
    </mxGraphModel>
  </diagram>
  <diagram name="Page-11" id="rp9bEvsiaDZ99bw7Cmpc">
    <mxGraphModel dx="946" dy="614" grid="1" gridSize="10" guides="1" tooltips="1" connect="1" arrows="1" fold="1" page="1" pageScale="1" pageWidth="850" pageHeight="1100" math="0" shadow="0">
      <root>
        <mxCell id="yZY3ETq-kk8Fc7o4YFlj-0" />
        <mxCell id="yZY3ETq-kk8Fc7o4YFlj-1" parent="yZY3ETq-kk8Fc7o4YFlj-0" />
        <mxCell id="bJxq1zAdCAq3DkiIpc8s-72" style="edgeStyle=orthogonalEdgeStyle;rounded=0;orthogonalLoop=1;jettySize=auto;html=1;exitX=0.5;exitY=1;exitDx=0;exitDy=0;fontSize=12;fontColor=#000000;" parent="yZY3ETq-kk8Fc7o4YFlj-1" source="bJxq1zAdCAq3DkiIpc8s-15" target="bJxq1zAdCAq3DkiIpc8s-50" edge="1">
          <mxGeometry relative="1" as="geometry" />
        </mxCell>
        <mxCell id="bJxq1zAdCAq3DkiIpc8s-15" value="投放引擎" style="rounded=0;whiteSpace=wrap;html=1;fillColor=#fff2cc;strokeColor=#d6b656;" parent="yZY3ETq-kk8Fc7o4YFlj-1" vertex="1">
          <mxGeometry x="470" y="30" width="90" height="40" as="geometry" />
        </mxCell>
        <mxCell id="bJxq1zAdCAq3DkiIpc8s-71" style="edgeStyle=orthogonalEdgeStyle;rounded=0;orthogonalLoop=1;jettySize=auto;html=1;exitX=0.5;exitY=1;exitDx=0;exitDy=0;fontSize=12;fontColor=#000000;" parent="yZY3ETq-kk8Fc7o4YFlj-1" source="bJxq1zAdCAq3DkiIpc8s-49" target="bJxq1zAdCAq3DkiIpc8s-50" edge="1">
          <mxGeometry relative="1" as="geometry" />
        </mxCell>
        <mxCell id="bJxq1zAdCAq3DkiIpc8s-49" value="定时器" style="rounded=0;whiteSpace=wrap;html=1;fillColor=#fff2cc;strokeColor=#d6b656;" parent="yZY3ETq-kk8Fc7o4YFlj-1" vertex="1">
          <mxGeometry x="220" y="30" width="90" height="40" as="geometry" />
        </mxCell>
        <mxCell id="bJxq1zAdCAq3DkiIpc8s-79" style="edgeStyle=orthogonalEdgeStyle;rounded=0;orthogonalLoop=1;jettySize=auto;html=1;exitX=0.5;exitY=1;exitDx=0;exitDy=0;entryX=0.5;entryY=0;entryDx=0;entryDy=0;fontSize=12;fontColor=#000000;" parent="yZY3ETq-kk8Fc7o4YFlj-1" source="bJxq1zAdCAq3DkiIpc8s-50" target="bJxq1zAdCAq3DkiIpc8s-70" edge="1">
          <mxGeometry relative="1" as="geometry" />
        </mxCell>
        <mxCell id="bJxq1zAdCAq3DkiIpc8s-50" value="节点完成事件" style="ellipse;whiteSpace=wrap;html=1;fontSize=12;strokeWidth=1;fillColor=#d5e8d4;strokeColor=#82b366;" parent="yZY3ETq-kk8Fc7o4YFlj-1" vertex="1">
          <mxGeometry x="340" y="120" width="80" height="40" as="geometry" />
        </mxCell>
        <mxCell id="bJxq1zAdCAq3DkiIpc8s-69" style="edgeStyle=orthogonalEdgeStyle;rounded=0;orthogonalLoop=1;jettySize=auto;html=1;exitX=0.5;exitY=1;exitDx=0;exitDy=0;fontSize=12;fontColor=#000000;" parent="yZY3ETq-kk8Fc7o4YFlj-1" source="bJxq1zAdCAq3DkiIpc8s-55" target="bJxq1zAdCAq3DkiIpc8s-58" edge="1">
          <mxGeometry relative="1" as="geometry" />
        </mxCell>
        <mxCell id="bJxq1zAdCAq3DkiIpc8s-55" value="节点跃迁" style="rounded=0;whiteSpace=wrap;html=1;fillColor=#fff2cc;strokeColor=#d6b656;" parent="yZY3ETq-kk8Fc7o4YFlj-1" vertex="1">
          <mxGeometry x="335" y="287" width="90" height="40" as="geometry" />
        </mxCell>
        <mxCell id="bJxq1zAdCAq3DkiIpc8s-65" style="edgeStyle=orthogonalEdgeStyle;rounded=0;orthogonalLoop=1;jettySize=auto;html=1;exitX=0;exitY=0.5;exitDx=0;exitDy=0;entryX=0;entryY=0.5;entryDx=0;entryDy=0;fontSize=12;fontColor=#000000;" parent="yZY3ETq-kk8Fc7o4YFlj-1" source="bJxq1zAdCAq3DkiIpc8s-57" target="bJxq1zAdCAq3DkiIpc8s-49" edge="1">
          <mxGeometry relative="1" as="geometry" />
        </mxCell>
        <mxCell id="bJxq1zAdCAq3DkiIpc8s-57" value="等待器节点类型" style="rounded=0;whiteSpace=wrap;html=1;fillColor=#fff2cc;strokeColor=#d6b656;" parent="yZY3ETq-kk8Fc7o4YFlj-1" vertex="1">
          <mxGeometry x="230" y="800" width="90" height="40" as="geometry" />
        </mxCell>
        <mxCell id="bJxq1zAdCAq3DkiIpc8s-67" style="edgeStyle=orthogonalEdgeStyle;rounded=0;orthogonalLoop=1;jettySize=auto;html=1;exitX=0.5;exitY=1;exitDx=0;exitDy=0;entryX=0.5;entryY=0;entryDx=0;entryDy=0;fontSize=12;fontColor=#000000;" parent="yZY3ETq-kk8Fc7o4YFlj-1" source="bJxq1zAdCAq3DkiIpc8s-58" target="bJxq1zAdCAq3DkiIpc8s-59" edge="1">
          <mxGeometry relative="1" as="geometry" />
        </mxCell>
        <mxCell id="bJxq1zAdCAq3DkiIpc8s-81" style="edgeStyle=orthogonalEdgeStyle;rounded=0;orthogonalLoop=1;jettySize=auto;html=1;exitX=1;exitY=0.5;exitDx=0;exitDy=0;entryX=0.5;entryY=0;entryDx=0;entryDy=0;fontSize=12;fontColor=#000000;" parent="yZY3ETq-kk8Fc7o4YFlj-1" source="bJxq1zAdCAq3DkiIpc8s-58" target="bJxq1zAdCAq3DkiIpc8s-66" edge="1">
          <mxGeometry relative="1" as="geometry" />
        </mxCell>
        <mxCell id="bJxq1zAdCAq3DkiIpc8s-82" value="是" style="edgeLabel;html=1;align=center;verticalAlign=middle;resizable=0;points=[];fontSize=12;fontColor=#000000;" parent="bJxq1zAdCAq3DkiIpc8s-81" vertex="1" connectable="0">
          <mxGeometry x="-0.7077" y="2" relative="1" as="geometry">
            <mxPoint as="offset" />
          </mxGeometry>
        </mxCell>
        <mxCell id="bJxq1zAdCAq3DkiIpc8s-58" value="是否完成目标" style="rhombus;whiteSpace=wrap;html=1;fontSize=12;strokeWidth=1;fillColor=#f8cecc;strokeColor=#b85450;" parent="yZY3ETq-kk8Fc7o4YFlj-1" vertex="1">
          <mxGeometry x="330" y="380" width="100" height="90" as="geometry" />
        </mxCell>
        <mxCell id="bJxq1zAdCAq3DkiIpc8s-68" style="edgeStyle=orthogonalEdgeStyle;rounded=0;orthogonalLoop=1;jettySize=auto;html=1;exitX=0.5;exitY=1;exitDx=0;exitDy=0;fontSize=12;fontColor=#000000;" parent="yZY3ETq-kk8Fc7o4YFlj-1" source="bJxq1zAdCAq3DkiIpc8s-59" target="bJxq1zAdCAq3DkiIpc8s-62" edge="1">
          <mxGeometry relative="1" as="geometry" />
        </mxCell>
        <mxCell id="bJxq1zAdCAq3DkiIpc8s-83" style="edgeStyle=orthogonalEdgeStyle;rounded=0;orthogonalLoop=1;jettySize=auto;html=1;exitX=1;exitY=0.5;exitDx=0;exitDy=0;fontSize=12;fontColor=#000000;" parent="yZY3ETq-kk8Fc7o4YFlj-1" source="bJxq1zAdCAq3DkiIpc8s-59" target="bJxq1zAdCAq3DkiIpc8s-66" edge="1">
          <mxGeometry relative="1" as="geometry" />
        </mxCell>
        <mxCell id="bJxq1zAdCAq3DkiIpc8s-84" value="否" style="edgeLabel;html=1;align=center;verticalAlign=middle;resizable=0;points=[];fontSize=12;fontColor=#000000;" parent="bJxq1zAdCAq3DkiIpc8s-83" vertex="1" connectable="0">
          <mxGeometry x="-0.618" y="1" relative="1" as="geometry">
            <mxPoint as="offset" />
          </mxGeometry>
        </mxCell>
        <mxCell id="bJxq1zAdCAq3DkiIpc8s-59" value="是否有下级节点" style="rhombus;whiteSpace=wrap;html=1;fontSize=12;strokeWidth=1;fillColor=#f8cecc;strokeColor=#b85450;" parent="yZY3ETq-kk8Fc7o4YFlj-1" vertex="1">
          <mxGeometry x="330" y="496" width="100" height="90" as="geometry" />
        </mxCell>
        <mxCell id="bJxq1zAdCAq3DkiIpc8s-75" style="edgeStyle=orthogonalEdgeStyle;rounded=0;orthogonalLoop=1;jettySize=auto;html=1;exitX=0.5;exitY=1;exitDx=0;exitDy=0;entryX=0;entryY=0.5;entryDx=0;entryDy=0;fontSize=12;fontColor=#000000;" parent="yZY3ETq-kk8Fc7o4YFlj-1" source="bJxq1zAdCAq3DkiIpc8s-61" target="bJxq1zAdCAq3DkiIpc8s-49" edge="1">
          <mxGeometry relative="1" as="geometry">
            <Array as="points">
              <mxPoint x="485" y="860" />
              <mxPoint x="70" y="860" />
              <mxPoint x="70" y="50" />
            </Array>
          </mxGeometry>
        </mxCell>
        <mxCell id="bJxq1zAdCAq3DkiIpc8s-85" style="edgeStyle=orthogonalEdgeStyle;rounded=0;orthogonalLoop=1;jettySize=auto;html=1;exitX=0.5;exitY=1;exitDx=0;exitDy=0;entryX=1;entryY=0.5;entryDx=0;entryDy=0;fontSize=12;fontColor=#000000;dashed=1;" parent="yZY3ETq-kk8Fc7o4YFlj-1" source="bJxq1zAdCAq3DkiIpc8s-61" target="bJxq1zAdCAq3DkiIpc8s-15" edge="1">
          <mxGeometry relative="1" as="geometry">
            <Array as="points">
              <mxPoint x="485" y="910" />
              <mxPoint x="850" y="910" />
              <mxPoint x="850" y="50" />
            </Array>
          </mxGeometry>
        </mxCell>
        <mxCell id="bJxq1zAdCAq3DkiIpc8s-61" value="策略器节点类型" style="rounded=0;whiteSpace=wrap;html=1;fillColor=#fff2cc;strokeColor=#d6b656;" parent="yZY3ETq-kk8Fc7o4YFlj-1" vertex="1">
          <mxGeometry x="440" y="800" width="90" height="40" as="geometry" />
        </mxCell>
        <mxCell id="bJxq1zAdCAq3DkiIpc8s-77" style="edgeStyle=orthogonalEdgeStyle;rounded=0;orthogonalLoop=1;jettySize=auto;html=1;exitX=0.5;exitY=1;exitDx=0;exitDy=0;fontSize=12;fontColor=#000000;" parent="yZY3ETq-kk8Fc7o4YFlj-1" source="bJxq1zAdCAq3DkiIpc8s-62" target="bJxq1zAdCAq3DkiIpc8s-57" edge="1">
          <mxGeometry relative="1" as="geometry" />
        </mxCell>
        <mxCell id="bJxq1zAdCAq3DkiIpc8s-78" style="edgeStyle=orthogonalEdgeStyle;rounded=0;orthogonalLoop=1;jettySize=auto;html=1;exitX=0.5;exitY=1;exitDx=0;exitDy=0;fontSize=12;fontColor=#000000;" parent="yZY3ETq-kk8Fc7o4YFlj-1" source="bJxq1zAdCAq3DkiIpc8s-62" target="bJxq1zAdCAq3DkiIpc8s-61" edge="1">
          <mxGeometry relative="1" as="geometry" />
        </mxCell>
        <mxCell id="bJxq1zAdCAq3DkiIpc8s-62" value="下级节点类型" style="rhombus;whiteSpace=wrap;html=1;fontSize=12;strokeWidth=1;fillColor=#f8cecc;strokeColor=#b85450;" parent="yZY3ETq-kk8Fc7o4YFlj-1" vertex="1">
          <mxGeometry x="330" y="620" width="100" height="90" as="geometry" />
        </mxCell>
        <mxCell id="bJxq1zAdCAq3DkiIpc8s-66" value="结束" style="rounded=0;whiteSpace=wrap;html=1;fillColor=#f5f5f5;strokeColor=#666666;fontColor=#333333;" parent="yZY3ETq-kk8Fc7o4YFlj-1" vertex="1">
          <mxGeometry x="710" y="800" width="90" height="40" as="geometry" />
        </mxCell>
        <mxCell id="bJxq1zAdCAq3DkiIpc8s-80" style="edgeStyle=orthogonalEdgeStyle;rounded=0;orthogonalLoop=1;jettySize=auto;html=1;exitX=0.5;exitY=1;exitDx=0;exitDy=0;fontSize=12;fontColor=#000000;" parent="yZY3ETq-kk8Fc7o4YFlj-1" source="bJxq1zAdCAq3DkiIpc8s-70" target="bJxq1zAdCAq3DkiIpc8s-55" edge="1">
          <mxGeometry relative="1" as="geometry" />
        </mxCell>
        <mxCell id="bJxq1zAdCAq3DkiIpc8s-70" value="节点完成事件接收器" style="rounded=0;whiteSpace=wrap;html=1;fillColor=#fff2cc;strokeColor=#d6b656;" parent="yZY3ETq-kk8Fc7o4YFlj-1" vertex="1">
          <mxGeometry x="335" y="210" width="90" height="40" as="geometry" />
        </mxCell>
        <mxCell id="bJxq1zAdCAq3DkiIpc8s-73" value="MQ" style="text;html=1;strokeColor=none;fillColor=none;align=center;verticalAlign=middle;whiteSpace=wrap;rounded=0;fontSize=12;fontColor=#000000;" parent="yZY3ETq-kk8Fc7o4YFlj-1" vertex="1">
          <mxGeometry x="345" y="60" width="60" height="30" as="geometry" />
        </mxCell>
        <mxCell id="bJxq1zAdCAq3DkiIpc8s-74" value="延迟节点完成MQ" style="text;html=1;strokeColor=none;fillColor=none;align=center;verticalAlign=middle;whiteSpace=wrap;rounded=0;fontSize=12;fontColor=#000000;" parent="yZY3ETq-kk8Fc7o4YFlj-1" vertex="1">
          <mxGeometry x="210" y="740" width="60" height="30" as="geometry" />
        </mxCell>
        <mxCell id="bJxq1zAdCAq3DkiIpc8s-76" value="延迟兜底任务MQ" style="text;html=1;strokeColor=none;fillColor=none;align=center;verticalAlign=middle;whiteSpace=wrap;rounded=0;fontSize=12;fontColor=#000000;" parent="yZY3ETq-kk8Fc7o4YFlj-1" vertex="1">
          <mxGeometry x="70" y="740" width="60" height="30" as="geometry" />
        </mxCell>
        <mxCell id="bJxq1zAdCAq3DkiIpc8s-86" value="等待用户触发对应触发时机" style="text;html=1;strokeColor=none;fillColor=none;align=center;verticalAlign=middle;whiteSpace=wrap;rounded=0;fontSize=12;fontColor=#000000;" parent="yZY3ETq-kk8Fc7o4YFlj-1" vertex="1">
          <mxGeometry x="490" y="880" width="250" height="30" as="geometry" />
        </mxCell>
      </root>
    </mxGraphModel>
  </diagram>
</mxfile>
